{
.appVersion = "909";
copyright = "Copyright © 2014-2016 by Omnibus-Type. All rights reserved.";
customParameters = (
{
name = description;
value = "Copyright © 2014-2015 by Omnibus-Type. All rights reserved.";
},
{
name = vendorID;
value = OMNI;
}
);
date = "2016-07-28 05:34:12 +0000";
designer = "Alfonso Garcia";
designerURL = "http://www.omnibus-type.com/garcia";
familyName = Faustina;
featurePrefixes = (
{
automatic = 1;
code = "languagesystem DFLT dflt;\012languagesystem latn dflt;\012languagesystem latn TRK;\012languagesystem latn AZE;\012languagesystem latn GUA;\012languagesystem latn CRT;\012languagesystem latn NLD;\012languagesystem latn TAT;\012languagesystem latn CAT;\012languagesystem latn KAZ;\012languagesystem latn MOL;\012languagesystem latn ROM;\012languagesystem latn PLK;\012";
name = Languagesystems;
}
);
features = (
{
automatic = 1;
code = "feature ccmp;\012feature locl;\012feature sups;\012feature frac;\012feature ordn;\012feature lnum;\012feature onum;\012feature case;\012";
name = aalt;
},
{
automatic = 1;

glyphs = (
{
glyphname = A;
lastChange = "2016-07-29 05:33:17 +0000";
layers = (
{
anchors = (
{
name = bottom;
position = "{220, 0}";
},
{
name = ogonek;
position = "{494, 10}";
},
{
name = top;
position = "{311, 648}";
}
);
layerId = "8C17F4AC-C384-4A1F-BD5F-821C12AF061A";
paths = (
{
closed = 1;
nodes = (
"-51 0 LINE",
"136 0 LINE",
"140 37 LINE",
"72 52 LINE",
"72 69 LINE",
"125 186 LINE",
"336 186 LINE",
"356 75 LINE",
"356 52 LINE",
"286 37 LINE",
"283 0 LINE",
"494 0 LINE",
"497 37 LINE",
"439 49 LINE",
"326 653 LINE",
"284 653 LINE",
"9 52 LINE",
"-46 37 LINE"
);
},
{
closed = 1;
nodes = (
"151 243 LINE",
"262 491 LINE",
"274 518 LINE",
"275 521 LINE",
"280 494 LINE",
"325 243 LINE"
);
}
);
width = 510;
},
{
anchors = (
{
name = bottom;
position = "{237, 0}";
},
{
name = ogonek;
position = "{545, 10}";
},
{
name = top;
position = "{328, 648}";
}
);
layerId = "4E675A61-A531-4354-B628-4B264391FE65";
paths = (
{
closed = 1;
nodes = (
"-57 0 LINE",
"162 0 LINE",
"169 58 LINE",
"92 69 LINE",
"92 75 LINE",
"138 178 LINE",
"325 178 LINE",
"342 77 LINE",
"342 68 LINE",
"278 58 LINE",
"273 0 LINE",
"545 0 LINE",
"549 58 LINE",
"483 72 LINE",
"367 655 LINE",
"274 655 LINE",
"8 72 LINE",
"-49 58 LINE"
);
},
{
closed = 1;
nodes = (
"167 243 LINE",
"267 464 LINE",
"274 488 LINE",
"278 488 LINE",
"278 464 LINE",
"314 243 LINE"
);
}
);
width = 544;
}
);
unicode = 0041;
},
{
glyphname = Aacute;
lastChange = "2016-07-29 05:36:13 +0000";
layers = (
{
background = {
paths = (
{
closed = 1;
nodes = (
"-57 0 LINE",
"130 0 LINE",
"134 37 LINE",
"66 52 LINE",
"66 69 LINE",
"119 186 LINE",
"330 186 LINE",
"350 75 LINE",
"350 52 LINE",
"280 37 LINE",
"277 0 LINE",
"488 0 LINE",
"491 37 LINE",
"433 49 LINE",
"320 653 LINE",
"278 653 LINE",
"3 52 LINE",
"-52 37 LINE"
);
},
{
closed = 1;
nodes = (
"145 243 LINE",
"269 521 LINE",
"319 243 LINE"
);
},
{
closed = 1;
nodes = (
"228 681 LINE",
"358 735 LINE SMOOTH",
"390 748 OFFCURVE",
"408 761 OFFCURVE",
"408 786 CURVE SMOOTH",
"408 805 OFFCURVE",
"395 826 OFFCURVE",
"374 836 CURVE",
"206 716 LINE"
);
}
);
};
components = (
{
alignment = -1;
name = A;
},
{
alignment = -1;
name = acutecomb.case;
transform = "{1, 0, 0, 1, 141, -1}";
}
);
layerId = "8C17F4AC-C384-4A1F-BD5F-821C12AF061A";
width = 510;
},
{
background = {
paths = (
{
closed = 1;
nodes = (
"-57 0 LINE",
"162 0 LINE",
"169 58 LINE",
"92 69 LINE",
"92 75 LINE",
"138 178 LINE",
"325 178 LINE",
"342 77 LINE",
"342 68 LINE",
"278 58 LINE",
"273 0 LINE",
"545 0 LINE",
"549 58 LINE",
"483 72 LINE",
"367 655 LINE",
"274 655 LINE",
"8 72 LINE",
"-49 58 LINE"
);
},
{
closed = 1;
nodes = (
"393 729 LINE SMOOTH",
"432 743 OFFCURVE",
"438 757 OFFCURVE",
"438 775 CURVE SMOOTH",
"438 812 OFFCURVE",
"416 831 OFFCURVE",
"400 840 CURVE",
"212 722 LINE",
"236 674 LINE"
);
},
{
closed = 1;
nodes = (
"167 243 LINE",
"267 464 LINE",
"274 488 LINE",
"278 488 LINE",
"278 464 LINE",
"314 243 LINE"
);
}
);
};
components = (
{
alignment = -1;
name = A;
},
{
alignment = -1;
name = acutecomb.case;
transform = "{1, 0, 0, 1, 147, -1}";
}
);
layerId = "4E675A61-A531-4354-B628-4B264391FE65";
width = 544;
}
);
unicode = 00C1;
},
{
glyphname = Abreve;
lastChange = "2016-07-29 05:38:05 +0000";
layers = (
{
components = (
{
alignment = -1;
name = A;
}
);
layerId = "8C17F4AC-C384-4A1F-BD5F-821C12AF061A";
paths = (
{
closed = 1;
nodes = (
"437 829 LINE",
"437 829 OFFCURVE",
"377 758 OFFCURVE",
"292 758 CURVE SMOOTH",
"229 758 OFFCURVE",
"208 826 OFFCURVE",
"208 826 CURVE",
"187 817 OFFCURVE",
"161 801 OFFCURVE",
"161 785 CURVE SMOOTH",
"161 750 OFFCURVE",
"200 695 OFFCURVE",
"279 695 CURVE SMOOTH",
"392 695 OFFCURVE",
"458 810 OFFCURVE",
"458 810 CURVE"
);
}
);
width = 510;
},
{
components = (
{
alignment = -1;
name = A;
}
);
layerId = "4E675A61-A531-4354-B628-4B264391FE65";
paths = (
{
closed = 1;
nodes = (
"481 839 LINE",
"442 800 OFFCURVE",
"404 776 OFFCURVE",
"339 776 CURVE SMOOTH",
"303 776 OFFCURVE",
"275 789 OFFCURVE",
"251 836 CURVE",
"212 822 OFFCURVE",
"183 800 OFFCURVE",
"183 779 CURVE SMOOTH",
"183 723 OFFCURVE",
"256 679 OFFCURVE",
"320 679 CURVE SMOOTH",
"439 679 OFFCURVE",
"495 782 OFFCURVE",
"513 814 CURVE"
);
}
);
width = 544;
}
);
unicode = 0102;
},
{
glyphname = Acircumflex;
lastChange = "2016-07-29 05:38:08 +0000";
layers = (
{
components = (
{
alignment = -1;
name = A;
}
);
layerId = "8C17F4AC-C384-4A1F-BD5F-821C12AF061A";
paths = (
{
closed = 1;
nodes = (
"194 695 LINE",
"302 756 LINE",
"408 689 LINE",
"441 730 LINE",
"381 785 LINE",
"370 794 OFFCURVE",
"326 833 OFFCURVE",
"316 834 CURVE",
"307 834 OFFCURVE",
"296 823 OFFCURVE",
"240 781 CURVE SMOOTH",
"169 728 LINE"
);
}
);
width = 510;
},
{
components = (
{
alignment = -1;
name = A;
}
);
layerId = "4E675A61-A531-4354-B628-4B264391FE65";
paths = (
{
closed = 1;
nodes = (
"200 676 LINE",
"324 735 LINE",
"437 674 LINE",
"476 722 LINE",
"389 801 LINE SMOOTH",
"370 818 OFFCURVE",
"351 839 OFFCURVE",
"336 839 CURVE SMOOTH",
"324 839 OFFCURVE",
"301 819 OFFCURVE",
"264 789 CURVE SMOOTH",
"174 715 LINE"
);
}
);
width = 544;
}
);
unicode = 00C2;
},
{
glyphname = Adieresis;
lastChange = "2016-07-29 05:38:13 +0000";
layers = (
{
components = (
{
alignment = -1;
name = A;
}
);
layerId = "8C17F4AC-C384-4A1F-BD5F-821C12AF061A";
paths = (
{
closed = 1;
nodes = (
"235 703 OFFCURVE",
"255 732 OFFCURVE",
"255 765 CURVE SMOOTH",
"255 798 OFFCURVE",
"235 819 OFFCURVE",
"204 819 CURVE SMOOTH",
"171 819 OFFCURVE",
"149 791 OFFCURVE",
"149 759 CURVE SMOOTH",
"149 726 OFFCURVE",
"169 703 OFFCURVE",
"200 703 CURVE SMOOTH"
);
},
{
closed = 1;
nodes = (
"446 703 OFFCURVE",
"466 732 OFFCURVE",
"466 765 CURVE SMOOTH",
"466 798 OFFCURVE",
"446 819 OFFCURVE",
"415 819 CURVE SMOOTH",
"382 819 OFFCURVE",
"360 791 OFFCURVE",
"360 759 CURVE SMOOTH",
"360 726 OFFCURVE",
"380 703 OFFCURVE",
"411 703 CURVE SMOOTH"
);
}
);
width = 510;
},
{
components = (
{
alignment = -1;
name = A;
}
);
layerId = "4E675A61-A531-4354-B628-4B264391FE65";
paths = (
{
closed = 1;
nodes = (
"260 687 OFFCURVE",
"285 727 OFFCURVE",
"285 766 CURVE SMOOTH",
"285 806 OFFCURVE",
"258 832 OFFCURVE",
"222 832 CURVE SMOOTH",
"172 832 OFFCURVE",
"148 789 OFFCURVE",
"148 751 CURVE SMOOTH",
"148 716 OFFCURVE",
"173 687 OFFCURVE",
"210 687 CURVE SMOOTH"
);
},
{
closed = 1;
nodes = (
"483 687 OFFCURVE",
"508 727 OFFCURVE",
"508 766 CURVE SMOOTH",
"508 806 OFFCURVE",
"481 832 OFFCURVE",
"445 832 CURVE SMOOTH",
"395 832 OFFCURVE",
"371 789 OFFCURVE",
"371 751 CURVE SMOOTH",
"371 716 OFFCURVE",
"396 687 OFFCURVE",
"433 687 CURVE SMOOTH"
);
}
);
width = 544;
}
);
unicode = 00C4;
},
{
glyphname = Agrave;
lastChange = "2016-07-29 05:38:16 +0000";
layers = (
{
components = (
{
alignment = -1;
name = A;
}
);
layerId = "8C17F4AC-C384-4A1F-BD5F-821C12AF061A";
paths = (
{
closed = 1;
nodes = (
"372 681 LINE",
"394 716 LINE",
"226 836 LINE",
"205 826 OFFCURVE",
"192 805 OFFCURVE",
"192 786 CURVE SMOOTH",
"192 761 OFFCURVE",
"210 748 OFFCURVE",
"242 735 CURVE SMOOTH"
);
}
);
width = 510;
},
{
components = (
{
alignment = -1;
name = A;
}
);
layerId = "4E675A61-A531-4354-B628-4B264391FE65";
paths = (
{
closed = 1;
nodes = (
"405 674 LINE",
"429 722 LINE",
"241 840 LINE",
"222 829 OFFCURVE",
"203 812 OFFCURVE",
"203 774 CURVE SMOOTH",
"203 757 OFFCURVE",
"209 742 OFFCURVE",
"248 729 CURVE SMOOTH"
);
}
);
width = 544;
}
);
unicode = 00C0;
},
{
glyphname = Amacron;
lastChange = "2016-07-29 05:38:21 +0000";
layers = (
{
components = (
{
alignment = -1;
name = A;
}
);
layerId = "8C17F4AC-C384-4A1F-BD5F-821C12AF061A";
paths = (
{
closed = 1;
nodes = (
"157 719 LINE",
"439 719 LINE",
"447 782 LINE",
"165 782 LINE"
);
}
);
width = 510;
},
{
components = (
{
alignment = -1;
name = A;
}
);
layerId = "4E675A61-A531-4354-B628-4B264391FE65";
paths = (
{
closed = 1;
nodes = (
"149 716 LINE",
"499 716 LINE",
"509 798 LINE",
"159 798 LINE"
);
}
);
width = 544;
}
);
unicode = 0100;
},
{
glyphname = Aogonek;
lastChange = "2016-07-29 05:38:37 +0000";
layers = (
{
components = (
{
alignment = -1;
name = A;
}
);
layerId = "8C17F4AC-C384-4A1F-BD5F-821C12AF061A";
paths = (
{
closed = 1;
nodes = (
"366 6 LINE",
"316 -22 OFFCURVE",
"281 -66 OFFCURVE",
"281 -114 CURVE SMOOTH",
"281 -163 OFFCURVE",
"315 -177 OFFCURVE",
"356 -177 CURVE SMOOTH",
"417 -177 OFFCURVE",
"461 -130 OFFCURVE",
"461 -130 CURVE",
"445 -106 LINE",
"445 -106 OFFCURVE",
"415 -126 OFFCURVE",
"388 -126 CURVE SMOOTH",
"360 -126 OFFCURVE",
"347 -110 OFFCURVE",
"347 -86 CURVE SMOOTH",
"347 -41 OFFCURVE",
"383 -10 OFFCURVE",
"406 5 CURVE"
);
}
);
width = 510;
},
{
components = (
{
alignment = -1;
name = A;
}
);
layerId = "4E675A61-A531-4354-B628-4B264391FE65";
paths = (
{
closed = 1;
nodes = (
"389 7 LINE",
"344 -16 OFFCURVE",
"294 -56 OFFCURVE",
"294 -116 CURVE SMOOTH",
"294 -165 OFFCURVE",
"335 -187 OFFCURVE",
"391 -187 CURVE SMOOTH",
"457 -187 OFFCURVE",
"500 -134 OFFCURVE",
"500 -134 CURVE",
"476 -99 LINE",
"458 -110 OFFCURVE",
"439 -118 OFFCURVE",
"424 -118 CURVE SMOOTH",
"401 -118 OFFCURVE",
"389 -110 OFFCURVE",
"389 -84 CURVE SMOOTH",
"389 -40 OFFCURVE",
"429 -8 OFFCURVE",
"452 7 CURVE"
);
}
);
width = 544;
}
);
unicode = 0104;
},
{
glyphname = Aring;
lastChange = "2016-07-29 05:38:54 +0000";
layers = (
{
components = (
{
alignment = -1;
name = A;
}
);
layerId = "8C17F4AC-C384-4A1F-BD5F-821C12AF061A";
paths = (
{
closed = 1;
nodes = (
"367 662 OFFCURVE",
"402 712 OFFCURVE",
"402 765 CURVE SMOOTH",
"402 806 OFFCURVE",
"374 831 OFFCURVE",
"320 831 CURVE SMOOTH",
"258 831 OFFCURVE",
"223 782 OFFCURVE",
"223 729 CURVE SMOOTH",
"223 688 OFFCURVE",
"252 662 OFFCURVE",
"305 662 CURVE SMOOTH"
);
},
{
closed = 1;
nodes = (
"284 706 OFFCURVE",
"274 715 OFFCURVE",
"274 738 CURVE SMOOTH",
"274 770 OFFCURVE",
"283 787 OFFCURVE",
"311 787 CURVE SMOOTH",
"338 787 OFFCURVE",
"350 780 OFFCURVE",
"350 757 CURVE SMOOTH",
"350 725 OFFCURVE",
"341 706 OFFCURVE",
"314 706 CURVE SMOOTH"
);
}
);
width = 510;
},
{
components = (
{
alignment = -1;
name = A;
}
);
layerId = "4E675A61-A531-4354-B628-4B264391FE65";
paths = (
{
closed = 1;
nodes = (
"396 663 OFFCURVE",
"433 713 OFFCURVE",
"433 758 CURVE SMOOTH",
"433 817 OFFCURVE",
"394 839 OFFCURVE",
"337 839 CURVE SMOOTH",
"261 839 OFFCURVE",
"218 787 OFFCURVE",
"218 742 CURVE SMOOTH",
"218 690 OFFCURVE",
"245 663 OFFCURVE",
"316 663 CURVE SMOOTH"
);
},
{
closed = 1;
nodes = (
"303 710 OFFCURVE",
"294 720 OFFCURVE",
"294 741 CURVE SMOOTH",
"294 781 OFFCURVE",
"303 792 OFFCURVE",
"328 792 CURVE SMOOTH",
"343 792 OFFCURVE",
"356 785 OFFCURVE",
"356 759 CURVE SMOOTH",
"356 718 OFFCURVE",
"346 710 OFFCURVE",
"322 710 CURVE SMOOTH"
);
}
);
width = 544;
}
);
unicode = 00C5;
},
{
glyphname = Atilde;
lastChange = "2016-07-29 05:38:47 +0000";
layers = (
{
components = (
{
alignment = -1;
name = A;
}
);
layerId = "8C17F4AC-C384-4A1F-BD5F-821C12AF061A";
paths = (
{
closed = 1;
nodes = (
"152 710 LINE",
"232 747 LINE",
"298 724 LINE SMOOTH",
"322 715 OFFCURVE",
"354 704 OFFCURVE",
"374 704 CURVE SMOOTH",
"396 704 OFFCURVE",
"413 718 OFFCURVE",
"429 738 CURVE SMOOTH",
"466 786 LINE",
"443 812 LINE",
"363 775 LINE",
"297 798 LINE SMOOTH",
"272 807 OFFCURVE",
"240 818 OFFCURVE",
"221 818 CURVE SMOOTH",
"199 818 OFFCURVE",
"182 804 OFFCURVE",
"166 784 CURVE SMOOTH",
"129 736 LINE"
);
}
);
width = 510;
},
{
components = (
{
alignment = -1;
name = A;
}
);
layerId = "4E675A61-A531-4354-B628-4B264391FE65";
paths = (
{
closed = 1;
nodes = (
"158 694 LINE",
"240 732 LINE",
"345 696 LINE SMOOTH",
"368 688 OFFCURVE",
"387 682 OFFCURVE",
"412 682 CURVE SMOOTH",
"432 682 OFFCURVE",
"455 698 OFFCURVE",
"479 725 CURVE SMOOTH",
"529 781 LINE",
"500 814 LINE",
"418 776 LINE",
"313 811 LINE SMOOTH",
"290 819 OFFCURVE",
"271 825 OFFCURVE",
"246 825 CURVE SMOOTH",
"226 825 OFFCURVE",
"201 810 OFFCURVE",
"179 782 CURVE",
"129 727 LINE"
);
}
);
width = 544;
}
);
unicode = 00C3;
},
{
glyphname = AE;
lastChange = "2016-07-29 05:39:33 +0000";
layers = (
{
anchors = (
{
name = top;
position = "{440, 648}";
}
);
layerId = "8C17F4AC-C384-4A1F-BD5F-821C12AF061A";
paths = (
{
closed = 1;
nodes = (
"-101 0 LINE",
"94 0 LINE",
"98 37 LINE",
"30 52 LINE",
"30 69 LINE",
"173 280 LINE",
"336 280 LINE",
"304 51 LINE",
"233 37 LINE",
"229 0 LINE",
"638 0 LINE",
"657 152 LINE",
"615 152 LINE",
"577 45 LINE",
"475 45 LINE SMOOTH",
"438 45 OFFCURVE",
"400 48 OFFCURVE",
"382 51 CURVE",
"415 280 LINE",
"547 280 LINE",
"552 221 LINE",
"588 221 LINE",
"609 383 LINE",
"573 383 LINE",
"552 324 LINE",
"421 324 LINE",
"460 597 LINE",
"540 602 LINE",
"641 602 LINE",
"641 492 LINE",
"690 492 LINE",
"711 648 LINE",
"358 648 LINE",
"-41 52 LINE",
"-96 37 LINE"
);
},
{
closed = 1;
nodes = (
"200 324 LINE",
"378 596 LINE",
"382 596 LINE",
"342 324 LINE"
);
}
);
width = 691;
},
{
anchors = (
{
name = top;
position = "{444, 648}";
}
);
layerId = "4E675A61-A531-4354-B628-4B264391FE65";
paths = (
{
closed = 1;
nodes = (
"-80 0 LINE",
"139 0 LINE",
"146 58 LINE",
"69 69 LINE",
"69 75 LINE",
"195 273 LINE",
"352 273 LINE",
"324 72 LINE",
"253 58 LINE",
"244 0 LINE",
"712 0 LINE",
"734 180 LINE",
"673 180 LINE",
"633 69 LINE",
"539 69 LINE",
"513 71 OFFCURVE",
"486 74 OFFCURVE",
"460 76 CURVE",
"487 273 LINE",
"608 273 LINE",
"608 206 LINE",
"666 206 LINE",
"692 402 LINE",
"632 402 LINE",
"610 338 LINE",
"496 338 LINE",
"530 572 LINE",
"588 579 LINE",
"696 579 LINE",
"696 464 LINE",
"762 464 LINE",
"790 648 LINE",
"354 648 LINE",
"-15 72 LINE",
"-72 58 LINE"
);
},
{
closed = 1;
nodes = (
"236 338 LINE",
"389 579 LINE",
"395 579 LINE",
"361 338 LINE"
);
}
);
width = 775;
}
);
unicode = 00C6;
},
{
glyphname = B;
lastChange = "2015-02-26 23:17:58 +0000";
layers = (
{
anchors = (
{
name = bottom;
position = "{237, 0}";
},
{
name = top;
position = "{328, 648}";
}
);
layerId = "8C17F4AC-C384-4A1F-BD5F-821C12AF061A";
paths = (
{
closed = 1;
nodes = (
"16 0 LINE",
"217 0 LINE SMOOTH",
"393 0 OFFCURVE",
"465 108 OFFCURVE",
"465 206 CURVE SMOOTH",
"465 283 OFFCURVE",
"408 320 OFFCURVE",
"337 337 CURVE",
"441 375 OFFCURVE",
"483 447 OFFCURVE",
"483 516 CURVE SMOOTH",
"483 599 OFFCURVE",
"419 648 OFFCURVE",
"289 648 CURVE SMOOTH",
"104 648 LINE",
"100 611 LINE",
"168 597 LINE",
"91 51 LINE",
"20 37 LINE"
);
},
{
closed = 1;
nodes = (
"206 312 LINE",
"331 309 OFFCURVE",
"375 267 OFFCURVE",
"375 190 CURVE SMOOTH",
"375 96 OFFCURVE",
"325 45 OFFCURVE",
"231 45 CURVE SMOOTH",
"184 45 OFFCURVE",
"170 51 OFFCURVE",
"170 51 CURVE"
);
},
{
closed = 1;
nodes = (
"246 596 LINE",
"246 596 OFFCURVE",
"264 601 OFFCURVE",
"289 601 CURVE SMOOTH",
"359 601 OFFCURVE",
"401 580 OFFCURVE",
"401 502 CURVE SMOOTH",
"401 412 OFFCURVE",
"332 361 OFFCURVE",
"212 351 CURVE"
);
}
);
width = 543;
},
{
anchors = (
{
name = bottom;
position = "{243, 0}";
},
{
name = top;
position = "{334, 648}";
}
);
layerId = "4E675A61-A531-4354-B628-4B264391FE65";
paths = (
{
closed = 1;
nodes = (
"-13 0 LINE",
"247 0 LINE SMOOTH",
"378 0 OFFCURVE",
"505 65 OFFCURVE",
"505 206 CURVE SMOOTH",
"505 294 OFFCURVE",
"427 330 OFFCURVE",
"361 340 CURVE",
"441 361 OFFCURVE",
"530 421 OFFCURVE",
"530 514 CURVE SMOOTH",
"530 615 OFFCURVE",
"453 648 OFFCURVE",
"328 648 CURVE SMOOTH",
"76 648 LINE",
"68 590 LINE",
"138 576 LINE",
"67 72 LINE",
"-4 58 LINE"
);
},
{
closed = 1;
nodes = (
"233 303 LINE",
"317 299 OFFCURVE",
"360 266 OFFCURVE",
"360 190 CURVE SMOOTH",
"360 125 OFFCURVE",
"332 62 OFFCURVE",
"241 62 CURVE SMOOTH",
"229 62 OFFCURVE",
"212 64 OFFCURVE",
"201 67 CURVE"
);
},
{
closed = 1;
nodes = (
"273 576 LINE",
"273 576 OFFCURVE",
"284 579 OFFCURVE",
"301 579 CURVE SMOOTH",
"360 579 OFFCURVE",
"390 555 OFFCURVE",
"390 504 CURVE SMOOTH",
"390 429 OFFCURVE",
"355 380 OFFCURVE",
"240 360 CURVE"
);
}
);
width = 555;
}
);
unicode = 0042;
},
{
glyphname = C;
lastChange = "2015-02-27 02:03:58 +0000";
layers = (
{
anchors = (
{
name = bottom;
position = "{281, 0}";
},
{
name = top;
position = "{372, 648}";
}
);
layerId = "8C17F4AC-C384-4A1F-BD5F-821C12AF061A";
paths = (
{
closed = 1;
nodes = (
"401 70 LINE",
"401 70 OFFCURVE",
"362 40 OFFCURVE",
"290 40 CURVE SMOOTH",
"177 40 OFFCURVE",
"135 112 OFFCURVE",
"135 267 CURVE SMOOTH",
"135 481 OFFCURVE",
"214 609 OFFCURVE",
"354 609 CURVE SMOOTH",
"394 609 OFFCURVE",
"436 598 OFFCURVE",
"454 589 CURVE",
"461 493 LINE",
"503 493 LINE",
"525 640 LINE",
"495 648 OFFCURVE",
"441 660 OFFCURVE",
"367 660 CURVE SMOOTH",
"184 660 OFFCURVE",
"44 484 OFFCURVE",
"44 244 CURVE SMOOTH",
"44 91 OFFCURVE",
"101 -11 OFFCURVE",
"272 -11 CURVE SMOOTH",
"360 -11 OFFCURVE",
"425 14 OFFCURVE",
"460 31 CURVE",
"474 167 LINE",
"432 167 LINE"
);
}
);
width = 532;
},
{
anchors = (
{
name = bottom;
position = "{300, 0}";
},
{
name = top;
position = "{391, 648}";
}
);
layerId = "4E675A61-A531-4354-B628-4B264391FE65";
paths = (
{
closed = 1;
nodes = (
"403 82 LINE",
"382 65 OFFCURVE",
"344 56 OFFCURVE",
"310 56 CURVE SMOOTH",
"214 56 OFFCURVE",
"179 97 OFFCURVE",
"179 253 CURVE SMOOTH",
"179 492 OFFCURVE",
"241 595 OFFCURVE",
"345 595 CURVE SMOOTH",
"390 595 OFFCURVE",
"425 585 OFFCURVE",
"459 562 CURVE",
"463 464 LINE",
"532 464 LINE",
"560 640 LINE",
"510 653 OFFCURVE",
"443 660 OFFCURVE",
"373 660 CURVE SMOOTH",
"149 660 OFFCURVE",
"30 473 OFFCURVE",
"30 244 CURVE SMOOTH",
"30 100 OFFCURVE",
"105 -11 OFFCURVE",
"281 -11 CURVE SMOOTH",
"350 -11 OFFCURVE",
"426 2 OFFCURVE",
"489 26 CURVE",
"505 206 LINE",
"436 206 LINE"
);
}
);
width = 555;
}
);
unicode = 0043;
},
{
glyphname = Cacute;
lastChange = "2016-07-29 05:39:53 +0000";
layers = (
{
layerId = "8C17F4AC-C384-4A1F-BD5F-821C12AF061A";
paths = (
{
closed = 1;
nodes = (
"401 70 LINE",
"378 52 OFFCURVE",
"332 40 OFFCURVE",
"290 40 CURVE SMOOTH",
"181 40 OFFCURVE",
"135 107 OFFCURVE",
"135 267 CURVE SMOOTH",
"135 484 OFFCURVE",
"215 609 OFFCURVE",
"354 609 CURVE SMOOTH",
"388 609 OFFCURVE",
"432 600 OFFCURVE",
"454 589 CURVE",
"461 493 LINE",
"503 493 LINE",
"525 640 LINE",
"477 653 OFFCURVE",
"421 660 OFFCURVE",
"367 660 CURVE SMOOTH",
"182 660 OFFCURVE",
"44 482 OFFCURVE",
"44 244 CURVE SMOOTH",
"44 72 OFFCURVE",
"118 -11 OFFCURVE",
"272 -11 CURVE SMOOTH",
"337 -11 OFFCURVE",
"405 4 OFFCURVE",
"460 31 CURVE",
"474 167 LINE",
"432 167 LINE"
);
},
{
closed = 1;
nodes = (
"430 735 LINE SMOOTH",
"466 750 OFFCURVE",
"480 764 OFFCURVE",
"480 786 CURVE SMOOTH",
"480 806 OFFCURVE",
"466 826 OFFCURVE",
"446 836 CURVE",
"278 716 LINE",
"300 681 LINE"
);
}
);
width = 532;
},
{
layerId = "4E675A61-A531-4354-B628-4B264391FE65";
paths = (
{
closed = 1;
nodes = (
"403 82 LINE",
"384 66 OFFCURVE",
"348 56 OFFCURVE",
"310 56 CURVE SMOOTH",
"210 56 OFFCURVE",
"179 103 OFFCURVE",
"179 253 CURVE SMOOTH",
"179 480 OFFCURVE",
"235 595 OFFCURVE",
"345 595 CURVE SMOOTH",
"390 595 OFFCURVE",
"425 585 OFFCURVE",
"459 562 CURVE",
"463 464 LINE",
"532 464 LINE",
"560 640 LINE",
"512 653 OFFCURVE",
"445 660 OFFCURVE",
"373 660 CURVE SMOOTH",
"167 660 OFFCURVE",
"30 494 OFFCURVE",
"30 244 CURVE SMOOTH",
"30 83 OFFCURVE",
"122 -11 OFFCURVE",
"281 -11 CURVE SMOOTH",
"352 -11 OFFCURVE",
"428 2 OFFCURVE",
"489 26 CURVE",
"505 206 LINE",
"436 206 LINE"
);
},
{
closed = 1;
nodes = (
"435 729 LINE SMOOTH",
"467 740 OFFCURVE",
"480 753 OFFCURVE",
"480 775 CURVE SMOOTH",
"480 803 OFFCURVE",
"466 826 OFFCURVE",
"442 840 CURVE",
"254 722 LINE",
"278 674 LINE"
);
}
);
width = 555;
}
);
unicode = 0106;
},
{
glyphname = Ccaron;
lastChange = "2016-07-29 05:40:03 +0000";
layers = (
{
layerId = "8C17F4AC-C384-4A1F-BD5F-821C12AF061A";
paths = (
{
closed = 1;
nodes = (
"401 70 LINE",
"401 70 OFFCURVE",
"362 40 OFFCURVE",
"290 40 CURVE SMOOTH",
"177 40 OFFCURVE",
"135 112 OFFCURVE",
"135 267 CURVE SMOOTH",
"135 481 OFFCURVE",
"214 609 OFFCURVE",
"354 609 CURVE SMOOTH",
"394 609 OFFCURVE",
"436 598 OFFCURVE",
"454 589 CURVE",
"461 493 LINE",
"503 493 LINE",
"525 640 LINE",
"495 648 OFFCURVE",
"441 660 OFFCURVE",
"367 660 CURVE SMOOTH",
"184 660 OFFCURVE",
"44 484 OFFCURVE",
"44 244 CURVE SMOOTH",
"44 91 OFFCURVE",
"101 -11 OFFCURVE",
"272 -11 CURVE SMOOTH",
"360 -11 OFFCURVE",
"425 14 OFFCURVE",
"460 31 CURVE",
"474 167 LINE",
"432 167 LINE"
);
},
{
closed = 1;
nodes = (
"306 738 LINE SMOOTH",
"316 728 OFFCURVE",
"356 689 OFFCURVE",
"367 689 CURVE SMOOTH",
"376 689 OFFCURVE",
"392 696 OFFCURVE",
"443 744 CURVE SMOOTH",
"508 805 LINE",
"483 838 LINE",
"381 766 LINE",
"283 835 LINE",
"248 797 LINE"
);
}
);
width = 532;
},
{
layerId = "4E675A61-A531-4354-B628-4B264391FE65";
paths = (
{
closed = 1;
nodes = (
"403 82 LINE",
"382 65 OFFCURVE",
"344 56 OFFCURVE",
"310 56 CURVE SMOOTH",
"214 56 OFFCURVE",
"179 97 OFFCURVE",
"179 253 CURVE SMOOTH",
"179 492 OFFCURVE",
"241 595 OFFCURVE",
"345 595 CURVE SMOOTH",
"390 595 OFFCURVE",
"425 585 OFFCURVE",
"459 562 CURVE",
"463 464 LINE",
"532 464 LINE",
"560 640 LINE",
"510 653 OFFCURVE",
"443 660 OFFCURVE",
"373 660 CURVE SMOOTH",
"149 660 OFFCURVE",
"30 473 OFFCURVE",
"30 244 CURVE SMOOTH",
"30 100 OFFCURVE",
"105 -11 OFFCURVE",
"281 -11 CURVE SMOOTH",
"350 -11 OFFCURVE",
"426 2 OFFCURVE",
"489 26 CURVE",
"505 206 LINE",
"436 206 LINE"
);
},
{
closed = 1;
nodes = (
"302 712 LINE SMOOTH",
"321 694 OFFCURVE",
"340 674 OFFCURVE",
"355 674 CURVE SMOOTH",
"367 674 OFFCURVE",
"390 694 OFFCURVE",
"427 724 CURVE SMOOTH",
"517 798 LINE",
"491 837 LINE",
"367 778 LINE",
"254 839 LINE",
"215 791 LINE"
);
}
);
width = 555;
}
);
unicode = 010C;
},
{
glyphname = Ccedilla;
lastChange = "2015-02-26 23:15:43 +0000";
layers = (
{
layerId = "8C17F4AC-C384-4A1F-BD5F-821C12AF061A";
paths = (
{
closed = 1;
nodes = (
"163 -158 LINE",
"180 -171 OFFCURVE",
"208 -187 OFFCURVE",
"247 -187 CURVE SMOOTH",
"294 -187 OFFCURVE",
"355 -173 OFFCURVE",
"355 -98 CURVE SMOOTH",
"355 -76 OFFCURVE",
"341 -61 OFFCURVE",
"323 -50 CURVE SMOOTH",
"289 -29 LINE",
"289 -11 LINE",
"368 -8 OFFCURVE",
"427 15 OFFCURVE",
"460 31 CURVE",
"474 167 LINE",
"432 167 LINE",
"401 70 LINE",
"401 70 OFFCURVE",
"362 40 OFFCURVE",
"290 40 CURVE SMOOTH",
"177 40 OFFCURVE",
"135 112 OFFCURVE",
"135 267 CURVE SMOOTH",
"135 481 OFFCURVE",
"214 609 OFFCURVE",
"354 609 CURVE SMOOTH",
"394 609 OFFCURVE",
"436 598 OFFCURVE",
"454 589 CURVE",
"461 493 LINE",
"503 493 LINE",
"525 640 LINE",
"495 648 OFFCURVE",
"441 660 OFFCURVE",
"367 660 CURVE SMOOTH",
"184 660 OFFCURVE",
"44 484 OFFCURVE",
"44 244 CURVE SMOOTH",
"44 100 OFFCURVE",
"94 2 OFFCURVE",
"241 -10 CURVE",
"212 -49 LINE",
"212 -69 LINE",
"264 -96 LINE",
"276 -103 OFFCURVE",
"287 -111 OFFCURVE",
"287 -122 CURVE SMOOTH",
"287 -138 OFFCURVE",
"273 -145 OFFCURVE",
"243 -145 CURVE SMOOTH",
"210 -145 OFFCURVE",
"197 -138 OFFCURVE",
"183 -129 CURVE"
);
}
);
width = 532;
},
{
layerId = "4E675A61-A531-4354-B628-4B264391FE65";
paths = (
{
closed = 1;
nodes = (
"186 -167 LINE",
"214 -185 OFFCURVE",
"249 -194 OFFCURVE",
"303 -194 CURVE SMOOTH",
"356 -194 OFFCURVE",
"403 -168 OFFCURVE",
"403 -112 CURVE SMOOTH",
"403 -78 OFFCURVE",
"379 -61 OFFCURVE",
"351 -46 CURVE SMOOTH",
"317 -28 LINE",
"317 -10 LINE",
"375 -6 OFFCURVE",
"436 6 OFFCURVE",
"489 26 CURVE",
"505 206 LINE",
"436 206 LINE",
"403 82 LINE",
"382 65 OFFCURVE",
"344 56 OFFCURVE",
"310 56 CURVE SMOOTH",
"214 56 OFFCURVE",
"179 97 OFFCURVE",
"179 253 CURVE SMOOTH",
"179 492 OFFCURVE",
"241 595 OFFCURVE",
"345 595 CURVE SMOOTH",
"390 595 OFFCURVE",
"425 585 OFFCURVE",
"459 562 CURVE",
"463 464 LINE",
"532 464 LINE",
"560 640 LINE",
"510 653 OFFCURVE",
"443 660 OFFCURVE",
"373 660 CURVE SMOOTH",
"149 660 OFFCURVE",
"30 473 OFFCURVE",
"30 244 CURVE SMOOTH",
"30 105 OFFCURVE",
"99 -2 OFFCURVE",
"261 -10 CURVE",
"236 -51 LINE",
"236 -76 LINE",
"283 -99 LINE SMOOTH",
"301 -108 OFFCURVE",
"306 -113 OFFCURVE",
"306 -122 CURVE SMOOTH",
"306 -130 OFFCURVE",
"300 -136 OFFCURVE",
"288 -136 CURVE SMOOTH",
"249 -136 OFFCURVE",
"231 -127 OFFCURVE",
"212 -120 CURVE"
);
}
);
width = 555;
}
);
unicode = 00C7;
},
{
glyphname = D;
lastChange = "2016-07-29 05:40:25 +0000";
layers = (
{
anchors = (
{
name = bottom;
position = "{283, 0}";
},
{
name = center;
position = "{342, 324}";
},
{
name = top;
position = "{374, 648}";
}
);
layerId = "8C17F4AC-C384-4A1F-BD5F-821C12AF061A";
paths = (
{
closed = 1;
nodes = (
"15 0 LINE",
"232 0 LINE SMOOTH",
"445 0 OFFCURVE",
"593 167 OFFCURVE",
"593 406 CURVE SMOOTH",
"593 560 OFFCURVE",
"499 648 OFFCURVE",
"334 648 CURVE SMOOTH",
"103 648 LINE",
"99 611 LINE",
"167 597 LINE",
"90 51 LINE",
"19 37 LINE"
);
},
{
closed = 1;
nodes = (
"246 597 LINE",
"253 599 OFFCURVE",
"277 601 OFFCURVE",
"306 601 CURVE SMOOTH",
"445 601 OFFCURVE",
"505 533 OFFCURVE",
"505 377 CURVE SMOOTH",
"502 169 OFFCURVE",
"405 45 OFFCURVE",
"245 45 CURVE SMOOTH",
"223 45 OFFCURVE",
"189 48 OFFCURVE",
"169 51 CURVE"
);
}
);
width = 635;
},
{
anchors = (
{
name = bottom;
position = "{289, 0}";
},
{
name = center;
position = "{348, 324}";
},
{
name = top;
position = "{380, 648}";
}
);
layerId = "4E675A61-A531-4354-B628-4B264391FE65";
paths = (
{
closed = 1;
nodes = (
"-13 0 LINE",
"257 0 LINE SMOOTH",
"475 0 OFFCURVE",
"622 165 OFFCURVE",
"622 408 CURVE SMOOTH",
"622 567 OFFCURVE",
"529 648 OFFCURVE",
"346 648 CURVE SMOOTH",
"76 648 LINE",
"68 590 LINE",
"138 576 LINE",
"67 72 LINE",
"-4 58 LINE"
);
},
{
closed = 1;
nodes = (
"273 579 LINE",
"281 579 OFFCURVE",
"288 579 OFFCURVE",
"296 579 CURVE SMOOTH",
"427 579 OFFCURVE",
"473 527 OFFCURVE",
"473 377 CURVE SMOOTH",
"473 179 OFFCURVE",
"397 69 OFFCURVE",
"260 69 CURVE SMOOTH",
"241 69 OFFCURVE",
"221 69 OFFCURVE",
"202 69 CURVE"
);
}
);
width = 647;
}
);
unicode = 0044;
},
{
glyphname = Eth;
lastChange = "2016-07-29 05:40:54 +0000";
layers = (
{
layerId = "8C17F4AC-C384-4A1F-BD5F-821C12AF061A";
paths = (
{
closed = 1;
nodes = (
"15 0 LINE",
"232 0 LINE SMOOTH",
"445 0 OFFCURVE",
"593 167 OFFCURVE",
"593 406 CURVE SMOOTH",
"593 560 OFFCURVE",
"499 648 OFFCURVE",
"334 648 CURVE SMOOTH",
"103 648 LINE",
"99 611 LINE",
"167 597 LINE",
"134 363 LINE",
"48 363 LINE",
"40 311 LINE",
"126 311 LINE",
"90 51 LINE",
"19 37 LINE"
);
},
{
closed = 1;
nodes = (
"205 311 LINE",
"350 311 LINE",
"358 363 LINE",
"213 363 LINE",
"246 597 LINE",
"253 599 OFFCURVE",
"277 601 OFFCURVE",
"306 601 CURVE SMOOTH",
"445 601 OFFCURVE",
"505 533 OFFCURVE",
"505 377 CURVE SMOOTH",
"502 169 OFFCURVE",
"405 45 OFFCURVE",
"245 45 CURVE SMOOTH",
"223 45 OFFCURVE",
"189 48 OFFCURVE",
"169 51 CURVE"
);
}
);
width = 638;
},
{
layerId = "4E675A61-A531-4354-B628-4B264391FE65";
paths = (
{
closed = 1;
nodes = (
"-16 0 LINE",
"254 0 LINE SMOOTH",
"472 0 OFFCURVE",
"619 165 OFFCURVE",
"619 408 CURVE SMOOTH",
"619 569 OFFCURVE",
"524 648 OFFCURVE",
"343 648 CURVE SMOOTH",
"73 648 LINE",
"65 590 LINE",
"135 576 LINE",
"105 366 LINE",
"33 366 LINE",
"23 299 LINE",
"96 299 LINE",
"64 72 LINE",
"-7 58 LINE"
);
},
{
closed = 1;
nodes = (
"231 299 LINE",
"355 299 LINE",
"365 366 LINE",
"240 366 LINE",
"270 579 LINE",
"278 579 OFFCURVE",
"285 579 OFFCURVE",
"293 579 CURVE SMOOTH",
"400 579 OFFCURVE",
"470 554 OFFCURVE",
"470 377 CURVE SMOOTH",
"470 165 OFFCURVE",
"384 69 OFFCURVE",
"257 69 CURVE SMOOTH",
"238 69 OFFCURVE",
"218 69 OFFCURVE",
"199 69 CURVE"
);
}
);
width = 639;
}
);
unicode = 00D0;
},
{
glyphname = Dcaron;
lastChange = "2016-07-29 05:41:34 +0000";
layers = (
{
layerId = "8C17F4AC-C384-4A1F-BD5F-821C12AF061A";
paths = (
{
closed = 1;
nodes = (
"10 0 LINE",
"227 0 LINE SMOOTH",
"440 0 OFFCURVE",
"588 167 OFFCURVE",
"588 406 CURVE SMOOTH",
"588 560 OFFCURVE",
"494 648 OFFCURVE",
"329 648 CURVE SMOOTH",
"98 648 LINE",
"94 611 LINE",
"162 597 LINE",
"85 51 LINE",
"14 37 LINE"
);
},
{
closed = 1;
nodes = (
"241 597 LINE",
"248 599 OFFCURVE",
"272 601 OFFCURVE",
"301 601 CURVE SMOOTH",
"440 601 OFFCURVE",
"500 533 OFFCURVE",
"500 377 CURVE SMOOTH",
"497 169 OFFCURVE",
"400 45 OFFCURVE",
"240 45 CURVE SMOOTH",
"218 45 OFFCURVE",
"184 48 OFFCURVE",
"164 51 CURVE"
);
},
{
closed = 1;
nodes = (
"223 797 LINE",
"281 738 LINE SMOOTH",
"309 710 OFFCURVE",
"335 689 OFFCURVE",
"342 689 CURVE SMOOTH",
"354 689 OFFCURVE",
"379 707 OFFCURVE",
"418 744 CURVE SMOOTH",
"483 805 LINE",
"458 838 LINE",
"356 766 LINE",
"258 835 LINE"
);
}
);
width = 628;
},
{
layerId = "4E675A61-A531-4354-B628-4B264391FE65";
paths = (
{
closed = 1;
nodes = (
"-13 0 LINE",
"257 0 LINE SMOOTH",
"475 0 OFFCURVE",
"622 165 OFFCURVE",
"622 408 CURVE SMOOTH",
"622 567 OFFCURVE",
"529 648 OFFCURVE",
"346 648 CURVE SMOOTH",
"76 648 LINE",
"68 590 LINE",
"138 576 LINE",
"67 72 LINE",
"-4 58 LINE"
);
},
{
closed = 1;
nodes = (
"273 579 LINE",
"281 579 OFFCURVE",
"288 579 OFFCURVE",
"296 579 CURVE SMOOTH",
"427 579 OFFCURVE",
"473 527 OFFCURVE",
"473 377 CURVE SMOOTH",
"473 179 OFFCURVE",
"397 69 OFFCURVE",
"260 69 CURVE SMOOTH",
"241 69 OFFCURVE",
"221 69 OFFCURVE",
"202 69 CURVE"
);
},
{
closed = 1;
nodes = (
"200 791 LINE",
"287 712 LINE SMOOTH",
"306 694 OFFCURVE",
"325 674 OFFCURVE",
"340 674 CURVE SMOOTH",
"352 674 OFFCURVE",
"375 694 OFFCURVE",
"412 724 CURVE SMOOTH",
"502 798 LINE",
"476 837 LINE",
"352 778 LINE",
"239 839 LINE"
);
}
);
width = 647;
}
);
unicode = 010E;
},
{
glyphname = Dcroat;
lastChange = "2016-07-29 05:41:56 +0000";
layers = (
{
layerId = "8C17F4AC-C384-4A1F-BD5F-821C12AF061A";
paths = (
{
closed = 1;
nodes = (
"10 0 LINE",
"227 0 LINE SMOOTH",
"440 0 OFFCURVE",
"588 167 OFFCURVE",
"588 406 CURVE SMOOTH",
"588 560 OFFCURVE",
"494 648 OFFCURVE",
"329 648 CURVE SMOOTH",
"98 648 LINE",
"94 611 LINE",
"162 597 LINE",
"129 363 LINE",
"43 363 LINE",
"35 311 LINE",
"121 311 LINE",
"85 51 LINE",
"14 37 LINE"
);
},
{
closed = 1;
nodes = (
"200 311 LINE",
"345 311 LINE",
"353 363 LINE",
"208 363 LINE",
"241 597 LINE",
"248 599 OFFCURVE",
"272 601 OFFCURVE",
"301 601 CURVE SMOOTH",
"440 601 OFFCURVE",
"500 533 OFFCURVE",
"500 377 CURVE SMOOTH",
"497 169 OFFCURVE",
"400 45 OFFCURVE",
"240 45 CURVE SMOOTH",
"218 45 OFFCURVE",
"184 48 OFFCURVE",
"164 51 CURVE"
);
}
);
width = 628;
},
{
layerId = "4E675A61-A531-4354-B628-4B264391FE65";
paths = (
{
closed = 1;
nodes = (
"-13 0 LINE",
"257 0 LINE SMOOTH",
"475 0 OFFCURVE",
"622 165 OFFCURVE",
"622 408 CURVE SMOOTH",
"622 569 OFFCURVE",
"527 648 OFFCURVE",
"346 648 CURVE SMOOTH",
"76 648 LINE",
"68 590 LINE",
"138 576 LINE",
"108 366 LINE",
"36 366 LINE",
"26 299 LINE",
"99 299 LINE",
"67 72 LINE",
"-4 58 LINE"
);
},
{
closed = 1;
nodes = (
"234 299 LINE",
"358 299 LINE",
"368 366 LINE",
"243 366 LINE",
"273 579 LINE",
"281 579 OFFCURVE",
"288 579 OFFCURVE",
"296 579 CURVE SMOOTH",
"403 579 OFFCURVE",
"473 554 OFFCURVE",
"473 377 CURVE SMOOTH",
"473 165 OFFCURVE",
"387 69 OFFCURVE",
"260 69 CURVE SMOOTH",
"241 69 OFFCURVE",
"221 69 OFFCURVE",
"202 69 CURVE"
);
}
);
width = 647;
}
);
unicode = 0110;
},
{
glyphname = E;
lastChange = "2016-07-29 05:42:06 +0000";
layers = (
{
anchors = (
{
name = bottom;
position = "{222, 0}";
},
{
name = ogonek;
position = "{425, 10}";
},
{
name = top;
position = "{313, 648}";
}
);
layerId = "8C17F4AC-C384-4A1F-BD5F-821C12AF061A";
paths = (
{
closed = 1;
nodes = (
"16 0 LINE",
"425 0 LINE",
"444 152 LINE",
"402 152 LINE",
"364 45 LINE",
"262 45 LINE SMOOTH",
"226 45 OFFCURVE",
"188 47 OFFCURVE",
"170 51 CURVE",
"207 314 LINE",
"339 314 LINE",
"344 255 LINE",
"380 255 LINE",
"401 417 LINE",
"365 417 LINE",
"344 358 LINE",
"213 358 LINE",
"247 597 LINE",
"327 602 LINE",
"428 602 LINE",
"428 492 LINE",
"477 492 LINE",
"498 648 LINE",
"104 648 LINE",
"100 611 LINE",
"168 597 LINE",
"91 51 LINE",
"20 37 LINE"
);
}
);
width = 513;
},
{
anchors = (
{
name = bottom;
position = "{229, 0}";
},
{
name = ogonek;
position = "{455, 10}";
},
{
name = top;
position = "{320, 648}";
}
);
layerId = "4E675A61-A531-4354-B628-4B264391FE65";
paths = (
{
closed = 1;
nodes = (
"-13 0 LINE",
"455 0 LINE",
"477 180 LINE",
"416 180 LINE",
"376 69 LINE",
"282 69 LINE",
"256 71 OFFCURVE",
"229 74 OFFCURVE",
"203 76 CURVE",
"234 301 LINE",
"355 301 LINE",
"355 234 LINE",
"413 234 LINE",
"439 430 LINE",
"379 430 LINE",
"357 366 LINE",
"243 366 LINE",
"273 572 LINE",
"331 579 LINE",
"439 579 LINE",
"439 464 LINE",
"505 464 LINE",
"533 648 LINE",
"76 648 LINE",
"68 590 LINE",
"138 576 LINE",
"67 72 LINE",
"-4 58 LINE"
);
}
);
width = 528;
}
);
unicode = 0045;
},
{
glyphname = Eacute;
lastChange = "2016-07-29 05:44:00 +0000";
layers = (
{
components = (
{
name = E;
}
);
layerId = "8C17F4AC-C384-4A1F-BD5F-821C12AF061A";
paths = (
{
closed = 1;
nodes = (
"379 735 LINE SMOOTH",
"411 748 OFFCURVE",
"429 761 OFFCURVE",
"429 786 CURVE SMOOTH",
"429 805 OFFCURVE",
"416 826 OFFCURVE",
"395 836 CURVE",
"227 716 LINE",
"249 681 LINE"
);
}
);
width = 507;
},
{
components = (
{
name = E;
}
);
layerId = "4E675A61-A531-4354-B628-4B264391FE65";
paths = (
{
closed = 1;
nodes = (
"406 729 LINE SMOOTH",
"445 742 OFFCURVE",
"451 757 OFFCURVE",
"451 775 CURVE SMOOTH",
"451 812 OFFCURVE",
"429 831 OFFCURVE",
"413 840 CURVE",
"225 722 LINE",
"249 674 LINE"
);
}
);
width = 528;
}
);
unicode = 00C9;
},
{
glyphname = Ecaron;
lastChange = "2016-07-29 05:44:05 +0000";
layers = (
{
components = (
{
name = E;
}
);
layerId = "8C17F4AC-C384-4A1F-BD5F-821C12AF061A";
paths = (
{
closed = 1;
nodes = (
"261 740 LINE SMOOTH",
"271 730 OFFCURVE",
"311 691 OFFCURVE",
"322 691 CURVE SMOOTH",
"331 691 OFFCURVE",
"347 698 OFFCURVE",
"398 746 CURVE SMOOTH",
"463 807 LINE",
"438 840 LINE",
"336 768 LINE",
"238 837 LINE",
"203 799 LINE"
);
}
);
width = 507;
},
{
components = (
{
name = E;
}
);
layerId = "4E675A61-A531-4354-B628-4B264391FE65";
paths = (
{
closed = 1;
nodes = (
"271 712 LINE SMOOTH",
"290 694 OFFCURVE",
"309 674 OFFCURVE",
"324 674 CURVE SMOOTH",
"336 674 OFFCURVE",
"359 694 OFFCURVE",
"396 724 CURVE SMOOTH",
"486 798 LINE",
"460 837 LINE",
"336 778 LINE",
"223 839 LINE",
"184 791 LINE"
);
}
);
width = 528;
}
);
unicode = 011A;
},
{
glyphname = Ecircumflex;
lastChange = "2016-07-29 05:43:44 +0000";
layers = (
{
components = (
{
name = E;
}
);
layerId = "8C17F4AC-C384-4A1F-BD5F-821C12AF061A";
paths = (
{
closed = 1;
nodes = (
"217 695 LINE",
"325 756 LINE",
"431 689 LINE",
"464 730 LINE",
"404 785 LINE",
"393 794 OFFCURVE",
"349 833 OFFCURVE",
"339 834 CURVE",
"330 834 OFFCURVE",
"319 823 OFFCURVE",
"263 781 CURVE SMOOTH",
"192 728 LINE"
);
}
);
width = 507;
},
{
components = (
{
name = E;
}
);
layerId = "4E675A61-A531-4354-B628-4B264391FE65";
paths = (
{
closed = 1;
nodes = (
"209 676 LINE",
"333 735 LINE",
"446 674 LINE",
"485 722 LINE",
"398 801 LINE SMOOTH",
"379 818 OFFCURVE",
"360 839 OFFCURVE",
"345 839 CURVE SMOOTH",
"333 839 OFFCURVE",
"310 819 OFFCURVE",
"273 789 CURVE SMOOTH",
"183 715 LINE"
);
}
);
width = 528;
}
);
unicode = 00CA;
},
{
glyphname = Edieresis;
lastChange = "2016-07-29 05:43:41 +0000";
layers = (
{
components = (
{
name = E;
}
);
layerId = "8C17F4AC-C384-4A1F-BD5F-821C12AF061A";
paths = (
{
closed = 1;
nodes = (
"255 693 OFFCURVE",
"275 722 OFFCURVE",
"275 755 CURVE SMOOTH",
"275 788 OFFCURVE",
"255 809 OFFCURVE",
"224 809 CURVE SMOOTH",
"191 809 OFFCURVE",
"169 781 OFFCURVE",
"169 749 CURVE SMOOTH",
"169 716 OFFCURVE",
"189 693 OFFCURVE",
"220 693 CURVE SMOOTH"
);
},
{
closed = 1;
nodes = (
"466 693 OFFCURVE",
"486 722 OFFCURVE",
"486 755 CURVE SMOOTH",
"486 788 OFFCURVE",
"466 809 OFFCURVE",
"435 809 CURVE SMOOTH",
"402 809 OFFCURVE",
"380 781 OFFCURVE",
"380 749 CURVE SMOOTH",
"380 716 OFFCURVE",
"400 693 OFFCURVE",
"431 693 CURVE SMOOTH"
);
}
);
width = 507;
},
{
components = (
{
name = E;
}
);
layerId = "4E675A61-A531-4354-B628-4B264391FE65";
paths = (
{
closed = 1;
nodes = (
"267 687 OFFCURVE",
"292 727 OFFCURVE",
"292 766 CURVE SMOOTH",
"292 806 OFFCURVE",
"265 832 OFFCURVE",
"229 832 CURVE SMOOTH",
"179 832 OFFCURVE",
"155 789 OFFCURVE",
"155 751 CURVE SMOOTH",
"155 716 OFFCURVE",
"180 687 OFFCURVE",
"217 687 CURVE SMOOTH"
);
},
{
closed = 1;
nodes = (
"490 687 OFFCURVE",
"515 727 OFFCURVE",
"515 766 CURVE SMOOTH",
"515 806 OFFCURVE",
"488 832 OFFCURVE",
"452 832 CURVE SMOOTH",
"402 832 OFFCURVE",
"378 789 OFFCURVE",
"378 751 CURVE SMOOTH",
"378 716 OFFCURVE",
"403 687 OFFCURVE",
"440 687 CURVE SMOOTH"
);
}
);
width = 528;
}
);
unicode = 00CB;
},
{
glyphname = Edotaccent;
lastChange = "2016-07-29 05:43:38 +0000";
layers = (
{
components = (
{
name = E;
}
);
layerId = "8C17F4AC-C384-4A1F-BD5F-821C12AF061A";
paths = (
{
closed = 1;
nodes = (
"366 699 OFFCURVE",
"386 732 OFFCURVE",
"386 763 CURVE SMOOTH",
"386 796 OFFCURVE",
"364 817 OFFCURVE",
"334 817 CURVE SMOOTH",
"293 817 OFFCURVE",
"274 782 OFFCURVE",
"274 751 CURVE SMOOTH",
"274 722 OFFCURVE",
"294 699 OFFCURVE",
"325 699 CURVE SMOOTH"
);
}
);
width = 507;
},
{
components = (
{
name = E;
}
);
layerId = "4E675A61-A531-4354-B628-4B264391FE65";
paths = (
{
closed = 1;
nodes = (
"379 681 OFFCURVE",
"405 723 OFFCURVE",
"405 763 CURVE SMOOTH",
"405 805 OFFCURVE",
"377 832 OFFCURVE",
"339 832 CURVE SMOOTH",
"287 832 OFFCURVE",
"262 787 OFFCURVE",
"262 748 CURVE SMOOTH",
"262 711 OFFCURVE",
"288 681 OFFCURVE",
"327 681 CURVE SMOOTH"
);
}
);
width = 528;
}
);
unicode = 0116;
},
{
glyphname = Egrave;
lastChange = "2016-07-29 05:43:34 +0000";
layers = (
{
components = (
{
name = E;
}
);
layerId = "8C17F4AC-C384-4A1F-BD5F-821C12AF061A";
paths = (
{
closed = 1;
nodes = (
"376 681 LINE",
"398 716 LINE",
"230 836 LINE",
"209 826 OFFCURVE",
"196 805 OFFCURVE",
"196 786 CURVE SMOOTH",
"196 761 OFFCURVE",
"214 748 OFFCURVE",
"246 735 CURVE SMOOTH"
);
}
);
width = 507;
},
{
components = (
{
name = E;
}
);
layerId = "4E675A61-A531-4354-B628-4B264391FE65";
paths = (
{
closed = 1;
nodes = (
"411 674 LINE",
"435 722 LINE",
"247 840 LINE",
"228 829 OFFCURVE",
"209 812 OFFCURVE",
"209 774 CURVE SMOOTH",
"209 757 OFFCURVE",
"215 742 OFFCURVE",
"254 729 CURVE SMOOTH"
);
}
);
width = 528;
}
);
unicode = 00C8;
},
{
glyphname = Emacron;
lastChange = "2016-07-29 05:43:32 +0000";
layers = (
{
components = (
{
name = E;
}
);
layerId = "8C17F4AC-C384-4A1F-BD5F-821C12AF061A";
paths = (
{
closed = 1;
nodes = (
"186 719 LINE",
"468 719 LINE",
"476 782 LINE",
"194 782 LINE"
);
}
);
width = 507;
},
{
components = (
{
name = E;
}
);
layerId = "4E675A61-A531-4354-B628-4B264391FE65";
paths = (
{
closed = 1;
nodes = (
"152 716 LINE",
"502 716 LINE",
"512 798 LINE",
"162 798 LINE"
);
}
);
width = 528;
}
);
unicode = 0112;
},
{
glyphname = Eogonek;
lastChange = "2016-07-29 05:43:30 +0000";
layers = (
{
components = (
{
name = E;
}
);
layerId = "8C17F4AC-C384-4A1F-BD5F-821C12AF061A";
paths = (
{
closed = 1;
nodes = (
"363 6 LINE",
"313 -22 OFFCURVE",
"278 -66 OFFCURVE",
"278 -114 CURVE SMOOTH",
"278 -163 OFFCURVE",
"312 -177 OFFCURVE",
"353 -177 CURVE SMOOTH",
"414 -177 OFFCURVE",
"458 -130 OFFCURVE",
"458 -130 CURVE",
"442 -106 LINE",
"442 -106 OFFCURVE",
"412 -126 OFFCURVE",
"385 -126 CURVE SMOOTH",
"357 -126 OFFCURVE",
"344 -110 OFFCURVE",
"344 -86 CURVE SMOOTH",
"344 -41 OFFCURVE",
"380 -10 OFFCURVE",
"403 5 CURVE"
);
}
);
width = 507;
},
{
components = (
{
name = E;
}
);
layerId = "4E675A61-A531-4354-B628-4B264391FE65";
paths = (
{
closed = 1;
nodes = (
"373 7 LINE",
"328 -16 OFFCURVE",
"278 -56 OFFCURVE",
"278 -116 CURVE SMOOTH",
"278 -165 OFFCURVE",
"319 -187 OFFCURVE",
"375 -187 CURVE SMOOTH",
"441 -187 OFFCURVE",
"484 -134 OFFCURVE",
"484 -134 CURVE",
"460 -99 LINE",
"442 -110 OFFCURVE",
"423 -118 OFFCURVE",
"408 -118 CURVE SMOOTH",
"385 -118 OFFCURVE",
"373 -110 OFFCURVE",
"373 -84 CURVE SMOOTH",
"373 -40 OFFCURVE",
"413 -8 OFFCURVE",
"436 7 CURVE"
);
}
);
width = 528;
}
);
unicode = 0118;
},
{
glyphname = F;
lastChange = "2015-02-27 02:04:47 +0000";
layers = (
{
anchors = (
{
name = bottom;
position = "{207, 0}";
},
{
name = top;
position = "{298, 648}";
}
);
layerId = "8C17F4AC-C384-4A1F-BD5F-821C12AF061A";
paths = (
{
closed = 1;
nodes = (
"16 0 LINE",
"263 0 LINE",
"266 39 LINE",
"170 53 LINE",
"204 288 LINE",
"347 288 LINE",
"351 226 LINE",
"386 226 LINE",
"410 398 LINE",
"374 398 LINE",
"354 338 LINE",
"210 338 LINE",
"246 590 LINE",
"331 598 LINE",
"432 598 LINE",
"432 499 LINE",
"482 499 LINE",
"505 648 LINE",
"104 648 LINE",
"100 611 LINE",
"168 597 LINE",
"91 51 LINE",
"20 37 LINE"
);
}
);
width = 484;
},
{
anchors = (
{
name = bottom;
position = "{124, 0}";
},
{
name = top;
position = "{307, 648}";
}
);
layerId = "4E675A61-A531-4354-B628-4B264391FE65";
paths = (
{
closed = 1;
nodes = (
"-13 0 LINE",
"292 0 LINE",
"298 54 LINE",
"201 67 LINE",
"231 278 LINE",
"358 278 LINE",
"358 211 LINE",
"414 211 LINE",
"443 411 LINE",
"385 411 LINE",
"366 347 LINE",
"240 347 LINE",
"272 572 LINE",
"330 579 LINE",
"442 579 LINE",
"442 464 LINE",
"508 464 LINE",
"537 648 LINE",
"76 648 LINE",
"68 590 LINE",
"138 576 LINE",
"67 72 LINE",
"-4 58 LINE"
);
}
);
width = 501;
}
);
unicode = 0046;
},
{
glyphname = G;
lastChange = "2015-02-27 02:05:09 +0000";
layers = (
{
anchors = (
{
name = bottom;
position = "{288, 0}";
},
{
name = top;
position = "{379, 648}";
}
);
layerId = "8C17F4AC-C384-4A1F-BD5F-821C12AF061A";
paths = (
{
closed = 1;
nodes = (
"433 0 LINE",
"466 0 LINE",
"509 321 LINE",
"331 321 LINE",
"326 278 LINE",
"432 260 LINE",
"405 72 LINE",
"374 56 OFFCURVE",
"340 40 OFFCURVE",
"285 40 CURVE SMOOTH",
"192 40 OFFCURVE",
"138 99 OFFCURVE",
"138 262 CURVE SMOOTH",
"138 511 OFFCURVE",
"236 609 OFFCURVE",
"348 609 CURVE SMOOTH",
"418 609 OFFCURVE",
"463 581 OFFCURVE",
"463 581 CURVE",
"469 491 LINE",
"511 491 LINE",
"530 638 LINE",
"530 638 OFFCURVE",
"455 660 OFFCURVE",
"367 660 CURVE SMOOTH",
"162 660 OFFCURVE",
"48 455 OFFCURVE",
"48 241 CURVE SMOOTH",
"48 76 OFFCURVE",
"124 -11 OFFCURVE",
"261 -11 CURVE SMOOTH",
"345 -11 OFFCURVE",
"384 15 OFFCURVE",
"403 27 CURVE",
"411 27 LINE"
);
}
);
width = 565;
},
{
anchors = (
{
name = bottom;
position = "{292, 0}";
},
{
name = top;
position = "{383, 648}";
}
);
layerId = "4E675A61-A531-4354-B628-4B264391FE65";
paths = (
{
closed = 1;
nodes = (
"417 0 LINE",
"506 0 LINE",
"549 334 LINE",
"311 334 LINE",
"306 278 LINE",
"413 261 LINE",
"388 79 LINE",
"388 79 OFFCURVE",
"355 55 OFFCURVE",
"309 55 CURVE SMOOTH",
"203 55 OFFCURVE",
"179 118 OFFCURVE",
"179 241 CURVE SMOOTH",
"179 487 OFFCURVE",
"235 595 OFFCURVE",
"350 595 CURVE SMOOTH",
"403 595 OFFCURVE",
"439 580 OFFCURVE",
"466 564 CURVE",
"472 463 LINE",
"541 463 LINE",
"569 640 LINE",
"538 648 OFFCURVE",
"469 660 OFFCURVE",
"377 660 CURVE SMOOTH",
"145 660 OFFCURVE",
"30 466 OFFCURVE",
"30 240 CURVE SMOOTH",
"30 63 OFFCURVE",
"130 -11 OFFCURVE",
"273 -11 CURVE SMOOTH",
"352 -11 OFFCURVE",
"362 6 OFFCURVE",
"394 23 CURVE",
"401 23 LINE"
);
}
);
width = 594;
}
);
unicode = 0047;
},
{
glyphname = Gbreve;
lastChange = "2015-02-26 23:15:43 +0000";
layers = (
{
layerId = "8C17F4AC-C384-4A1F-BD5F-821C12AF061A";
paths = (
{
closed = 1;
nodes = (
"425 0 LINE",
"458 0 LINE",
"501 321 LINE",
"323 321 LINE",
"318 278 LINE",
"424 260 LINE",
"397 72 LINE",
"366 56 OFFCURVE",
"332 40 OFFCURVE",
"277 40 CURVE SMOOTH",
"184 40 OFFCURVE",
"130 99 OFFCURVE",
"130 262 CURVE SMOOTH",
"130 511 OFFCURVE",
"228 609 OFFCURVE",
"340 609 CURVE SMOOTH",
"410 609 OFFCURVE",
"455 581 OFFCURVE",
"455 581 CURVE",
"461 491 LINE",
"503 491 LINE",
"522 638 LINE",
"522 638 OFFCURVE",
"447 660 OFFCURVE",
"359 660 CURVE SMOOTH",
"154 660 OFFCURVE",
"40 455 OFFCURVE",
"40 241 CURVE SMOOTH",
"40 76 OFFCURVE",
"116 -11 OFFCURVE",
"253 -11 CURVE SMOOTH",
"337 -11 OFFCURVE",
"376 15 OFFCURVE",
"395 27 CURVE",
"403 27 LINE"
);
},
{
closed = 1;
nodes = (
"501 829 LINE",
"501 829 OFFCURVE",
"441 758 OFFCURVE",
"356 758 CURVE SMOOTH",
"293 758 OFFCURVE",
"272 826 OFFCURVE",
"272 826 CURVE",
"251 817 OFFCURVE",
"225 801 OFFCURVE",
"225 785 CURVE SMOOTH",
"225 750 OFFCURVE",
"264 695 OFFCURVE",
"343 695 CURVE SMOOTH",
"456 695 OFFCURVE",
"522 810 OFFCURVE",
"522 810 CURVE"
);
}
);
width = 557;
},
{
layerId = "4E675A61-A531-4354-B628-4B264391FE65";
paths = (
{
closed = 1;
nodes = (
"417 0 LINE",
"506 0 LINE",
"549 334 LINE",
"311 334 LINE",
"306 278 LINE",
"413 261 LINE",
"388 79 LINE",
"388 79 OFFCURVE",
"355 55 OFFCURVE",
"309 55 CURVE SMOOTH",
"203 55 OFFCURVE",
"179 118 OFFCURVE",
"179 241 CURVE SMOOTH",
"179 487 OFFCURVE",
"235 595 OFFCURVE",
"350 595 CURVE SMOOTH",
"403 595 OFFCURVE",
"439 580 OFFCURVE",
"466 564 CURVE",
"472 463 LINE",
"541 463 LINE",
"569 640 LINE",
"538 648 OFFCURVE",
"469 660 OFFCURVE",
"377 660 CURVE SMOOTH",
"145 660 OFFCURVE",
"30 466 OFFCURVE",
"30 240 CURVE SMOOTH",
"30 63 OFFCURVE",
"130 -11 OFFCURVE",
"273 -11 CURVE SMOOTH",
"352 -11 OFFCURVE",
"362 6 OFFCURVE",
"394 23 CURVE",
"401 23 LINE"
);
},
{
closed = 1;
nodes = (
"519 839 LINE",
"480 800 OFFCURVE",
"442 776 OFFCURVE",
"377 776 CURVE SMOOTH",
"341 776 OFFCURVE",
"313 789 OFFCURVE",
"289 836 CURVE",
"250 822 OFFCURVE",
"221 800 OFFCURVE",
"221 779 CURVE SMOOTH",
"221 723 OFFCURVE",
"294 679 OFFCURVE",
"358 679 CURVE SMOOTH",
"477 679 OFFCURVE",
"533 782 OFFCURVE",
"551 814 CURVE"
);
}
);
width = 594;
}
);
unicode = 011E;
},
{
glyphname = Gcommaaccent;
lastChange = "2015-02-26 23:15:43 +0000";
layers = (
{
layerId = "8C17F4AC-C384-4A1F-BD5F-821C12AF061A";
paths = (
{
closed = 1;
nodes = (
"425 0 LINE",
"458 0 LINE",
"501 321 LINE",
"323 321 LINE",
"318 278 LINE",
"424 260 LINE",
"397 72 LINE",
"366 56 OFFCURVE",
"332 40 OFFCURVE",
"277 40 CURVE SMOOTH",
"184 40 OFFCURVE",
"130 99 OFFCURVE",
"130 262 CURVE SMOOTH",
"130 511 OFFCURVE",
"228 609 OFFCURVE",
"340 609 CURVE SMOOTH",
"410 609 OFFCURVE",
"455 581 OFFCURVE",
"455 581 CURVE",
"461 491 LINE",
"503 491 LINE",
"522 638 LINE",
"522 638 OFFCURVE",
"447 660 OFFCURVE",
"359 660 CURVE SMOOTH",
"154 660 OFFCURVE",
"40 455 OFFCURVE",
"40 241 CURVE SMOOTH",
"40 76 OFFCURVE",
"116 -11 OFFCURVE",
"253 -11 CURVE SMOOTH",
"337 -11 OFFCURVE",
"376 15 OFFCURVE",
"395 27 CURVE",
"403 27 LINE"
);
},
{
closed = 1;
nodes = (
"218 -201 LINE",
"234 -194 OFFCURVE",
"309 -151 OFFCURVE",
"309 -91 CURVE SMOOTH",
"309 -49 OFFCURVE",
"285 -33 OFFCURVE",
"258 -33 CURVE SMOOTH",
"232 -33 OFFCURVE",
"219 -48 OFFCURVE",
"214 -56 CURVE",
"224 -65 OFFCURVE",
"238 -82 OFFCURVE",
"238 -113 CURVE SMOOTH",
"238 -151 OFFCURVE",
"201 -184 OFFCURVE",
"201 -184 CURVE"
);
}
);
width = 557;
},
{
layerId = "4E675A61-A531-4354-B628-4B264391FE65";
paths = (
{
closed = 1;
nodes = (
"417 0 LINE",
"506 0 LINE",
"549 334 LINE",
"311 334 LINE",
"306 278 LINE",
"413 261 LINE",
"388 79 LINE",
"388 79 OFFCURVE",
"355 55 OFFCURVE",
"309 55 CURVE SMOOTH",
"203 55 OFFCURVE",
"179 118 OFFCURVE",
"179 241 CURVE SMOOTH",
"179 487 OFFCURVE",
"235 595 OFFCURVE",
"350 595 CURVE SMOOTH",
"403 595 OFFCURVE",
"439 580 OFFCURVE",
"466 564 CURVE",
"472 463 LINE",
"541 463 LINE",
"569 640 LINE",
"538 648 OFFCURVE",
"469 660 OFFCURVE",
"377 660 CURVE SMOOTH",
"145 660 OFFCURVE",
"30 466 OFFCURVE",
"30 240 CURVE SMOOTH",
"30 63 OFFCURVE",
"130 -11 OFFCURVE",
"273 -11 CURVE SMOOTH",
"352 -11 OFFCURVE",
"362 6 OFFCURVE",
"394 23 CURVE",
"401 23 LINE"
);
},
{
closed = 1;
nodes = (
"238 -215 LINE",
"238 -215 OFFCURVE",
"350 -172 OFFCURVE",
"350 -83 CURVE SMOOTH",
"350 -54 OFFCURVE",
"333 -24 OFFCURVE",
"288 -24 CURVE SMOOTH",
"262 -24 OFFCURVE",
"241 -40 OFFCURVE",
"231 -57 CURVE",
"231 -57 OFFCURVE",
"250 -77 OFFCURVE",
"250 -105 CURVE SMOOTH",
"250 -152 OFFCURVE",
"214 -186 OFFCURVE",
"214 -186 CURVE"
);
}
);
width = 594;
}
);
unicode = 0122;
},
{
glyphname = H;
lastChange = "2015-02-27 03:23:08 +0000";
layers = (
{
anchors = (
{
name = bottom;
position = "{295, 0}";
},
{
name = center;
position = "{338, 324}";
},
{
name = top;
position = "{382, 648}";
}
);
layerId = "8C17F4AC-C384-4A1F-BD5F-821C12AF061A";
paths = (
{
closed = 1;
nodes = (
"15 0 LINE",
"234 0 LINE",
"237 37 LINE",
"169 51 LINE",
"205 305 LINE",
"466 305 LINE",
"430 51 LINE",
"359 37 LINE",
"355 0 LINE",
"574 0 LINE",
"577 37 LINE",
"509 51 LINE",
"586 597 LINE",
"657 611 LINE",
"661 648 LINE",
"443 648 LINE",
"439 611 LINE",
"507 597 LINE",
"474 360 LINE",
"213 360 LINE",
"246 597 LINE",
"317 611 LINE",
"321 648 LINE",
"103 648 LINE",
"99 611 LINE",
"167 597 LINE",
"90 51 LINE",
"19 37 LINE"
);
}
);
width = 667;
},
{
anchors = (
{
name = bottom;
position = "{294, 0}";
},
{
name = center;
position = "{338, 324}";
},
{
name = top;
position = "{383, 648}";
}
);
layerId = "4E675A61-A531-4354-B628-4B264391FE65";
paths = (
{
closed = 1;
nodes = (
"-13 0 LINE",
"262 0 LINE",
"270 58 LINE",
"200 72 LINE",
"231 295 LINE",
"436 295 LINE",
"405 72 LINE",
"334 58 LINE",
"326 0 LINE",
"601 0 LINE",
"609 58 LINE",
"539 72 LINE",
"611 576 LINE",
"682 590 LINE",
"690 648 LINE",
"415 648 LINE",
"407 590 LINE",
"477 576 LINE",
"446 362 LINE",
"241 362 LINE",
"271 576 LINE",
"342 590 LINE",
"350 648 LINE",
"75 648 LINE",
"67 590 LINE",
"137 576 LINE",
"66 72 LINE",
"-5 58 LINE"
);
}
);
width = 673;
}
);
unicode = 0048;
},
{
color = 6;
glyphname = Hbar;
lastChange = "2015-03-01 00:29:28 +0000";
layers = (
{
anchors = (
{
name = bottom;
position = "{295, 0}";
},
{
name = center;
position = "{338, 324}";
},
{
name = top;
position = "{382, 648}";
}
);
layerId = "8C17F4AC-C384-4A1F-BD5F-821C12AF061A";
paths = (
{
closed = 1;
nodes = (
"661 648 LINE",
"443 648 LINE",
"439 611 LINE",
"507 597 LINE",
"491 484 LINE",
"230 484 LINE",
"246 597 LINE",
"317 611 LINE",
"321 648 LINE",
"103 648 LINE",
"99 611 LINE",
"167 597 LINE",
"151 484 LINE",
"86 484 LINE",
"78 432 LINE",
"144 432 LINE",
"90 51 LINE",
"19 37 LINE",
"15 0 LINE",
"234 0 LINE",
"237 37 LINE",
"169 51 LINE",
"199 267 LINE",
"460 267 LINE",
"430 51 LINE",
"359 37 LINE",
"355 0 LINE",
"574 0 LINE",
"577 37 LINE",
"509 51 LINE",
"563 432 LINE",
"628 432 LINE",
"636 484 LINE",
"570 484 LINE",
"586 597 LINE",
"657 611 LINE"
);
},
{
closed = 1;
nodes = (
"207 322 LINE",
"223 432 LINE",
"484 432 LINE",
"468 322 LINE"
);
}
);
width = 667;
},
{
anchors = (
{
name = bottom;
position = "{294, 0}";
},
{
name = center;
position = "{338, 324}";
},
{
name = top;
position = "{383, 648}";
}
);
layerId = "4E675A61-A531-4354-B628-4B264391FE65";
paths = (
{
closed = 1;
nodes = (
"690 648 LINE",
"415 648 LINE",
"407 590 LINE",
"477 576 LINE",
"465 494 LINE",
"259 494 LINE",
"271 576 LINE",
"342 590 LINE",
"350 648 LINE",
"75 648 LINE",
"67 590 LINE",
"137 576 LINE",
"125 494 LINE",
"57 494 LINE",
"47 427 LINE",
"116 427 LINE",
"66 72 LINE",
"-5 58 LINE",
"-13 0 LINE",
"262 0 LINE",
"270 58 LINE",
"200 72 LINE",
"227 265 LINE",
"433 265 LINE",
"405 72 LINE",
"334 58 LINE",
"326 0 LINE",
"601 0 LINE",
"609 58 LINE",
"539 72 LINE",
"590 427 LINE",
"659 427 LINE",
"669 494 LINE",
"599 494 LINE",
"611 576 LINE",
"682 590 LINE"
);
},
{
closed = 1;
nodes = (
"237 332 LINE",
"250 427 LINE",
"456 427 LINE",
"442 332 LINE"
);
}
);
width = 673;
}
);
unicode = 0126;
},
{
glyphname = I;
lastChange = "2015-02-27 02:08:08 +0000";
layers = (
{
anchors = (
{
name = bottom;
position = "{129, 0}";
},
{
name = ogonek;
position = "{235, 10}";
},
{
name = top;
position = "{220, 648}";
}
);
layerId = "8C17F4AC-C384-4A1F-BD5F-821C12AF061A";
paths = (
{
closed = 1;
nodes = (
"16 0 LINE",
"235 0 LINE",
"238 37 LINE",
"170 51 LINE",
"247 597 LINE",
"318 611 LINE",
"322 648 LINE",
"104 648 LINE",
"100 611 LINE",
"168 597 LINE",
"91 51 LINE",
"20 37 LINE"
);
}
);
width = 327;
},
{
anchors = (
{
name = bottom;
position = "{125, 0}";
},
{
name = ogonek;
position = "{262, 10}";
},
{
name = top;
position = "{214, 648}";
}
);
layerId = "4E675A61-A531-4354-B628-4B264391FE65";
paths = (
{
closed = 1;
nodes = (
"-13 0 LINE",
"262 0 LINE",
"271 58 LINE",
"201 72 LINE",
"272 576 LINE",
"343 590 LINE",
"351 648 LINE",
"76 648 LINE",
"68 590 LINE",
"138 576 LINE",
"67 72 LINE",
"-4 58 LINE"
);
}
);
width = 334;
}
);
unicode = 0049;
},
{
glyphname = Iacute;
lastChange = "2016-07-29 05:44:24 +0000";
layers = (
{
layerId = "8C17F4AC-C384-4A1F-BD5F-821C12AF061A";
paths = (
{
closed = 1;
nodes = (
"15 0 LINE",
"234 0 LINE",
"237 37 LINE",
"169 51 LINE",
"246 597 LINE",
"317 611 LINE",
"321 648 LINE",
"103 648 LINE",
"99 611 LINE",
"167 597 LINE",
"90 51 LINE",
"19 37 LINE"
);
},
{
closed = 1;
nodes = (
"285 735 LINE SMOOTH",
"317 748 OFFCURVE",
"335 761 OFFCURVE",
"335 786 CURVE SMOOTH",
"335 805 OFFCURVE",
"322 826 OFFCURVE",
"301 836 CURVE",
"133 716 LINE",
"155 681 LINE"
);
}
);
width = 327;
},
{
layerId = "4E675A61-A531-4354-B628-4B264391FE65";
paths = (
{
closed = 1;
nodes = (
"-13 0 LINE",
"262 0 LINE",
"271 58 LINE",
"201 72 LINE",
"272 576 LINE",
"343 590 LINE",
"351 648 LINE",
"76 648 LINE",
"68 590 LINE",
"138 576 LINE",
"67 72 LINE",
"-4 58 LINE"
);
},
{
closed = 1;
nodes = (
"306 729 LINE SMOOTH",
"345 742 OFFCURVE",
"351 757 OFFCURVE",
"351 775 CURVE SMOOTH",
"351 812 OFFCURVE",
"329 831 OFFCURVE",
"313 840 CURVE",
"125 722 LINE",
"149 674 LINE"
);
}
);
width = 334;
}
);
unicode = 00CD;
},
{
glyphname = Icircumflex;
lastChange = "2015-02-26 23:15:43 +0000";
layers = (
{
layerId = "8C17F4AC-C384-4A1F-BD5F-821C12AF061A";
paths = (
{
closed = 1;
nodes = (
"1 0 LINE",
"220 0 LINE",
"223 37 LINE",
"155 51 LINE",
"232 597 LINE",
"303 611 LINE",
"307 648 LINE",
"89 648 LINE",
"85 611 LINE",
"153 597 LINE",
"76 51 LINE",
"5 37 LINE"
);
},
{
closed = 1;
nodes = (
"93 695 LINE",
"201 756 LINE",
"307 689 LINE",
"340 730 LINE",
"280 785 LINE",
"269 794 OFFCURVE",
"225 833 OFFCURVE",
"215 834 CURVE",
"206 834 OFFCURVE",
"195 823 OFFCURVE",
"139 781 CURVE SMOOTH",
"68 728 LINE"
);
}
);
width = 313;
},
{
layerId = "4E675A61-A531-4354-B628-4B264391FE65";
paths = (
{
closed = 1;
nodes = (
"-13 0 LINE",
"262 0 LINE",
"271 58 LINE",
"201 72 LINE",
"272 576 LINE",
"343 590 LINE",
"351 648 LINE",
"76 648 LINE",
"68 590 LINE",
"138 576 LINE",
"67 72 LINE",
"-4 58 LINE"
);
},
{
closed = 1;
nodes = (
"107 676 LINE",
"231 735 LINE",
"344 674 LINE",
"383 722 LINE",
"296 801 LINE SMOOTH",
"277 818 OFFCURVE",
"258 839 OFFCURVE",
"243 839 CURVE SMOOTH",
"231 839 OFFCURVE",
"208 819 OFFCURVE",
"171 789 CURVE SMOOTH",
"81 715 LINE"
);
}
);
width = 334;
}
);
unicode = 00CE;
},
{
glyphname = Idieresis;
lastChange = "2016-07-29 05:44:40 +0000";
layers = (
{
layerId = "8C17F4AC-C384-4A1F-BD5F-821C12AF061A";
paths = (
{
closed = 1;
nodes = (
"15 0 LINE",
"234 0 LINE",
"237 37 LINE",
"169 51 LINE",
"246 597 LINE",
"317 611 LINE",
"321 648 LINE",
"103 648 LINE",
"99 611 LINE",
"167 597 LINE",
"90 51 LINE",
"19 37 LINE"
);
},
{
closed = 1;
nodes = (
"164 693 OFFCURVE",
"184 722 OFFCURVE",
"184 755 CURVE SMOOTH",
"184 788 OFFCURVE",
"164 809 OFFCURVE",
"133 809 CURVE SMOOTH",
"100 809 OFFCURVE",
"78 781 OFFCURVE",
"78 749 CURVE SMOOTH",
"78 716 OFFCURVE",
"98 693 OFFCURVE",
"129 693 CURVE SMOOTH"
);
},
{
closed = 1;
nodes = (
"355 693 OFFCURVE",
"375 722 OFFCURVE",
"375 755 CURVE SMOOTH",
"375 788 OFFCURVE",
"355 809 OFFCURVE",
"324 809 CURVE SMOOTH",
"291 809 OFFCURVE",
"269 781 OFFCURVE",
"269 749 CURVE SMOOTH",
"269 716 OFFCURVE",
"289 693 OFFCURVE",
"320 693 CURVE SMOOTH"
);
}
);
width = 327;
},
{
layerId = "4E675A61-A531-4354-B628-4B264391FE65";
paths = (
{
closed = 1;
nodes = (
"-13 0 LINE",
"262 0 LINE",
"271 58 LINE",
"201 72 LINE",
"272 576 LINE",
"343 590 LINE",
"351 648 LINE",
"76 648 LINE",
"68 590 LINE",
"138 576 LINE",
"67 72 LINE",
"-4 58 LINE"
);
},
{
closed = 1;
nodes = (
"160 687 OFFCURVE",
"185 727 OFFCURVE",
"185 766 CURVE SMOOTH",
"185 806 OFFCURVE",
"158 832 OFFCURVE",
"122 832 CURVE SMOOTH",
"72 832 OFFCURVE",
"48 789 OFFCURVE",
"48 751 CURVE SMOOTH",
"48 716 OFFCURVE",
"73 687 OFFCURVE",
"110 687 CURVE SMOOTH"
);
},
{
closed = 1;
nodes = (
"383 687 OFFCURVE",
"408 727 OFFCURVE",
"408 766 CURVE SMOOTH",
"408 806 OFFCURVE",
"381 832 OFFCURVE",
"345 832 CURVE SMOOTH",
"295 832 OFFCURVE",
"271 789 OFFCURVE",
"271 751 CURVE SMOOTH",
"271 716 OFFCURVE",
"296 687 OFFCURVE",
"333 687 CURVE SMOOTH"
);
}
);
width = 334;
}
);
unicode = 00CF;
},
{
glyphname = Idotaccent;
lastChange = "2015-02-26 23:15:43 +0000";
layers = (
{
layerId = "8C17F4AC-C384-4A1F-BD5F-821C12AF061A";
paths = (
{
closed = 1;
nodes = (
"10 0 LINE",
"229 0 LINE",
"232 37 LINE",
"164 51 LINE",
"241 597 LINE",
"312 611 LINE",
"316 648 LINE",
"98 648 LINE",
"94 611 LINE",
"162 597 LINE",
"85 51 LINE",
"14 37 LINE"
);
},
{
closed = 1;
nodes = (
"262 699 OFFCURVE",
"282 732 OFFCURVE",
"282 763 CURVE SMOOTH",
"282 796 OFFCURVE",
"260 817 OFFCURVE",
"230 817 CURVE SMOOTH",
"189 817 OFFCURVE",
"170 782 OFFCURVE",
"170 751 CURVE SMOOTH",
"170 722 OFFCURVE",
"190 699 OFFCURVE",
"221 699 CURVE SMOOTH"
);
}
);
width = 322;
},
{
layerId = "4E675A61-A531-4354-B628-4B264391FE65";
paths = (
{
closed = 1;
nodes = (
"-13 0 LINE",
"262 0 LINE",
"271 58 LINE",
"201 72 LINE",
"272 576 LINE",
"343 590 LINE",
"351 648 LINE",
"76 648 LINE",
"68 590 LINE",
"138 576 LINE",
"67 72 LINE",
"-4 58 LINE"
);
},
{
closed = 1;
nodes = (
"281 681 OFFCURVE",
"307 723 OFFCURVE",
"307 763 CURVE SMOOTH",
"307 805 OFFCURVE",
"279 832 OFFCURVE",
"241 832 CURVE SMOOTH",
"189 832 OFFCURVE",
"164 787 OFFCURVE",
"164 748 CURVE SMOOTH",
"164 711 OFFCURVE",
"190 681 OFFCURVE",
"229 681 CURVE SMOOTH"
);
}
);
width = 334;
}
);
unicode = 0130;
},
{
glyphname = Igrave;
lastChange = "2015-02-26 23:15:43 +0000";
layers = (
{
layerId = "8C17F4AC-C384-4A1F-BD5F-821C12AF061A";
paths = (
{
closed = 1;
nodes = (
"15 0 LINE",
"234 0 LINE",
"237 37 LINE",
"169 51 LINE",
"246 597 LINE",
"317 611 LINE",
"321 648 LINE",
"103 648 LINE",
"99 611 LINE",
"167 597 LINE",
"90 51 LINE",
"19 37 LINE"
);
},
{
closed = 1;
nodes = (
"287 681 LINE",
"309 716 LINE",
"141 836 LINE",
"120 826 OFFCURVE",
"107 805 OFFCURVE",
"107 786 CURVE SMOOTH",
"107 761 OFFCURVE",
"125 748 OFFCURVE",
"157 735 CURVE SMOOTH"
);
}
);
width = 327;
},
{
layerId = "4E675A61-A531-4354-B628-4B264391FE65";
paths = (
{
closed = 1;
nodes = (
"-13 0 LINE",
"262 0 LINE",
"271 58 LINE",
"201 72 LINE",
"272 576 LINE",
"343 590 LINE",
"351 648 LINE",
"76 648 LINE",
"68 590 LINE",
"138 576 LINE",
"67 72 LINE",
"-4 58 LINE"
);
},
{
closed = 1;
nodes = (
"310 674 LINE",
"334 722 LINE",
"146 840 LINE",
"127 829 OFFCURVE",
"108 812 OFFCURVE",
"108 774 CURVE SMOOTH",
"108 757 OFFCURVE",
"114 742 OFFCURVE",
"153 729 CURVE SMOOTH"
);
}
);
width = 334;
}
);
unicode = 00CC;
},
{
glyphname = Imacron;
lastChange = "2015-02-26 23:15:43 +0000";
layers = (
{
layerId = "8C17F4AC-C384-4A1F-BD5F-821C12AF061A";
paths = (
{
closed = 1;
nodes = (
"101 719 LINE",
"341 719 LINE",
"350 782 LINE",
"110 782 LINE"
);
},
{
closed = 1;
nodes = (
"15 0 LINE",
"234 0 LINE",
"237 37 LINE",
"169 51 LINE",
"246 597 LINE",
"317 611 LINE",
"321 648 LINE",
"103 648 LINE",
"99 611 LINE",
"167 597 LINE",
"90 51 LINE",
"19 37 LINE"
);
}
);
width = 327;
},
{
layerId = "4E675A61-A531-4354-B628-4B264391FE65";
paths = (
{
closed = 1;
nodes = (
"52 716 LINE",
"382 716 LINE",
"392 798 LINE",
"62 798 LINE"
);
},
{
closed = 1;
nodes = (
"-13 0 LINE",
"262 0 LINE",
"271 58 LINE",
"201 72 LINE",
"272 576 LINE",
"343 590 LINE",
"351 648 LINE",
"76 648 LINE",
"68 590 LINE",
"138 576 LINE",
"67 72 LINE",
"-4 58 LINE"
);
}
);
width = 334;
}
);
unicode = 012A;
},
{
glyphname = Iogonek;
lastChange = "2015-02-26 23:15:43 +0000";
layers = (
{
layerId = "8C17F4AC-C384-4A1F-BD5F-821C12AF061A";
paths = (
{
closed = 1;
nodes = (
"15 0 LINE",
"98 0 LINE",
"53 -28 OFFCURVE",
"23 -69 OFFCURVE",
"23 -114 CURVE SMOOTH",
"23 -163 OFFCURVE",
"57 -177 OFFCURVE",
"98 -177 CURVE SMOOTH",
"159 -177 OFFCURVE",
"203 -130 OFFCURVE",
"203 -130 CURVE",
"187 -106 LINE",
"187 -106 OFFCURVE",
"157 -126 OFFCURVE",
"130 -126 CURVE SMOOTH",
"102 -126 OFFCURVE",
"89 -110 OFFCURVE",
"89 -86 CURVE SMOOTH",
"89 -45 OFFCURVE",
"119 -16 OFFCURVE",
"141 0 CURVE",
"234 0 LINE",
"237 37 LINE",
"169 51 LINE",
"246 597 LINE",
"317 611 LINE",
"321 648 LINE",
"103 648 LINE",
"99 611 LINE",
"167 597 LINE",
"90 51 LINE",
"19 37 LINE"
);
}
);
width = 327;
},
{
layerId = "4E675A61-A531-4354-B628-4B264391FE65";
paths = (
{
closed = 1;
nodes = (
"-13 0 LINE",
"114 0 LINE",
"73 -24 OFFCURVE",
"32 -62 OFFCURVE",
"32 -116 CURVE SMOOTH",
"32 -165 OFFCURVE",
"73 -187 OFFCURVE",
"129 -187 CURVE SMOOTH",
"195 -187 OFFCURVE",
"238 -134 OFFCURVE",
"238 -134 CURVE",
"214 -99 LINE",
"196 -110 OFFCURVE",
"177 -118 OFFCURVE",
"162 -118 CURVE SMOOTH",
"139 -118 OFFCURVE",
"127 -110 OFFCURVE",
"127 -84 CURVE SMOOTH",
"127 -46 OFFCURVE",
"157 -17 OFFCURVE",
"180 0 CURVE",
"262 0 LINE",
"271 58 LINE",
"201 72 LINE",
"272 576 LINE",
"343 590 LINE",
"351 648 LINE",
"76 648 LINE",
"68 590 LINE",
"138 576 LINE",
"67 72 LINE",
"-4 58 LINE"
);
}
);
width = 334;
}
);
unicode = 012E;
},
{
glyphname = J;
lastChange = "2015-03-01 01:12:11 +0000";
layers = (
{
anchors = (
{
name = bottom;
position = "{120, 0}";
},
{
name = top;
position = "{304, 648}";
}
);
layerId = "8C17F4AC-C384-4A1F-BD5F-821C12AF061A";
paths = (
{
closed = 1;
nodes = (
"-5 13 LINE",
"-5 13 OFFCURVE",
"43 -14 OFFCURVE",
"117 -14 CURVE SMOOTH",
"209 -14 OFFCURVE",
"258 20 OFFCURVE",
"270 111 CURVE SMOOTH",
"336 597 LINE",
"407 611 LINE",
"411 648 LINE",
"174 648 LINE",
"170 611 LINE",
"257 594 LINE",
"191 99 LINE SMOOTH",
"184 47 OFFCURVE",
"170 37 OFFCURVE",
"125 37 CURVE SMOOTH",
"97 37 OFFCURVE",
"73 46 OFFCURVE",
"73 46 CURVE",
"61 157 LINE",
"12 157 LINE"
);
}
);
width = 398;
},
{
anchors = (
{
name = bottom;
position = "{130, 0}";
},
{
name = top;
position = "{326, 648}";
}
);
layerId = "4E675A61-A531-4354-B628-4B264391FE65";
paths = (
{
closed = 1;
nodes = (
"-21 13 LINE",
"7 -1 OFFCURVE",
"75 -14 OFFCURVE",
"120 -14 CURVE SMOOTH",
"268 -14 OFFCURVE",
"309 35 OFFCURVE",
"322 129 CURVE SMOOTH",
"383 576 LINE",
"454 590 LINE",
"461 648 LINE",
"186 648 LINE",
"179 590 LINE",
"249 576 LINE",
"186 120 LINE SMOOTH",
"178 63 OFFCURVE",
"163 54 OFFCURVE",
"130 54 CURVE SMOOTH",
"103 54 OFFCURVE",
"88 68 OFFCURVE",
"88 68 CURVE",
"74 193 LINE",
"3 193 LINE"
);
}
);
width = 421;
}
);
unicode = 004A;
},
{
glyphname = K;
lastChange = "2015-02-27 02:08:35 +0000";
layers = (
{
anchors = (
{
name = bottom;
position = "{262, 0}";
},
{
name = top;
position = "{332, 648}";
}
);
layerId = "8C17F4AC-C384-4A1F-BD5F-821C12AF061A";
paths = (
{
closed = 1;
nodes = (
"16 0 LINE",
"235 0 LINE",
"238 37 LINE",
"170 51 LINE",
"207 310 LINE",
"248 310 LINE",
"387 29 LINE SMOOTH",
"399 5 OFFCURVE",
"411 0 OFFCURVE",
"438 0 CURVE SMOOTH",
"521 0 LINE",
"524 37 LINE",
"466 52 LINE",
"312 356 LINE",
"518 597 LINE",
"572 611 LINE",
"576 648 LINE",
"398 648 LINE",
"393 611 LINE",
"447 597 LINE",
"447 588 LINE",
"251 357 LINE",
"213 357 LINE",
"247 597 LINE",
"318 611 LINE",
"322 648 LINE",
"104 648 LINE",
"100 611 LINE",
"168 597 LINE",
"91 51 LINE",
"20 37 LINE"
);
}
);
width = 522;
},
{
anchors = (
{
name = bottom;
position = "{262, 0}";
},
{
name = top;
position = "{358, 648}";
}
);
layerId = "4E675A61-A531-4354-B628-4B264391FE65";
paths = (
{
closed = 1;
nodes = (
"-13 0 LINE",
"262 0 LINE",
"271 58 LINE",
"201 72 LINE",
"233 300 LINE",
"241 300 LINE",
"364 46 LINE SMOOTH",
"378 17 OFFCURVE",
"388 0 OFFCURVE",
"418 0 CURVE SMOOTH",
"564 0 LINE",
"573 58 LINE",
"496 74 LINE",
"347 360 LINE",
"546 577 LINE",
"606 590 LINE",
"615 648 LINE",
"400 648 LINE",
"393 590 LINE",
"443 579 LINE",
"443 573 LINE",
"249 360 LINE",
"241 360 LINE",
"272 576 LINE",
"343 590 LINE",
"351 648 LINE",
"76 648 LINE",
"68 590 LINE",
"138 576 LINE",
"67 72 LINE",
"-4 58 LINE"
);
}
);
width = 560;
}
);
unicode = 004B;
},
{
glyphname = Kcommaaccent;
lastChange = "2015-02-26 23:15:43 +0000";
layers = (
{
layerId = "8C17F4AC-C384-4A1F-BD5F-821C12AF061A";
paths = (
{
closed = 1;
nodes = (
"10 0 LINE",
"229 0 LINE",
"232 37 LINE",
"164 51 LINE",
"201 310 LINE",
"234 310 LINE",
"377 29 LINE SMOOTH",
"389 5 OFFCURVE",
"401 0 OFFCURVE",
"428 0 CURVE SMOOTH",
"515 0 LINE",
"518 37 LINE",
"457 53 LINE",
"306 356 LINE",
"512 597 LINE",
"566 611 LINE",
"570 648 LINE",
"392 648 LINE",
"387 611 LINE",
"441 597 LINE",
"441 588 LINE",
"245 357 LINE",
"207 357 LINE",
"241 597 LINE",
"312 611 LINE",
"316 648 LINE",
"98 648 LINE",
"94 611 LINE",
"162 597 LINE",
"85 51 LINE",
"14 37 LINE"
);
},
{
closed = 1;
nodes = (
"208 -201 LINE",
"224 -194 OFFCURVE",
"299 -151 OFFCURVE",
"299 -91 CURVE SMOOTH",
"299 -49 OFFCURVE",
"275 -33 OFFCURVE",
"248 -33 CURVE SMOOTH",
"222 -33 OFFCURVE",
"209 -48 OFFCURVE",
"204 -56 CURVE",
"214 -65 OFFCURVE",
"228 -82 OFFCURVE",
"228 -113 CURVE SMOOTH",
"228 -151 OFFCURVE",
"191 -184 OFFCURVE",
"191 -184 CURVE"
);
}
);
width = 522;
},
{
layerId = "4E675A61-A531-4354-B628-4B264391FE65";
paths = (
{
closed = 1;
nodes = (
"-13 0 LINE",
"262 0 LINE",
"271 58 LINE",
"201 72 LINE",
"233 300 LINE",
"241 300 LINE",
"364 46 LINE SMOOTH",
"378 17 OFFCURVE",
"388 0 OFFCURVE",
"418 0 CURVE SMOOTH",
"564 0 LINE",
"573 58 LINE",
"496 74 LINE",
"347 360 LINE",
"546 577 LINE",
"606 590 LINE",
"615 648 LINE",
"400 648 LINE",
"393 590 LINE",
"443 579 LINE",
"443 573 LINE",
"249 360 LINE",
"241 360 LINE",
"272 576 LINE",
"343 590 LINE",
"351 648 LINE",
"76 648 LINE",
"68 590 LINE",
"138 576 LINE",
"67 72 LINE",
"-4 58 LINE"
);
},
{
closed = 1;
nodes = (
"234 -215 LINE",
"234 -215 OFFCURVE",
"346 -172 OFFCURVE",
"346 -83 CURVE SMOOTH",
"346 -54 OFFCURVE",
"329 -24 OFFCURVE",
"284 -24 CURVE SMOOTH",
"258 -24 OFFCURVE",
"237 -40 OFFCURVE",
"227 -57 CURVE",
"227 -57 OFFCURVE",
"246 -77 OFFCURVE",
"246 -105 CURVE SMOOTH",
"246 -152 OFFCURVE",
"210 -186 OFFCURVE",
"210 -186 CURVE"
);
}
);
width = 560;
}
);
unicode = 0136;
},
{
glyphname = L;
lastChange = "2015-02-27 02:09:04 +0000";
layers = (
{
anchors = (
{
name = bottom;
position = "{210, 0}";
},
{
name = center;
position = "{169, 324}";
},
{
name = top;
position = "{214, 648}";
},
{
name = topright;
position = "{478, 648}";
}
);
layerId = "8C17F4AC-C384-4A1F-BD5F-821C12AF061A";
paths = (
{
closed = 1;
nodes = (
"15 0 LINE",
"394 0 LINE",
"417 152 LINE",
"375 152 LINE",
"335 46 LINE",
"211 46 LINE",
"169 51 LINE",
"246 597 LINE",
"317 611 LINE",
"321 648 LINE",
"103 648 LINE",
"99 611 LINE",
"167 597 LINE",
"90 51 LINE",
"19 37 LINE"
);
}
);
width = 442;
},
{
anchors = (
{
name = bottom;
position = "{192, 0}";
},
{
name = center;
position = "{168, 324}";
},
{
name = top;
position = "{215, 648}";
},
{
name = topright;
position = "{490, 648}";
}
);
layerId = "4E675A61-A531-4354-B628-4B264391FE65";
paths = (
{
closed = 1;
nodes = (
"-13 0 LINE",
"428 0 LINE",
"449 180 LINE",
"387 180 LINE",
"345 65 LINE",
"244 65 LINE",
"201 72 LINE",
"272 576 LINE",
"343 590 LINE",
"351 648 LINE",
"76 648 LINE",
"68 590 LINE",
"138 576 LINE",
"67 72 LINE",
"-4 58 LINE"
);
}
);
width = 454;
}
);
unicode = 004C;
},
{
glyphname = Lacute;
lastChange = "2016-07-29 05:44:49 +0000";
layers = (
{
layerId = "8C17F4AC-C384-4A1F-BD5F-821C12AF061A";
paths = (
{
closed = 1;
nodes = (
"10 0 LINE",
"389 0 LINE",
"412 152 LINE",
"370 152 LINE",
"330 46 LINE",
"206 46 LINE",
"164 51 LINE",
"241 597 LINE",
"312 611 LINE",
"316 648 LINE",
"98 648 LINE",
"94 611 LINE",
"162 597 LINE",
"85 51 LINE",
"14 37 LINE"
);
},
{
closed = 1;
nodes = (
"280 735 LINE SMOOTH",
"312 748 OFFCURVE",
"330 761 OFFCURVE",
"330 786 CURVE SMOOTH",
"330 805 OFFCURVE",
"317 826 OFFCURVE",
"296 836 CURVE",
"128 716 LINE",
"150 681 LINE"
);
}
);
width = 442;
},
{
layerId = "4E675A61-A531-4354-B628-4B264391FE65";
paths = (
{
closed = 1;
nodes = (
"-13 0 LINE",
"428 0 LINE",
"449 180 LINE",
"387 180 LINE",
"345 65 LINE",
"244 65 LINE",
"201 72 LINE",
"272 576 LINE",
"343 590 LINE",
"351 648 LINE",
"76 648 LINE",
"68 590 LINE",
"138 576 LINE",
"67 72 LINE",
"-4 58 LINE"
);
},
{
closed = 1;
nodes = (
"307 729 LINE SMOOTH",
"346 742 OFFCURVE",
"352 757 OFFCURVE",
"352 775 CURVE SMOOTH",
"352 812 OFFCURVE",
"330 831 OFFCURVE",
"314 840 CURVE",
"126 722 LINE",
"150 674 LINE"
);
}
);
width = 454;
}
);
unicode = 0139;
},
{
glyphname = Lcaron;
lastChange = "2015-02-26 23:15:43 +0000";
layers = (
{
layerId = "8C17F4AC-C384-4A1F-BD5F-821C12AF061A";
paths = (
{
closed = 1;
nodes = (
"376 551 LINE",
"392 558 OFFCURVE",
"456 600 OFFCURVE",
"456 673 CURVE SMOOTH",
"456 700 OFFCURVE",
"441 718 OFFCURVE",
"414 718 CURVE SMOOTH",
"388 718 OFFCURVE",
"376 703 OFFCURVE",
"371 695 CURVE",
"381 681 OFFCURVE",
"385 669 OFFCURVE",
"385 651 CURVE SMOOTH",
"385 600 OFFCURVE",
"360 566 OFFCURVE",
"360 566 CURVE"
);
},
{
closed = 1;
nodes = (
"10 0 LINE",
"389 0 LINE",
"412 152 LINE",
"370 152 LINE",
"330 46 LINE",
"206 46 LINE",
"164 51 LINE",
"241 597 LINE",
"312 611 LINE",
"316 648 LINE",
"98 648 LINE",
"94 611 LINE",
"162 597 LINE",
"85 51 LINE",
"14 37 LINE"
);
}
);
width = 442;
},
{
layerId = "4E675A61-A531-4354-B628-4B264391FE65";
paths = (
{
closed = 1;
nodes = (
"421 543 LINE",
"421 543 OFFCURVE",
"522 592 OFFCURVE",
"522 681 CURVE SMOOTH",
"522 710 OFFCURVE",
"507 734 OFFCURVE",
"467 734 CURVE SMOOTH",
"441 734 OFFCURVE",
"426 718 OFFCURVE",
"416 701 CURVE",
"416 701 OFFCURVE",
"427 681 OFFCURVE",
"427 653 CURVE SMOOTH",
"427 606 OFFCURVE",
"397 572 OFFCURVE",
"397 572 CURVE"
);
},
{
closed = 1;
nodes = (
"-13 0 LINE",
"428 0 LINE",
"449 180 LINE",
"387 180 LINE",
"345 65 LINE",
"244 65 LINE",
"201 72 LINE",
"272 576 LINE",
"343 590 LINE",
"351 648 LINE",
"76 648 LINE",
"68 590 LINE",
"138 576 LINE",
"67 72 LINE",
"-4 58 LINE"
);
}
);
width = 454;
}
);
unicode = 013D;
},
{
glyphname = Lcommaaccent;
lastChange = "2015-02-26 23:15:43 +0000";
layers = (
{
layerId = "8C17F4AC-C384-4A1F-BD5F-821C12AF061A";
paths = (
{
closed = 1;
nodes = (
"10 0 LINE",
"389 0 LINE",
"412 152 LINE",
"370 152 LINE",
"330 46 LINE",
"206 46 LINE",
"164 51 LINE",
"241 597 LINE",
"312 611 LINE",
"316 648 LINE",
"98 648 LINE",
"94 611 LINE",
"162 597 LINE",
"85 51 LINE",
"14 37 LINE"
);
},
{
closed = 1;
nodes = (
"168 -201 LINE",
"184 -194 OFFCURVE",
"259 -151 OFFCURVE",
"259 -91 CURVE SMOOTH",
"259 -49 OFFCURVE",
"235 -33 OFFCURVE",
"208 -33 CURVE SMOOTH",
"182 -33 OFFCURVE",
"169 -48 OFFCURVE",
"164 -56 CURVE",
"174 -65 OFFCURVE",
"188 -82 OFFCURVE",
"188 -113 CURVE SMOOTH",
"188 -151 OFFCURVE",
"151 -184 OFFCURVE",
"151 -184 CURVE"
);
}
);
width = 442;
},
{
layerId = "4E675A61-A531-4354-B628-4B264391FE65";
paths = (
{
closed = 1;
nodes = (
"-13 0 LINE",
"428 0 LINE",
"449 180 LINE",
"387 180 LINE",
"345 65 LINE",
"244 65 LINE",
"201 72 LINE",
"272 576 LINE",
"343 590 LINE",
"351 648 LINE",
"76 648 LINE",
"68 590 LINE",
"138 576 LINE",
"67 72 LINE",
"-4 58 LINE"
);
},
{
closed = 1;
nodes = (
"158 -215 LINE",
"158 -215 OFFCURVE",
"270 -172 OFFCURVE",
"270 -83 CURVE SMOOTH",
"270 -54 OFFCURVE",
"253 -24 OFFCURVE",
"208 -24 CURVE SMOOTH",
"182 -24 OFFCURVE",
"161 -40 OFFCURVE",
"151 -57 CURVE",
"151 -57 OFFCURVE",
"170 -77 OFFCURVE",
"170 -105 CURVE SMOOTH",
"170 -152 OFFCURVE",
"134 -186 OFFCURVE",
"134 -186 CURVE"
);
}
);
width = 454;
}
);
unicode = 013B;
},
{
glyphname = Lslash;
lastChange = "2015-02-26 23:15:43 +0000";
layers = (
{
layerId = "8C17F4AC-C384-4A1F-BD5F-821C12AF061A";
paths = (
{
closed = 1;
nodes = (
"10 0 LINE",
"389 0 LINE",
"412 152 LINE",
"370 152 LINE",
"330 46 LINE",
"206 46 LINE",
"164 51 LINE",
"200 304 LINE",
"307 346 LINE",
"307 400 LINE",
"208 360 LINE",
"241 597 LINE",
"312 611 LINE",
"316 648 LINE",
"98 648 LINE",
"94 611 LINE",
"162 597 LINE",
"124 327 LINE",
"25 288 LINE",
"25 237 LINE",
"116 272 LINE",
"85 51 LINE",
"14 37 LINE"
);
}
);
width = 442;
},
{
layerId = "4E675A61-A531-4354-B628-4B264391FE65";
paths = (
{
closed = 1;
nodes = (
"-13 0 LINE",
"428 0 LINE",
"449 180 LINE",
"387 180 LINE",
"345 65 LINE",
"244 65 LINE",
"201 72 LINE",
"234 307 LINE",
"348 352 LINE",
"348 424 LINE",
"244 382 LINE",
"272 576 LINE",
"343 590 LINE",
"351 648 LINE",
"76 648 LINE",
"68 590 LINE",
"138 576 LINE",
"103 325 LINE",
"18 291 LINE",
"18 222 LINE",
"92 251 LINE",
"67 72 LINE",
"-4 58 LINE"
);
}
);
width = 453;
}
);
unicode = 0141;
},
{
glyphname = M;
lastChange = "2016-07-29 05:45:17 +0000";
layers = (
{
anchors = (
{
name = bottom;
position = "{324, 0}";
},
{
name = top;
position = "{429, 648}";
}
);
layerId = "8C17F4AC-C384-4A1F-BD5F-821C12AF061A";
paths = (
{
closed = 1;
nodes = (
"15 0 LINE",
"208 0 LINE",
"211 37 LINE",
"143 51 LINE",
"210 523 LINE",
"213 546 LINE",
"217 546 LINE",
"302 0 LINE",
"346 0 LINE",
"588 546 LINE",
"592 546 LINE",
"587 513 LINE",
"523 51 LINE",
"452 37 LINE",
"448 0 LINE",
"667 0 LINE",
"670 37 LINE",
"602 51 LINE",
"679 597 LINE",
"750 611 LINE",
"754 648 LINE",
"578 648 LINE",
"371 181 LINE",
"351 129 LINE",
"350 126 LINE",
"346 181 LINE",
"279 648 LINE",
"103 648 LINE",
"99 611 LINE",
"167 597 LINE",
"90 51 LINE",
"19 37 LINE"
);
}
);
width = 760;
},
{
anchors = (
{
name = bottom;
position = "{321, 0}";
},
{
name = top;
position = "{431, 648}";
}
);
layerId = "4E675A61-A531-4354-B628-4B264391FE65";
paths = (
{
closed = 1;
nodes = (
"-11 0 LINE",
"220 0 LINE",
"227 58 LINE",
"156 72 LINE",
"207 433 LINE",
"207 460 LINE",
"211 460 LINE",
"284 0 LINE",
"357 0 LINE",
"562 464 LINE",
"567 464 LINE",
"559 432 LINE",
"506 72 LINE",
"435 58 LINE",
"426 0 LINE",
"701 0 LINE",
"710 58 LINE",
"640 72 LINE",
"711 576 LINE",
"782 590 LINE",
"789 648 LINE",
"560 648 LINE",
"373 230 LINE",
"369 208 LINE",
"365 208 LINE",
"365 230 LINE",
"302 648 LINE",
"78 648 LINE",
"70 590 LINE",
"140 576 LINE",
"69 72 LINE",
"-2 58 LINE"
);
}
);
width = 776;
}
);
unicode = 004D;
},
{
glyphname = N;
lastChange = "2016-07-29 05:45:45 +0000";
layers = (
{
anchors = (
{
name = bottom;
position = "{292, 0}";
},
{
name = top;
position = "{383, 648}";
}
);
layerId = "8C17F4AC-C384-4A1F-BD5F-821C12AF061A";
paths = (
{
closed = 1;
nodes = (
"15 0 LINE",
"208 0 LINE",
"211 37 LINE",
"143 51 LINE",
"209 519 LINE",
"214 519 LINE",
"218 508 LINE",
"423 0 LINE",
"500 0 LINE",
"584 597 LINE",
"655 611 LINE",
"659 648 LINE",
"466 648 LINE",
"463 611 LINE",
"531 597 LINE",
"465 131 LINE",
"464 121 LINE",
"459 121 LINE",
"455 132 LINE",
"248 648 LINE",
"103 648 LINE",
"99 611 LINE",
"167 597 LINE",
"90 51 LINE",
"19 37 LINE"
);
}
);
width = 654;
},
{
anchors = (
{
name = bottom;
position = "{286, 0}";
},
{
name = top;
position = "{377, 648}";
}
);
layerId = "4E675A61-A531-4354-B628-4B264391FE65";
paths = (
{
closed = 1;
nodes = (
"-16 0 LINE",
"215 0 LINE",
"222 58 LINE",
"151 72 LINE",
"207 463 LINE",
"211 463 LINE",
"212 448 LINE",
"399 0 LINE",
"513 0 LINE",
"592 576 LINE",
"663 590 LINE",
"670 648 LINE",
"443 648 LINE",
"436 590 LINE",
"506 576 LINE",
"454 213 LINE",
"454 197 LINE",
"450 197 LINE",
"448 213 LINE",
"266 648 LINE",
"73 648 LINE",
"65 590 LINE",
"135 576 LINE",
"64 72 LINE",
"-7 58 LINE"
);
}
);
width = 642;
}
);
unicode = 004E;
},
{
glyphname = Nacute;
lastChange = "2016-07-29 05:47:51 +0000";
layers = (
{
components = (
{
name = N;
}
);
layerId = "8C17F4AC-C384-4A1F-BD5F-821C12AF061A";
paths = (
{
closed = 1;
nodes = (
"469 738 LINE SMOOTH",
"501 751 OFFCURVE",
"519 764 OFFCURVE",
"519 789 CURVE SMOOTH",
"519 808 OFFCURVE",
"506 829 OFFCURVE",
"459 839 CURVE",
"317 719 LINE",
"339 684 LINE"
);
}
);
width = 654;
},
{
components = (
{
name = N;
}
);
layerId = "4E675A61-A531-4354-B628-4B264391FE65";
paths = (
{
closed = 1;
nodes = (
"462 729 LINE SMOOTH",
"501 742 OFFCURVE",
"507 757 OFFCURVE",
"507 775 CURVE SMOOTH",
"507 812 OFFCURVE",
"485 831 OFFCURVE",
"469 840 CURVE",
"281 722 LINE",
"305 674 LINE"
);
}
);
width = 642;
}
);
unicode = 0143;
},
{
glyphname = Ncaron;
lastChange = "2016-07-29 05:47:56 +0000";
layers = (
{
components = (
{
name = N;
}
);
layerId = "8C17F4AC-C384-4A1F-BD5F-821C12AF061A";
paths = (
{
closed = 1;
nodes = (
"328 738 LINE SMOOTH",
"338 728 OFFCURVE",
"378 689 OFFCURVE",
"389 689 CURVE SMOOTH",
"398 689 OFFCURVE",
"414 696 OFFCURVE",
"465 744 CURVE SMOOTH",
"530 805 LINE",
"505 838 LINE",
"403 766 LINE",
"305 835 LINE",
"270 797 LINE"
);
}
);
width = 654;
},
{
components = (
{
name = N;
}
);
layerId = "4E675A61-A531-4354-B628-4B264391FE65";
paths = (
{
closed = 1;
nodes = (
"323 712 LINE SMOOTH",
"342 694 OFFCURVE",
"361 674 OFFCURVE",
"376 674 CURVE SMOOTH",
"388 674 OFFCURVE",
"411 694 OFFCURVE",
"448 724 CURVE SMOOTH",
"538 798 LINE",
"512 837 LINE",
"388 778 LINE",
"275 839 LINE",
"236 791 LINE"
);
}
);
width = 642;
}
);
unicode = 0147;
},
{
glyphname = Ncommaaccent;
lastChange = "2016-07-29 05:47:33 +0000";
layers = (
{
components = (
{
name = N;
}
);
layerId = "8C17F4AC-C384-4A1F-BD5F-821C12AF061A";
paths = (
{
closed = 1;
nodes = (
"250 -201 LINE",
"266 -194 OFFCURVE",
"341 -151 OFFCURVE",
"341 -91 CURVE SMOOTH",
"341 -49 OFFCURVE",
"317 -33 OFFCURVE",
"290 -33 CURVE SMOOTH",
"264 -33 OFFCURVE",
"251 -48 OFFCURVE",
"246 -56 CURVE",
"256 -65 OFFCURVE",
"270 -82 OFFCURVE",
"270 -113 CURVE SMOOTH",
"270 -151 OFFCURVE",
"233 -184 OFFCURVE",
"233 -184 CURVE"
);
}
);
width = 654;
},
{
components = (
{
name = N;
}
);
layerId = "4E675A61-A531-4354-B628-4B264391FE65";
paths = (
{
closed = 1;
nodes = (
"229 -215 LINE",
"229 -215 OFFCURVE",
"341 -172 OFFCURVE",
"341 -83 CURVE SMOOTH",
"341 -54 OFFCURVE",
"324 -24 OFFCURVE",
"279 -24 CURVE SMOOTH",
"253 -24 OFFCURVE",
"232 -40 OFFCURVE",
"222 -57 CURVE",
"222 -57 OFFCURVE",
"241 -77 OFFCURVE",
"241 -105 CURVE SMOOTH",
"241 -152 OFFCURVE",
"205 -186 OFFCURVE",
"205 -186 CURVE"
);
}
);
width = 642;
}
);
unicode = 0145;
},
{
color = 6;
glyphname = Eng;
lastChange = "2016-07-29 05:46:55 +0000";
layers = (
{
anchors = (
{
name = bottom;
position = "{575, 0}";
},
{
name = top;
position = "{383, 648}";
}
);
layerId = "8C17F4AC-C384-4A1F-BD5F-821C12AF061A";
paths = (
{
closed = 1;
nodes = (
"463 611 LINE",
"531 597 LINE",
"468 148 LINE",
"464 121 LINE",
"459 121 LINE",
"448 147 LINE",
"248 648 LINE",
"103 648 LINE",
"99 611 LINE",
"167 597 LINE",
"90 51 LINE",
"19 37 LINE",
"15 0 LINE",
"208 0 LINE",
"211 37 LINE",
"143 51 LINE",
"209 519 LINE",
"214 519 LINE",
"221 502 LINE",
"425 1 LINE",
"416 -50 OFFCURVE",
"394 -74 OFFCURVE",
"389 -79 CURVE SMOOTH",
"383 -85 OFFCURVE",
"359 -91 OFFCURVE",
"331 -91 CURVE SMOOTH",
"262 -91 LINE",
"263 -91 OFFCURVE",
"249 -104 OFFCURVE",
"249 -131 CURVE SMOOTH",
"249 -159 OFFCURVE",
"262 -167 OFFCURVE",
"288 -167 CURVE SMOOTH",
"390 -167 OFFCURVE",
"485 -103 OFFCURVE",
"505 37 CURVE SMOOTH",
"584 597 LINE",
"655 611 LINE",
"659 648 LINE",
"466 648 LINE"
);
}
);
width = 654;
},
{
anchors = (
{
name = bottom;
position = "{572, 0}";
},
{
name = top;
position = "{377, 648}";
}
);
layerId = "4E675A61-A531-4354-B628-4B264391FE65";
paths = (
{
closed = 1;
nodes = (
"436 590 LINE",
"506 576 LINE",
"454 213 LINE",
"454 197 LINE",
"450 197 LINE",
"448 213 LINE",
"266 648 LINE",
"73 648 LINE",
"65 590 LINE",
"135 576 LINE",
"64 72 LINE",
"-7 58 LINE",
"-16 0 LINE",
"215 0 LINE",
"222 58 LINE",
"151 72 LINE",
"207 463 LINE",
"211 463 LINE",
"212 448 LINE",
"390 22 LINE",
"381 -30 OFFCURVE",
"373 -49 OFFCURVE",
"366 -62 CURVE SMOOTH",
"364 -66 OFFCURVE",
"344 -72 OFFCURVE",
"316 -72 CURVE SMOOTH",
"235 -72 LINE",
"234 -73 OFFCURVE",
"220 -91 OFFCURVE",
"220 -118 CURVE SMOOTH",
"220 -156 OFFCURVE",
"241 -172 OFFCURVE",
"292 -172 CURVE SMOOTH",
"415 -172 OFFCURVE",
"504 -74 OFFCURVE",
"519 43 CURVE SMOOTH",
"592 576 LINE",
"663 590 LINE",
"670 648 LINE",
"443 648 LINE"
);
}
);
width = 642;
}
);
unicode = 014A;
},
{
color = 6;
glyphname = Nhookleft;
lastChange = "2016-07-29 05:47:04 +0000";
layers = (
{
anchors = (
{
name = bottom;
position = "{292, 0}";
},
{
name = top;
position = "{383, 648}";
}
);
layerId = "8C17F4AC-C384-4A1F-BD5F-821C12AF061A";
paths = (
{
closed = 1;
nodes = (
"463 611 LINE",
"531 597 LINE",
"467 144 LINE",
"464 121 LINE",
"459 121 LINE",
"449 147 LINE",
"248 648 LINE",
"103 648 LINE",
"99 611 LINE",
"167 597 LINE",
"83 4 LINE SMOOTH",
"77 -38 OFFCURVE",
"66 -63 OFFCURVE",
"47 -76 CURVE SMOOTH",
"36 -83 OFFCURVE",
"17 -91 OFFCURVE",
"-11 -91 CURVE SMOOTH",
"-80 -91 LINE",
"-78 -91 OFFCURVE",
"-93 -102 OFFCURVE",
"-93 -132 CURVE SMOOTH",
"-93 -161 OFFCURVE",
"-78 -167 OFFCURVE",
"-51 -167 CURVE SMOOTH",
"36 -167 OFFCURVE",
"124 -103 OFFCURVE",
"143 37 CURVE SMOOTH",
"209 519 LINE",
"214 519 LINE",
"221 502 LINE",
"423 0 LINE",
"500 0 LINE",
"584 597 LINE",
"655 611 LINE",
"659 648 LINE",
"466 648 LINE"
);
}
);
width = 654;
},
{
anchors = (
{
name = bottom;
position = "{286, 0}";
},
{
name = top;
position = "{377, 648}";
}
);
layerId = "4E675A61-A531-4354-B628-4B264391FE65";
paths = (
{
closed = 1;
nodes = (
"436 590 LINE",
"506 576 LINE",
"454 213 LINE",
"454 197 LINE",
"450 197 LINE",
"448 213 LINE",
"266 648 LINE",
"73 648 LINE",
"65 590 LINE",
"135 576 LINE",
"58 40 LINE SMOOTH",
"48 -25 OFFCURVE",
"39 -48 OFFCURVE",
"31 -62 CURVE",
"29 -66 OFFCURVE",
"9 -72 OFFCURVE",
"-19 -72 CURVE SMOOTH",
"-100 -72 LINE",
"-101 -73 OFFCURVE",
"-115 -91 OFFCURVE",
"-115 -118 CURVE SMOOTH",
"-115 -156 OFFCURVE",
"-94 -172 OFFCURVE",
"-43 -172 CURVE SMOOTH",
"60 -172 OFFCURVE",
"131 -75 OFFCURVE",
"147 41 CURVE SMOOTH",
"207 463 LINE",
"211 463 LINE",
"212 448 LINE",
"399 0 LINE",
"513 0 LINE",
"592 576 LINE",
"663 590 LINE",
"670 648 LINE",
"443 648 LINE"
);
}
);
width = 642;
}
);
rightMetricsKey = "=N";
unicode = 019D;
},
{
glyphname = Ntilde;
lastChange = "2016-07-29 05:47:40 +0000";
layers = (
{
components = (
{
name = N;
}
);
layerId = "8C17F4AC-C384-4A1F-BD5F-821C12AF061A";
paths = (
{
closed = 1;
nodes = (
"262 710 LINE",
"342 747 LINE",
"408 724 LINE SMOOTH",
"432 715 OFFCURVE",
"464 704 OFFCURVE",
"484 704 CURVE SMOOTH",
"506 704 OFFCURVE",
"523 718 OFFCURVE",
"539 738 CURVE SMOOTH",
"576 786 LINE",
"553 812 LINE",
"473 775 LINE",
"407 798 LINE SMOOTH",
"382 807 OFFCURVE",
"350 818 OFFCURVE",
"331 818 CURVE SMOOTH",
"309 818 OFFCURVE",
"292 804 OFFCURVE",
"276 784 CURVE SMOOTH",
"239 736 LINE"
);
}
);
width = 654;
},
{
components = (
{
name = N;
}
);
layerId = "4E675A61-A531-4354-B628-4B264391FE65";
paths = (
{
closed = 1;
nodes = (
"226 694 LINE",
"308 732 LINE",
"413 696 LINE SMOOTH",
"436 688 OFFCURVE",
"455 682 OFFCURVE",
"480 682 CURVE SMOOTH",
"500 682 OFFCURVE",
"523 698 OFFCURVE",
"547 725 CURVE SMOOTH",
"597 781 LINE",
"568 814 LINE",
"486 776 LINE",
"381 811 LINE SMOOTH",
"358 819 OFFCURVE",
"339 825 OFFCURVE",
"314 825 CURVE SMOOTH",
"294 825 OFFCURVE",
"269 810 OFFCURVE",
"247 782 CURVE",
"197 727 LINE"
);
}
);
width = 642;
}
);
unicode = 00D1;
},
{
glyphname = O;
lastChange = "2015-03-02 04:33:06 +0000";
layers = (
{
anchors = (
{
name = bottom;
position = "{290, 0}";
},
{
name = center;
position = "{324, 324}";
},
{
name = ogonek;
position = "{401, 10}";
},
{
name = top;
position = "{369, 648}";
},
{
name = topright;
position = "{686, 648}";
}
);
layerId = "8C17F4AC-C384-4A1F-BD5F-821C12AF061A";
paths = (
{
closed = 1;
nodes = (
"503 -11 OFFCURVE",
"606 192 OFFCURVE",
"606 402 CURVE SMOOTH",
"606 565 OFFCURVE",
"524 660 OFFCURVE",
"367 660 CURVE SMOOTH",
"160 660 OFFCURVE",
"44 463 OFFCURVE",
"44 248 CURVE SMOOTH",
"44 87 OFFCURVE",
"126 -11 OFFCURVE",
"275 -11 CURVE SMOOTH"
);
},
{
closed = 1;
nodes = (
"173 40 OFFCURVE",
"135 112 OFFCURVE",
"135 273 CURVE SMOOTH",
"135 472 OFFCURVE",
"197 609 OFFCURVE",
"346 609 CURVE SMOOTH",
"470 609 OFFCURVE",
"515 545 OFFCURVE",
"515 392 CURVE SMOOTH",
"515 185 OFFCURVE",
"461 40 OFFCURVE",
"303 40 CURVE SMOOTH"
);
}
);
width = 650;
},
{
anchors = (
{
name = bottom;
position = "{293, 0}";
},
{
name = center;
position = "{327, 324}";
},
{
name = ogonek;
position = "{425, 10}";
},
{
name = top;
position = "{362, 648}";
},
{
name = topright;
position = "{691, 648}";
}
);
layerId = "4E675A61-A531-4354-B628-4B264391FE65";
paths = (
{
closed = 1;
nodes = (
"507 -11 OFFCURVE",
"625 154 OFFCURVE",
"625 402 CURVE SMOOTH",
"625 529 OFFCURVE",
"556 660 OFFCURVE",
"362 660 CURVE SMOOTH",
"182 660 OFFCURVE",
"30 520 OFFCURVE",
"30 247 CURVE SMOOTH",
"30 73 OFFCURVE",
"146 -11 OFFCURVE",
"283 -11 CURVE SMOOTH"
);
},
{
closed = 1;
nodes = (
"234 55 OFFCURVE",
"179 93 OFFCURVE",
"179 239 CURVE SMOOTH",
"179 495 OFFCURVE",
"228 595 OFFCURVE",
"351 595 CURVE SMOOTH",
"420 595 OFFCURVE",
"476 557 OFFCURVE",
"476 411 CURVE SMOOTH",
"476 155 OFFCURVE",
"426 55 OFFCURVE",
"303 55 CURVE SMOOTH"
);
}
);
width = 655;
}
);
unicode = 004F;
},
{
glyphname = Oacute;
lastChange = "2016-07-29 05:48:11 +0000";
layers = (
{
layerId = "8C17F4AC-C384-4A1F-BD5F-821C12AF061A";
paths = (
{
closed = 1;
nodes = (
"503 -11 OFFCURVE",
"606 192 OFFCURVE",
"606 402 CURVE SMOOTH",
"606 565 OFFCURVE",
"524 660 OFFCURVE",
"367 660 CURVE SMOOTH",
"160 660 OFFCURVE",
"44 463 OFFCURVE",
"44 248 CURVE SMOOTH",
"44 87 OFFCURVE",
"126 -11 OFFCURVE",
"275 -11 CURVE SMOOTH"
);
},
{
closed = 1;
nodes = (
"173 40 OFFCURVE",
"135 112 OFFCURVE",
"135 273 CURVE SMOOTH",
"135 472 OFFCURVE",
"197 609 OFFCURVE",
"346 609 CURVE SMOOTH",
"470 609 OFFCURVE",
"515 545 OFFCURVE",
"515 392 CURVE SMOOTH",
"515 185 OFFCURVE",
"461 40 OFFCURVE",
"303 40 CURVE SMOOTH"
);
},
{
closed = 1;
nodes = (
"315 699 LINE",
"445 753 LINE SMOOTH",
"477 766 OFFCURVE",
"495 779 OFFCURVE",
"495 804 CURVE SMOOTH",
"495 823 OFFCURVE",
"482 844 OFFCURVE",
"461 854 CURVE",
"293 734 LINE"
);
}
);
width = 650;
},
{
layerId = "4E675A61-A531-4354-B628-4B264391FE65";
paths = (
{
closed = 1;
nodes = (
"507 -11 OFFCURVE",
"625 154 OFFCURVE",
"625 402 CURVE SMOOTH",
"625 529 OFFCURVE",
"556 660 OFFCURVE",
"362 660 CURVE SMOOTH",
"182 660 OFFCURVE",
"30 520 OFFCURVE",
"30 247 CURVE SMOOTH",
"30 73 OFFCURVE",
"146 -11 OFFCURVE",
"283 -11 CURVE SMOOTH"
);
},
{
closed = 1;
nodes = (
"234 55 OFFCURVE",
"179 93 OFFCURVE",
"179 239 CURVE SMOOTH",
"179 495 OFFCURVE",
"228 595 OFFCURVE",
"351 595 CURVE SMOOTH",
"420 595 OFFCURVE",
"476 557 OFFCURVE",
"476 411 CURVE SMOOTH",
"476 155 OFFCURVE",
"426 55 OFFCURVE",
"303 55 CURVE SMOOTH"
);
},
{
closed = 1;
nodes = (
"292 674 LINE",
"449 729 LINE SMOOTH",
"488 742 OFFCURVE",
"494 757 OFFCURVE",
"494 775 CURVE SMOOTH",
"494 812 OFFCURVE",
"472 831 OFFCURVE",
"456 840 CURVE",
"268 722 LINE"
);
}
);
width = 655;
}
);
unicode = 00D3;
},
{
glyphname = Ocircumflex;
lastChange = "2015-02-26 23:15:43 +0000";
layers = (
{
layerId = "8C17F4AC-C384-4A1F-BD5F-821C12AF061A";
paths = (
{
closed = 1;
nodes = (
"503 -11 OFFCURVE",
"606 192 OFFCURVE",
"606 402 CURVE SMOOTH",
"606 565 OFFCURVE",
"524 660 OFFCURVE",
"367 660 CURVE SMOOTH",
"160 660 OFFCURVE",
"44 463 OFFCURVE",
"44 248 CURVE SMOOTH",
"44 87 OFFCURVE",
"126 -11 OFFCURVE",
"275 -11 CURVE SMOOTH"
);
},
{
closed = 1;
nodes = (
"173 40 OFFCURVE",
"135 112 OFFCURVE",
"135 273 CURVE SMOOTH",
"135 472 OFFCURVE",
"197 609 OFFCURVE",
"346 609 CURVE SMOOTH",
"470 609 OFFCURVE",
"515 545 OFFCURVE",
"515 392 CURVE SMOOTH",
"515 185 OFFCURVE",
"461 40 OFFCURVE",
"303 40 CURVE SMOOTH"
);
},
{
closed = 1;
nodes = (
"283 713 LINE",
"391 774 LINE",
"497 707 LINE",
"530 748 LINE",
"470 803 LINE",
"459 812 OFFCURVE",
"415 851 OFFCURVE",
"405 852 CURVE",
"396 852 OFFCURVE",
"384 843 OFFCURVE",
"329 799 CURVE SMOOTH",
"258 746 LINE"
);
}
);
width = 650;
},
{
layerId = "4E675A61-A531-4354-B628-4B264391FE65";
paths = (
{
closed = 1;
nodes = (
"507 -11 OFFCURVE",
"625 154 OFFCURVE",
"625 402 CURVE SMOOTH",
"625 529 OFFCURVE",
"556 660 OFFCURVE",
"362 660 CURVE SMOOTH",
"182 660 OFFCURVE",
"30 520 OFFCURVE",
"30 247 CURVE SMOOTH",
"30 73 OFFCURVE",
"146 -11 OFFCURVE",
"283 -11 CURVE SMOOTH"
);
},
{
closed = 1;
nodes = (
"234 55 OFFCURVE",
"179 93 OFFCURVE",
"179 239 CURVE SMOOTH",
"179 495 OFFCURVE",
"228 595 OFFCURVE",
"351 595 CURVE SMOOTH",
"420 595 OFFCURVE",
"476 557 OFFCURVE",
"476 411 CURVE SMOOTH",
"476 155 OFFCURVE",
"426 55 OFFCURVE",
"303 55 CURVE SMOOTH"
);
},
{
closed = 1;
nodes = (
"248 676 LINE",
"372 735 LINE",
"485 674 LINE",
"524 722 LINE",
"437 801 LINE SMOOTH",
"418 818 OFFCURVE",
"399 839 OFFCURVE",
"384 839 CURVE SMOOTH",
"372 839 OFFCURVE",
"349 819 OFFCURVE",
"312 789 CURVE SMOOTH",
"222 715 LINE"
);
}
);
width = 655;
}
);
unicode = 00D4;
},
{
glyphname = Odieresis;
lastChange = "2015-02-26 23:15:43 +0000";
layers = (
{
layerId = "8C17F4AC-C384-4A1F-BD5F-821C12AF061A";
paths = (
{
closed = 1;
nodes = (
"503 -11 OFFCURVE",
"606 192 OFFCURVE",
"606 402 CURVE SMOOTH",
"606 565 OFFCURVE",
"524 660 OFFCURVE",
"367 660 CURVE SMOOTH",
"160 660 OFFCURVE",
"44 463 OFFCURVE",
"44 248 CURVE SMOOTH",
"44 87 OFFCURVE",
"126 -11 OFFCURVE",
"275 -11 CURVE SMOOTH"
);
},
{
closed = 1;
nodes = (
"173 40 OFFCURVE",
"135 112 OFFCURVE",
"135 273 CURVE SMOOTH",
"135 472 OFFCURVE",
"197 609 OFFCURVE",
"346 609 CURVE SMOOTH",
"470 609 OFFCURVE",
"515 545 OFFCURVE",
"515 392 CURVE SMOOTH",
"515 185 OFFCURVE",
"461 40 OFFCURVE",
"303 40 CURVE SMOOTH"
);
},
{
closed = 1;
nodes = (
"327 711 OFFCURVE",
"347 740 OFFCURVE",
"347 773 CURVE SMOOTH",
"347 806 OFFCURVE",
"327 827 OFFCURVE",
"296 827 CURVE SMOOTH",
"263 827 OFFCURVE",
"241 799 OFFCURVE",
"241 767 CURVE SMOOTH",
"241 734 OFFCURVE",
"261 711 OFFCURVE",
"292 711 CURVE SMOOTH"
);
},
{
closed = 1;
nodes = (
"538 711 OFFCURVE",
"558 740 OFFCURVE",
"558 773 CURVE SMOOTH",
"558 806 OFFCURVE",
"538 827 OFFCURVE",
"507 827 CURVE SMOOTH",
"474 827 OFFCURVE",
"452 799 OFFCURVE",
"452 767 CURVE SMOOTH",
"452 734 OFFCURVE",
"472 711 OFFCURVE",
"503 711 CURVE SMOOTH"
);
}
);
width = 650;
},
{
layerId = "4E675A61-A531-4354-B628-4B264391FE65";
paths = (
{
closed = 1;
nodes = (
"507 -11 OFFCURVE",
"625 154 OFFCURVE",
"625 402 CURVE SMOOTH",
"625 529 OFFCURVE",
"556 660 OFFCURVE",
"362 660 CURVE SMOOTH",
"182 660 OFFCURVE",
"30 520 OFFCURVE",
"30 247 CURVE SMOOTH",
"30 73 OFFCURVE",
"146 -11 OFFCURVE",
"283 -11 CURVE SMOOTH"
);
},
{
closed = 1;
nodes = (
"234 55 OFFCURVE",
"179 93 OFFCURVE",
"179 239 CURVE SMOOTH",
"179 495 OFFCURVE",
"228 595 OFFCURVE",
"351 595 CURVE SMOOTH",
"420 595 OFFCURVE",
"476 557 OFFCURVE",
"476 411 CURVE SMOOTH",
"476 155 OFFCURVE",
"426 55 OFFCURVE",
"303 55 CURVE SMOOTH"
);
},
{
closed = 1;
nodes = (
"305 687 OFFCURVE",
"330 727 OFFCURVE",
"330 766 CURVE SMOOTH",
"330 806 OFFCURVE",
"303 832 OFFCURVE",
"267 832 CURVE SMOOTH",
"217 832 OFFCURVE",
"193 789 OFFCURVE",
"193 751 CURVE SMOOTH",
"193 716 OFFCURVE",
"218 687 OFFCURVE",
"255 687 CURVE SMOOTH"
);
},
{
closed = 1;
nodes = (
"528 687 OFFCURVE",
"553 727 OFFCURVE",
"553 766 CURVE SMOOTH",
"553 806 OFFCURVE",
"526 832 OFFCURVE",
"490 832 CURVE SMOOTH",
"440 832 OFFCURVE",
"416 789 OFFCURVE",
"416 751 CURVE SMOOTH",
"416 716 OFFCURVE",
"441 687 OFFCURVE",
"478 687 CURVE SMOOTH"
);
}
);
width = 655;
}
);
unicode = 00D6;
},
{
glyphname = Ograve;
lastChange = "2015-02-26 23:15:43 +0000";
layers = (
{
layerId = "8C17F4AC-C384-4A1F-BD5F-821C12AF061A";
paths = (
{
closed = 1;
nodes = (
"503 -11 OFFCURVE",
"606 192 OFFCURVE",
"606 402 CURVE SMOOTH",
"606 565 OFFCURVE",
"524 660 OFFCURVE",
"367 660 CURVE SMOOTH",
"160 660 OFFCURVE",
"44 463 OFFCURVE",
"44 248 CURVE SMOOTH",
"44 87 OFFCURVE",
"126 -11 OFFCURVE",
"275 -11 CURVE SMOOTH"
);
},
{
closed = 1;
nodes = (
"173 40 OFFCURVE",
"135 112 OFFCURVE",
"135 273 CURVE SMOOTH",
"135 472 OFFCURVE",
"197 609 OFFCURVE",
"346 609 CURVE SMOOTH",
"470 609 OFFCURVE",
"515 545 OFFCURVE",
"515 392 CURVE SMOOTH",
"515 185 OFFCURVE",
"461 40 OFFCURVE",
"303 40 CURVE SMOOTH"
);
},
{
closed = 1;
nodes = (
"452 699 LINE",
"474 734 LINE",
"306 854 LINE",
"285 844 OFFCURVE",
"272 823 OFFCURVE",
"272 804 CURVE SMOOTH",
"272 779 OFFCURVE",
"290 766 OFFCURVE",
"322 753 CURVE SMOOTH"
);
}
);
width = 650;
},
{
layerId = "4E675A61-A531-4354-B628-4B264391FE65";
paths = (
{
closed = 1;
nodes = (
"507 -11 OFFCURVE",
"625 154 OFFCURVE",
"625 402 CURVE SMOOTH",
"625 529 OFFCURVE",
"556 660 OFFCURVE",
"362 660 CURVE SMOOTH",
"182 660 OFFCURVE",
"30 520 OFFCURVE",
"30 247 CURVE SMOOTH",
"30 73 OFFCURVE",
"146 -11 OFFCURVE",
"283 -11 CURVE SMOOTH"
);
},
{
closed = 1;
nodes = (
"234 55 OFFCURVE",
"179 93 OFFCURVE",
"179 239 CURVE SMOOTH",
"179 495 OFFCURVE",
"228 595 OFFCURVE",
"351 595 CURVE SMOOTH",
"420 595 OFFCURVE",
"476 557 OFFCURVE",
"476 411 CURVE SMOOTH",
"476 155 OFFCURVE",
"426 55 OFFCURVE",
"303 55 CURVE SMOOTH"
);
},
{
closed = 1;
nodes = (
"453 674 LINE",
"477 722 LINE",
"289 840 LINE",
"270 829 OFFCURVE",
"251 812 OFFCURVE",
"251 774 CURVE SMOOTH",
"251 757 OFFCURVE",
"257 742 OFFCURVE",
"296 729 CURVE SMOOTH"
);
}
);
width = 655;
}
);
unicode = 00D2;
},
{
glyphname = Ohungarumlaut;
lastChange = "2016-07-28 05:34:45 +0000";
layers = (
{
layerId = "8C17F4AC-C384-4A1F-BD5F-821C12AF061A";
paths = (
{
closed = 1;
nodes = (
"503 -11 OFFCURVE",
"606 192 OFFCURVE",
"606 402 CURVE SMOOTH",
"606 565 OFFCURVE",
"524 660 OFFCURVE",
"367 660 CURVE SMOOTH",
"160 660 OFFCURVE",
"44 463 OFFCURVE",
"44 248 CURVE SMOOTH",
"44 87 OFFCURVE",
"126 -11 OFFCURVE",
"275 -11 CURVE SMOOTH"
);
},
{
closed = 1;
nodes = (
"173 40 OFFCURVE",
"135 112 OFFCURVE",
"135 273 CURVE SMOOTH",
"135 472 OFFCURVE",
"197 609 OFFCURVE",
"346 609 CURVE SMOOTH",
"470 609 OFFCURVE",
"515 545 OFFCURVE",
"515 392 CURVE SMOOTH",
"515 185 OFFCURVE",
"461 40 OFFCURVE",
"303 40 CURVE SMOOTH"
);
},
{
closed = 1;
nodes = (
"337 729 LINE SMOOTH",
"353 742 OFFCURVE",
"385 772 OFFCURVE",
"386 792 CURVE",
"386 809 OFFCURVE",
"376 829 OFFCURVE",
"337 836 CURVE",
"244 701 LINE",
"272 677 LINE"
);
},
{
closed = 1;
nodes = (
"490 729 LINE SMOOTH",
"506 742 OFFCURVE",
"538 772 OFFCURVE",
"539 792 CURVE",
"539 809 OFFCURVE",
"528 829 OFFCURVE",
"490 836 CURVE",
"397 701 LINE",
"425 677 LINE"
);
}
);
width = 650;
},
{
layerId = "4E675A61-A531-4354-B628-4B264391FE65";
paths = (
{
closed = 1;
nodes = (
"507 -11 OFFCURVE",
"625 154 OFFCURVE",
"625 402 CURVE SMOOTH",
"625 529 OFFCURVE",
"556 660 OFFCURVE",
"362 660 CURVE SMOOTH",
"182 660 OFFCURVE",
"30 520 OFFCURVE",
"30 247 CURVE SMOOTH",
"30 73 OFFCURVE",
"146 -11 OFFCURVE",
"283 -11 CURVE SMOOTH"
);
},
{
closed = 1;
nodes = (
"234 55 OFFCURVE",
"179 93 OFFCURVE",
"179 239 CURVE SMOOTH",
"179 495 OFFCURVE",
"228 595 OFFCURVE",
"351 595 CURVE SMOOTH",
"420 595 OFFCURVE",
"476 557 OFFCURVE",
"476 411 CURVE SMOOTH",
"476 155 OFFCURVE",
"426 55 OFFCURVE",
"303 55 CURVE SMOOTH"
);
},
{
closed = 1;
nodes = (
"334 727 LINE SMOOTH",
"362 745 OFFCURVE",
"379 764 OFFCURVE",
"379 790 CURVE SMOOTH",
"379 818 OFFCURVE",
"343 846 OFFCURVE",
"309 846 CURVE",
"196 696 LINE",
"234 662 LINE"
);
},
{
closed = 1;
nodes = (
"523 727 LINE SMOOTH",
"551 745 OFFCURVE",
"568 764 OFFCURVE",
"568 790 CURVE SMOOTH",
"568 818 OFFCURVE",
"532 846 OFFCURVE",
"498 846 CURVE",
"385 696 LINE",
"423 662 LINE"
);
}
);
width = 655;
}
);
unicode = 0150;
},
{
glyphname = Omacron;
lastChange = "2015-02-26 23:15:43 +0000";
layers = (
{
layerId = "8C17F4AC-C384-4A1F-BD5F-821C12AF061A";
paths = (
{
closed = 1;
nodes = (
"503 -11 OFFCURVE",
"606 192 OFFCURVE",
"606 402 CURVE SMOOTH",
"606 565 OFFCURVE",
"524 660 OFFCURVE",
"367 660 CURVE SMOOTH",
"160 660 OFFCURVE",
"44 463 OFFCURVE",
"44 248 CURVE SMOOTH",
"44 87 OFFCURVE",
"126 -11 OFFCURVE",
"275 -11 CURVE SMOOTH"
);
},
{
closed = 1;
nodes = (
"173 40 OFFCURVE",
"135 112 OFFCURVE",
"135 273 CURVE SMOOTH",
"135 472 OFFCURVE",
"197 609 OFFCURVE",
"346 609 CURVE SMOOTH",
"470 609 OFFCURVE",
"515 545 OFFCURVE",
"515 392 CURVE SMOOTH",
"515 185 OFFCURVE",
"461 40 OFFCURVE",
"303 40 CURVE SMOOTH"
);
},
{
closed = 1;
nodes = (
"245 719 LINE",
"527 719 LINE",
"535 782 LINE",
"253 782 LINE"
);
}
);
width = 650;
},
{
layerId = "4E675A61-A531-4354-B628-4B264391FE65";
paths = (
{
closed = 1;
nodes = (
"507 -11 OFFCURVE",
"625 154 OFFCURVE",
"625 402 CURVE SMOOTH",
"625 529 OFFCURVE",
"556 660 OFFCURVE",
"362 660 CURVE SMOOTH",
"182 660 OFFCURVE",
"30 520 OFFCURVE",
"30 247 CURVE SMOOTH",
"30 73 OFFCURVE",
"146 -11 OFFCURVE",
"283 -11 CURVE SMOOTH"
);
},
{
closed = 1;
nodes = (
"234 55 OFFCURVE",
"179 93 OFFCURVE",
"179 239 CURVE SMOOTH",
"179 495 OFFCURVE",
"228 595 OFFCURVE",
"351 595 CURVE SMOOTH",
"420 595 OFFCURVE",
"476 557 OFFCURVE",
"476 411 CURVE SMOOTH",
"476 155 OFFCURVE",
"426 55 OFFCURVE",
"303 55 CURVE SMOOTH"
);
},
{
closed = 1;
nodes = (
"190 716 LINE",
"540 716 LINE",
"550 798 LINE",
"200 798 LINE"
);
}
);
width = 655;
}
);
unicode = 014C;
},
{
glyphname = Oslash;
lastChange = "2016-07-29 06:30:20 +0000";
layers = (
{
anchors = (
{
name = top;
position = "{309, 648}";
}
);
layerId = "8C17F4AC-C384-4A1F-BD5F-821C12AF061A";
paths = (
{
closed = 1;
nodes = (
"210 -4 LINE",
"230 -8 OFFCURVE",
"252 -11 OFFCURVE",
"275 -11 CURVE SMOOTH",
"503 -11 OFFCURVE",
"606 192 OFFCURVE",
"606 402 CURVE SMOOTH",
"606 510 OFFCURVE",
"569 588 OFFCURVE",
"499 629 CURVE",
"535 707 LINE",
"487 730 LINE",
"450 649 LINE",
"425 656 OFFCURVE",
"397 660 OFFCURVE",
"367 660 CURVE SMOOTH",
"160 660 OFFCURVE",
"44 463 OFFCURVE",
"44 248 CURVE SMOOTH",
"44 136 OFFCURVE",
"84 54 OFFCURVE",
"158 15 CURVE",
"121 -67 LINE",
"171 -91 LINE"
);
},
{
closed = 1;
nodes = (
"148 113 OFFCURVE",
"135 177 OFFCURVE",
"135 273 CURVE SMOOTH",
"139 472 OFFCURVE",
"197 609 OFFCURVE",
"346 609 CURVE SMOOTH",
"377 609 OFFCURVE",
"403 604 OFFCURVE",
"425 596 CURVE",
"186 76 LINE"
);
},
{
closed = 1;
nodes = (
"276 40 OFFCURVE",
"254 43 OFFCURVE",
"234 49 CURVE",
"470 566 LINE",
"502 531 OFFCURVE",
"515 474 OFFCURVE",
"515 392 CURVE SMOOTH",
"515 185 OFFCURVE",
"461 40 OFFCURVE",
"303 40 CURVE SMOOTH"
);
}
);
width = 650;
},
{
anchors = (
{
name = top;
position = "{278, 648}";
}
);
layerId = "4E675A61-A531-4354-B628-4B264391FE65";
paths = (
{
closed = 1;
nodes = (
"209 -2 LINE",
"232 -8 OFFCURVE",
"257 -11 OFFCURVE",
"283 -11 CURVE SMOOTH",
"507 -11 OFFCURVE",
"625 154 OFFCURVE",
"625 402 CURVE SMOOTH",
"625 493 OFFCURVE",
"589 586 OFFCURVE",
"498 631 CURVE",
"535 712 LINE",
"473 742 LINE",
"432 653 LINE",
"411 658 OFFCURVE",
"387 660 OFFCURVE",
"362 660 CURVE SMOOTH",
"182 660 OFFCURVE",
"30 520 OFFCURVE",
"30 247 CURVE SMOOTH",
"30 138 OFFCURVE",
"75 64 OFFCURVE",
"143 24 CURVE",
"102 -66 LINE",
"166 -97 LINE"
);
},
{
closed = 1;
nodes = (
"184 159 OFFCURVE",
"179 194 OFFCURVE",
"179 239 CURVE SMOOTH",
"179 495 OFFCURVE",
"228 595 OFFCURVE",
"351 595 CURVE SMOOTH",
"369 595 OFFCURVE",
"386 592 OFFCURVE",
"401 586 CURVE",
"193 133 LINE"
);
},
{
closed = 1;
nodes = (
"280 55 OFFCURVE",
"260 59 OFFCURVE",
"242 69 CURVE",
"454 534 LINE",
"468 506 OFFCURVE",
"476 466 OFFCURVE",
"476 411 CURVE SMOOTH",
"476 155 OFFCURVE",
"426 55 OFFCURVE",
"303 55 CURVE SMOOTH"
);
}
);
width = 655;
}
);
unicode = 00D8;
},
{
glyphname = Otilde;
lastChange = "2015-02-26 23:15:43 +0000";
layers = (
{
layerId = "8C17F4AC-C384-4A1F-BD5F-821C12AF061A";
paths = (
{
closed = 1;
nodes = (
"503 -11 OFFCURVE",
"606 192 OFFCURVE",
"606 402 CURVE SMOOTH",
"606 565 OFFCURVE",
"524 660 OFFCURVE",
"367 660 CURVE SMOOTH",
"160 660 OFFCURVE",
"44 463 OFFCURVE",
"44 248 CURVE SMOOTH",
"44 87 OFFCURVE",
"126 -11 OFFCURVE",
"275 -11 CURVE SMOOTH"
);
},
{
closed = 1;
nodes = (
"173 40 OFFCURVE",
"135 112 OFFCURVE",
"135 273 CURVE SMOOTH",
"135 472 OFFCURVE",
"197 609 OFFCURVE",
"346 609 CURVE SMOOTH",
"470 609 OFFCURVE",
"515 545 OFFCURVE",
"515 392 CURVE SMOOTH",
"515 185 OFFCURVE",
"461 40 OFFCURVE",
"303 40 CURVE SMOOTH"
);
},
{
closed = 1;
nodes = (
"251 728 LINE",
"331 765 LINE",
"397 742 LINE SMOOTH",
"421 733 OFFCURVE",
"453 722 OFFCURVE",
"473 722 CURVE SMOOTH",
"495 722 OFFCURVE",
"512 736 OFFCURVE",
"528 756 CURVE SMOOTH",
"565 804 LINE",
"542 830 LINE",
"462 793 LINE",
"396 816 LINE SMOOTH",
"371 825 OFFCURVE",
"339 836 OFFCURVE",
"320 836 CURVE SMOOTH",
"298 836 OFFCURVE",
"281 822 OFFCURVE",
"265 802 CURVE SMOOTH",
"228 754 LINE"
);
}
);
width = 650;
},
{
layerId = "4E675A61-A531-4354-B628-4B264391FE65";
paths = (
{
closed = 1;
nodes = (
"507 -11 OFFCURVE",
"625 154 OFFCURVE",
"625 402 CURVE SMOOTH",
"625 529 OFFCURVE",
"556 660 OFFCURVE",
"362 660 CURVE SMOOTH",
"182 660 OFFCURVE",
"30 520 OFFCURVE",
"30 247 CURVE SMOOTH",
"30 73 OFFCURVE",
"146 -11 OFFCURVE",
"283 -11 CURVE SMOOTH"
);
},
{
closed = 1;
nodes = (
"234 55 OFFCURVE",
"179 93 OFFCURVE",
"179 239 CURVE SMOOTH",
"179 495 OFFCURVE",
"228 595 OFFCURVE",
"351 595 CURVE SMOOTH",
"420 595 OFFCURVE",
"476 557 OFFCURVE",
"476 411 CURVE SMOOTH",
"476 155 OFFCURVE",
"426 55 OFFCURVE",
"303 55 CURVE SMOOTH"
);
},
{
closed = 1;
nodes = (
"203 694 LINE",
"285 732 LINE",
"390 696 LINE SMOOTH",
"413 688 OFFCURVE",
"432 682 OFFCURVE",
"457 682 CURVE SMOOTH",
"477 682 OFFCURVE",
"500 698 OFFCURVE",
"524 725 CURVE SMOOTH",
"574 781 LINE",
"545 814 LINE",
"463 776 LINE",
"358 811 LINE SMOOTH",
"335 819 OFFCURVE",
"316 825 OFFCURVE",
"291 825 CURVE SMOOTH",
"271 825 OFFCURVE",
"246 810 OFFCURVE",
"224 782 CURVE",
"174 727 LINE"
);
}
);
width = 655;
}
);
unicode = 00D5;
},
{
glyphname = OE;
lastChange = "2016-07-29 04:50:52 +0000";
layers = (
{
anchors = (
{
name = top;
position = "{486, 648}";
}
);
layerId = "8C17F4AC-C384-4A1F-BD5F-821C12AF061A";
paths = (
{
closed = 1;
nodes = (
"697 0 LINE",
"716 152 LINE",
"674 152 LINE",
"636 45 LINE",
"534 45 LINE SMOOTH",
"497 45 OFFCURVE",
"459 48 OFFCURVE",
"441 51 CURVE",
"479 314 LINE",
"611 314 LINE",
"616 255 LINE",
"652 255 LINE",
"673 417 LINE",
"637 417 LINE",
"616 358 LINE",
"485 358 LINE",
"519 597 LINE",
"599 602 LINE",
"700 602 LINE",
"700 492 LINE",
"749 492 LINE",
"770 648 LINE",
"365 648 LINE SMOOTH",
"158 648 OFFCURVE",
"35 459 OFFCURVE",
"35 248 CURVE SMOOTH",
"35 87 OFFCURVE",
"120 0 OFFCURVE",
"269 0 CURVE SMOOTH"
);
},
{
closed = 1;
nodes = (
"167 47 OFFCURVE",
"126 112 OFFCURVE",
"126 273 CURVE SMOOTH",
"130 472 OFFCURVE",
"198 604 OFFCURVE",
"348 604 CURVE SMOOTH",
"383 604 OFFCURVE",
"412 601 OFFCURVE",
"439 595 CURVE",
"363 51 LINE",
"345 48 OFFCURVE",
"325 47 OFFCURVE",
"297 47 CURVE SMOOTH"
);
}
);
width = 780;
},
{
anchors = (
{
name = top;
position = "{501, 648}";
}
);
layerId = "4E675A61-A531-4354-B628-4B264391FE65";
paths = (
{
closed = 1;
nodes = (
"740 0 LINE",
"762 180 LINE",
"701 180 LINE",
"661 69 LINE",
"567 69 LINE",
"541 71 OFFCURVE",
"514 74 OFFCURVE",
"488 76 CURVE",
"519 301 LINE",
"639 301 LINE",
"639 234 LINE",
"698 234 LINE",
"724 430 LINE",
"664 430 LINE",
"642 366 LINE",
"528 366 LINE",
"558 572 LINE",
"616 579 LINE",
"724 579 LINE",
"724 464 LINE",
"790 464 LINE",
"818 648 LINE",
"357 648 LINE SMOOTH",
"161 648 OFFCURVE",
"20 485 OFFCURVE",
"20 247 CURVE SMOOTH",
"20 73 OFFCURVE",
"123 0 OFFCURVE",
"260 0 CURVE SMOOTH"
);
},
{
closed = 1;
nodes = (
"179 66 OFFCURVE",
"169 182 OFFCURVE",
"169 239 CURVE SMOOTH",
"169 495 OFFCURVE",
"239 583 OFFCURVE",
"344 583 CURVE SMOOTH",
"376 583 OFFCURVE",
"402 580 OFFCURVE",
"423 576 CURVE",
"352 72 LINE",
"333 69 OFFCURVE",
"313 66 OFFCURVE",
"293 66 CURVE SMOOTH"
);
}
);
width = 803;
}
);
unicode = 0152;
},
{
glyphname = P;
lastChange = "2016-07-29 04:51:27 +0000";
layers = (
{
anchors = (
{
name = bottom;
position = "{123, 0}";
},
{
name = top;
position = "{311, 648}";
}
);
layerId = "8C17F4AC-C384-4A1F-BD5F-821C12AF061A";
paths = (
{
closed = 1;
nodes = (
"248 0 LINE",
"251 37 LINE",
"170 51 LINE",
"247 596 LINE",
"261 599 OFFCURVE",
"282 601 OFFCURVE",
"297 601 CURVE SMOOTH",
"380 601 OFFCURVE",
"423 572 OFFCURVE",
"423 475 CURVE SMOOTH",
"423 382 OFFCURVE",
"386 302 OFFCURVE",
"237 302 CURVE",
"237 268 LINE",
"253 268 LINE SMOOTH",
"411 268 OFFCURVE",
"510 346 OFFCURVE",
"510 487 CURVE SMOOTH",
"510 593 OFFCURVE",
"440 648 OFFCURVE",
"306 648 CURVE SMOOTH",
"105 648 LINE",
"101 611 LINE",
"168 597 LINE",
"91 51 LINE",
"20 37 LINE",
"16 0 LINE"
);
}
);
width = 510;
},
{
anchors = (
{
name = bottom;
position = "{124, 0}";
},
{
name = top;
position = "{316, 648}";
}
);
layerId = "4E675A61-A531-4354-B628-4B264391FE65";
paths = (
{
closed = 1;
nodes = (
"285 0 LINE",
"292 58 LINE",
"202 72 LINE",
"273 576 LINE",
"282 578 OFFCURVE",
"294 579 OFFCURVE",
"302 579 CURVE SMOOTH",
"364 579 OFFCURVE",
"396 555 OFFCURVE",
"396 485 CURVE SMOOTH",
"396 392 OFFCURVE",
"363 324 OFFCURVE",
"257 310 CURVE",
"257 260 LINE",
"268 260 LINE",
"480 264 OFFCURVE",
"539 382 OFFCURVE",
"539 482 CURVE SMOOTH",
"539 602 OFFCURVE",
"463 648 OFFCURVE",
"324 648 CURVE SMOOTH",
"76 648 LINE",
"68 590 LINE",
"138 576 LINE",
"67 72 LINE",
"-4 58 LINE",
"-13 0 LINE"
);
}
);
width = 519;
}
);
unicode = 0050;
},
{
glyphname = Thorn;
lastChange = "2016-07-29 04:52:24 +0000";
layers = (
{
layerId = "8C17F4AC-C384-4A1F-BD5F-821C12AF061A";
paths = (
{
closed = 1;
nodes = (
"234 0 LINE",
"237 37 LINE",
"169 51 LINE",
"185 164 LINE",
"201 160 OFFCURVE",
"223 158 OFFCURVE",
"256 158 CURVE SMOOTH",
"362 158 OFFCURVE",
"475 215 OFFCURVE",
"475 351 CURVE SMOOTH",
"475 462 OFFCURVE",
"401 504 OFFCURVE",
"293 504 CURVE SMOOTH",
"233 504 LINE",
"246 597 LINE",
"317 611 LINE",
"321 648 LINE",
"103 648 LINE",
"99 611 LINE",
"167 597 LINE",
"90 51 LINE",
"19 37 LINE",
"15 0 LINE"
);
},
{
closed = 1;
nodes = (
"217 198 OFFCURVE",
"202 200 OFFCURVE",
"190 203 CURVE",
"225 452 LINE",
"239 455 OFFCURVE",
"256 457 OFFCURVE",
"275 457 CURVE SMOOTH",
"338 457 OFFCURVE",
"388 441 OFFCURVE",
"388 344 CURVE SMOOTH",
"388 251 OFFCURVE",
"344 198 OFFCURVE",
"235 198 CURVE SMOOTH"
);
}
);
width = 485;
},
{
layerId = "4E675A61-A531-4354-B628-4B264391FE65";
paths = (
{
closed = 1;
nodes = (
"260 0 LINE",
"269 58 LINE",
"199 72 LINE",
"209 144 LINE",
"219 144 OFFCURVE",
"229 144 OFFCURVE",
"239 144 CURVE SMOOTH",
"460 144 OFFCURVE",
"516 249 OFFCURVE",
"516 375 CURVE SMOOTH",
"516 471 OFFCURVE",
"439 517 OFFCURVE",
"300 517 CURVE SMOOTH",
"261 517 LINE",
"270 576 LINE",
"341 590 LINE",
"349 648 LINE",
"74 648 LINE",
"66 590 LINE",
"136 576 LINE",
"65 72 LINE",
"-6 58 LINE",
"-15 0 LINE"
);
},
{
closed = 1;
nodes = (
"234 203 OFFCURVE",
"226 204 OFFCURVE",
"217 205 CURVE",
"251 446 LINE",
"263 447 OFFCURVE",
"274 448 OFFCURVE",
"284 448 CURVE SMOOTH",
"346 448 OFFCURVE",
"373 424 OFFCURVE",
"373 354 CURVE SMOOTH",
"373 261 OFFCURVE",
"347 203 OFFCURVE",
"239 203 CURVE SMOOTH"
);
}
);
width = 517;
}
);
unicode = 00DE;
},
{
glyphname = Q;
lastChange = "2015-02-26 23:17:58 +0000";
layers = (
{
anchors = (
{
name = bottom;
position = "{290, 0}";
},
{
name = top;
position = "{381, 648}";
}
);
layerId = "8C17F4AC-C384-4A1F-BD5F-821C12AF061A";
paths = (
{
closed = 1;
nodes = (
"191 -138 LINE",
"246 -113 LINE",
"418 -151 LINE SMOOTH",
"445 -157 OFFCURVE",
"470 -164 OFFCURVE",
"487 -164 CURVE SMOOTH",
"503 -164 OFFCURVE",
"523 -162 OFFCURVE",
"535 -146 CURVE SMOOTH",
"575 -94 LINE",
"554 -71 LINE",
"495 -99 LINE",
"324 -60 LINE SMOOTH",
"307 -56 OFFCURVE",
"289 -52 OFFCURVE",
"274 -50 CURVE",
"313 -9 LINE",
"514 12 OFFCURVE",
"606 204 OFFCURVE",
"606 402 CURVE SMOOTH",
"606 565 OFFCURVE",
"524 660 OFFCURVE",
"367 660 CURVE SMOOTH",
"160 660 OFFCURVE",
"44 463 OFFCURVE",
"44 248 CURVE SMOOTH",
"44 90 OFFCURVE",
"122 -7 OFFCURVE",
"265 -11 CURVE",
"170 -112 LINE"
);
},
{
closed = 1;
nodes = (
"173 40 OFFCURVE",
"135 112 OFFCURVE",
"135 273 CURVE SMOOTH",
"135 472 OFFCURVE",
"197 609 OFFCURVE",
"346 609 CURVE SMOOTH",
"470 609 OFFCURVE",
"515 545 OFFCURVE",
"515 392 CURVE SMOOTH",
"515 185 OFFCURVE",
"461 40 OFFCURVE",
"303 40 CURVE SMOOTH"
);
}
);
width = 650;
},
{
anchors = (
{
name = bottom;
position = "{293, 0}";
},
{
name = top;
position = "{384, 648}";
}
);
layerId = "4E675A61-A531-4354-B628-4B264391FE65";
paths = (
{
closed = 1;
nodes = (
"188 -158 LINE",
"243 -133 LINE",
"425 -174 LINE SMOOTH",
"452 -180 OFFCURVE",
"477 -187 OFFCURVE",
"494 -187 CURVE SMOOTH",
"520 -187 OFFCURVE",
"538 -175 OFFCURVE",
"550 -159 CURVE SMOOTH",
"602 -91 LINE",
"575 -63 LINE",
"517 -94 LINE",
"336 -52 LINE SMOOTH",
"319 -48 OFFCURVE",
"301 -44 OFFCURVE",
"286 -42 CURVE",
"317 -10 LINE",
"519 6 OFFCURVE",
"625 167 OFFCURVE",
"625 402 CURVE SMOOTH",
"625 529 OFFCURVE",
"556 660 OFFCURVE",
"362 660 CURVE SMOOTH",
"182 660 OFFCURVE",
"30 520 OFFCURVE",
"30 247 CURVE SMOOTH",
"30 85 OFFCURVE",
"130 1 OFFCURVE",
"255 -10 CURVE",
"152 -112 LINE"
);
},
{
closed = 1;
nodes = (
"234 55 OFFCURVE",
"179 93 OFFCURVE",
"179 239 CURVE SMOOTH",
"179 495 OFFCURVE",
"228 595 OFFCURVE",
"351 595 CURVE SMOOTH",
"420 595 OFFCURVE",
"476 557 OFFCURVE",
"476 411 CURVE SMOOTH",
"476 155 OFFCURVE",
"426 55 OFFCURVE",
"303 55 CURVE SMOOTH"
);
}
);
width = 655;
}
);
unicode = 0051;
},
{
glyphname = R;
lastChange = "2016-07-29 04:54:40 +0000";
layers = (
{
anchors = (
{
name = bottom;
position = "{271, 0}";
},
{
name = top;
position = "{322, 648}";
}
);
layerId = "8C17F4AC-C384-4A1F-BD5F-821C12AF061A";
paths = (
{
closed = 1;
nodes = (
"235 0 LINE",
"238 37 LINE",
"170 51 LINE",
"202 285 LINE",
"257 279 OFFCURVE",
"271 249 OFFCURVE",
"305 171 CURVE SMOOTH",
"366 31 LINE SMOOTH",
"374 11 OFFCURVE",
"395 0 OFFCURVE",
"416 0 CURVE SMOOTH",
"511 0 LINE",
"514 37 LINE",
"437 65 LINE",
"372 212 LINE SMOOTH",
"353 255 OFFCURVE",
"337 279 OFFCURVE",
"311 297 CURVE",
"431 326 OFFCURVE",
"496 405 OFFCURVE",
"498 503 CURVE SMOOTH",
"498 596 OFFCURVE",
"437 648 OFFCURVE",
"327 648 CURVE SMOOTH",
"105 648 LINE",
"101 611 LINE",
"168 597 LINE",
"91 51 LINE",
"20 37 LINE",
"16 0 LINE"
);
},
{
closed = 1;
nodes = (
"247 597 LINE",
"247 597 OFFCURVE",
"269 600 OFFCURVE",
"309 600 CURVE SMOOTH",
"393 600 OFFCURVE",
"412 553 OFFCURVE",
"412 483 CURVE SMOOTH",
"412 379 OFFCURVE",
"334 328 OFFCURVE",
"208 328 CURVE"
);
}
);
width = 531;
},
{
anchors = (
{
name = bottom;
position = "{266, 0}";
},
{
name = top;
position = "{327, 648}";
}
);
layerId = "4E675A61-A531-4354-B628-4B264391FE65";
paths = (
{
closed = 1;
nodes = (
"256 0 LINE",
"262 50 LINE",
"201 66 LINE",
"231 273 LINE",
"255 273 OFFCURVE",
"277 219 OFFCURVE",
"291 185 CURVE SMOOTH",
"350 33 LINE SMOOTH",
"358 7 OFFCURVE",
"371 0 OFFCURVE",
"397 0 CURVE SMOOTH",
"538 0 LINE",
"544 50 LINE",
"479 73 LINE",
"427 193 LINE SMOOTH",
"410 233 OFFCURVE",
"391 278 OFFCURVE",
"343 299 CURVE",
"433 328 OFFCURVE",
"526 394 OFFCURVE",
"526 502 CURVE SMOOTH",
"526 615 OFFCURVE",
"444 648 OFFCURVE",
"344 648 CURVE SMOOTH",
"76 648 LINE",
"68 590 LINE",
"138 576 LINE",
"67 72 LINE",
"-4 58 LINE",
"-13 0 LINE"
);
},
{
closed = 1;
nodes = (
"273 575 LINE",
"273 575 OFFCURVE",
"281 579 OFFCURVE",
"309 579 CURVE SMOOTH",
"365 579 OFFCURVE",
"385 543 OFFCURVE",
"385 495 CURVE SMOOTH",
"385 429 OFFCURVE",
"363 335 OFFCURVE",
"239 335 CURVE"
);
}
);
width = 542;
}
);
unicode = 0052;
},
{
glyphname = Racute;
lastChange = "2016-07-29 05:48:21 +0000";
layers = (
{
layerId = "8C17F4AC-C384-4A1F-BD5F-821C12AF061A";
paths = (
{
closed = 1;
nodes = (
"235 0 LINE",
"238 37 LINE",
"170 51 LINE",
"202 285 LINE",
"259 279 OFFCURVE",
"271 249 OFFCURVE",
"305 171 CURVE SMOOTH",
"366 31 LINE SMOOTH",
"374 11 OFFCURVE",
"395 0 OFFCURVE",
"416 0 CURVE SMOOTH",
"511 0 LINE",
"514 37 LINE",
"437 65 LINE",
"372 212 LINE SMOOTH",
"353 255 OFFCURVE",
"337 279 OFFCURVE",
"311 297 CURVE",
"431 326 OFFCURVE",
"496 405 OFFCURVE",
"498 503 CURVE SMOOTH",
"498 596 OFFCURVE",
"437 648 OFFCURVE",
"327 648 CURVE SMOOTH",
"105 648 LINE",
"101 611 LINE",
"168 597 LINE",
"91 51 LINE",
"20 37 LINE",
"16 0 LINE"
);
},
{
closed = 1;
nodes = (
"247 597 LINE",
"247 597 OFFCURVE",
"269 600 OFFCURVE",
"309 600 CURVE SMOOTH",
"393 600 OFFCURVE",
"412 553 OFFCURVE",
"412 483 CURVE SMOOTH",
"412 379 OFFCURVE",
"334 328 OFFCURVE",
"208 328 CURVE"
);
},
{
closed = 1;
nodes = (
"385 735 LINE SMOOTH",
"417 748 OFFCURVE",
"435 761 OFFCURVE",
"435 786 CURVE SMOOTH",
"435 805 OFFCURVE",
"422 826 OFFCURVE",
"401 836 CURVE",
"233 716 LINE",
"255 681 LINE"
);
}
);
width = 531;
},
{
layerId = "4E675A61-A531-4354-B628-4B264391FE65";
paths = (
{
closed = 1;
nodes = (
"253 0 LINE",
"259 50 LINE",
"198 66 LINE",
"228 273 LINE",
"252 273 OFFCURVE",
"274 219 OFFCURVE",
"288 185 CURVE SMOOTH",
"347 33 LINE SMOOTH",
"355 7 OFFCURVE",
"368 0 OFFCURVE",
"394 0 CURVE SMOOTH",
"535 0 LINE",
"541 50 LINE",
"476 73 LINE",
"424 193 LINE SMOOTH",
"407 233 OFFCURVE",
"388 278 OFFCURVE",
"340 299 CURVE",
"430 328 OFFCURVE",
"523 394 OFFCURVE",
"523 502 CURVE SMOOTH",
"523 615 OFFCURVE",
"441 648 OFFCURVE",
"341 648 CURVE SMOOTH",
"73 648 LINE",
"65 590 LINE",
"135 576 LINE",
"64 72 LINE",
"-7 58 LINE",
"-16 0 LINE"
);
},
{
closed = 1;
nodes = (
"270 575 LINE",
"270 575 OFFCURVE",
"278 579 OFFCURVE",
"306 579 CURVE SMOOTH",
"362 579 OFFCURVE",
"382 543 OFFCURVE",
"382 495 CURVE SMOOTH",
"382 429 OFFCURVE",
"360 335 OFFCURVE",
"236 335 CURVE"
);
},
{
closed = 1;
nodes = (
"405 729 LINE SMOOTH",
"444 742 OFFCURVE",
"450 757 OFFCURVE",
"450 775 CURVE SMOOTH",
"450 812 OFFCURVE",
"428 831 OFFCURVE",
"412 840 CURVE",
"224 722 LINE",
"248 674 LINE"
);
}
);
width = 536;
}
);
unicode = 0154;
},
{
glyphname = Rcaron;
lastChange = "2016-07-29 05:48:26 +0000";
layers = (
{
layerId = "8C17F4AC-C384-4A1F-BD5F-821C12AF061A";
paths = (
{
closed = 1;
nodes = (
"235 0 LINE",
"238 37 LINE",
"170 51 LINE",
"202 285 LINE",
"259 279 OFFCURVE",
"271 249 OFFCURVE",
"305 171 CURVE SMOOTH",
"366 31 LINE SMOOTH",
"374 11 OFFCURVE",
"395 0 OFFCURVE",
"416 0 CURVE SMOOTH",
"511 0 LINE",
"514 37 LINE",
"437 65 LINE",
"372 212 LINE SMOOTH",
"353 255 OFFCURVE",
"337 279 OFFCURVE",
"311 297 CURVE",
"431 326 OFFCURVE",
"496 405 OFFCURVE",
"498 503 CURVE SMOOTH",
"498 596 OFFCURVE",
"437 648 OFFCURVE",
"327 648 CURVE SMOOTH",
"105 648 LINE",
"101 611 LINE",
"168 597 LINE",
"91 51 LINE",
"20 37 LINE",
"16 0 LINE"
);
},
{
closed = 1;
nodes = (
"247 597 LINE",
"247 597 OFFCURVE",
"269 600 OFFCURVE",
"309 600 CURVE SMOOTH",
"393 600 OFFCURVE",
"412 553 OFFCURVE",
"412 483 CURVE SMOOTH",
"412 379 OFFCURVE",
"334 328 OFFCURVE",
"208 328 CURVE"
);
},
{
closed = 1;
nodes = (
"317 689 OFFCURVE",
"333 696 OFFCURVE",
"384 744 CURVE SMOOTH",
"449 805 LINE",
"424 838 LINE",
"322 766 LINE",
"224 835 LINE",
"189 797 LINE",
"247 738 LINE SMOOTH",
"257 728 OFFCURVE",
"297 689 OFFCURVE",
"308 689 CURVE SMOOTH"
);
}
);
width = 531;
},
{
layerId = "4E675A61-A531-4354-B628-4B264391FE65";
paths = (
{
closed = 1;
nodes = (
"253 0 LINE",
"259 50 LINE",
"198 66 LINE",
"228 273 LINE",
"252 273 OFFCURVE",
"274 219 OFFCURVE",
"288 185 CURVE SMOOTH",
"347 33 LINE SMOOTH",
"355 7 OFFCURVE",
"368 0 OFFCURVE",
"394 0 CURVE SMOOTH",
"535 0 LINE",
"541 50 LINE",
"476 73 LINE",
"424 193 LINE SMOOTH",
"407 233 OFFCURVE",
"388 278 OFFCURVE",
"340 299 CURVE",
"430 328 OFFCURVE",
"523 394 OFFCURVE",
"523 502 CURVE SMOOTH",
"523 615 OFFCURVE",
"441 648 OFFCURVE",
"341 648 CURVE SMOOTH",
"73 648 LINE",
"65 590 LINE",
"135 576 LINE",
"64 72 LINE",
"-7 58 LINE",
"-16 0 LINE"
);
},
{
closed = 1;
nodes = (
"270 575 LINE",
"270 575 OFFCURVE",
"278 579 OFFCURVE",
"306 579 CURVE SMOOTH",
"362 579 OFFCURVE",
"382 543 OFFCURVE",
"382 495 CURVE SMOOTH",
"382 429 OFFCURVE",
"360 335 OFFCURVE",
"236 335 CURVE"
);
},
{
closed = 1;
nodes = (
"322 674 OFFCURVE",
"345 694 OFFCURVE",
"382 724 CURVE SMOOTH",
"472 798 LINE",
"446 837 LINE",
"322 778 LINE",
"209 839 LINE",
"170 791 LINE",
"257 712 LINE SMOOTH",
"276 694 OFFCURVE",
"295 674 OFFCURVE",
"310 674 CURVE SMOOTH"
);
}
);
width = 536;
}
);
unicode = 0158;
},
{
glyphname = Rcommaaccent;
lastChange = "2016-07-29 05:48:30 +0000";
layers = (
{
layerId = "8C17F4AC-C384-4A1F-BD5F-821C12AF061A";
paths = (
{
closed = 1;
nodes = (
"235 0 LINE",
"238 37 LINE",
"170 51 LINE",
"202 285 LINE",
"259 279 OFFCURVE",
"271 249 OFFCURVE",
"305 171 CURVE SMOOTH",
"366 31 LINE SMOOTH",
"374 11 OFFCURVE",
"395 0 OFFCURVE",
"416 0 CURVE SMOOTH",
"511 0 LINE",
"514 37 LINE",
"437 65 LINE",
"372 212 LINE SMOOTH",
"353 255 OFFCURVE",
"337 279 OFFCURVE",
"311 297 CURVE",
"431 326 OFFCURVE",
"496 405 OFFCURVE",
"498 503 CURVE SMOOTH",
"498 596 OFFCURVE",
"437 648 OFFCURVE",
"327 648 CURVE SMOOTH",
"105 648 LINE",
"101 611 LINE",
"168 597 LINE",
"91 51 LINE",
"20 37 LINE",
"16 0 LINE"
);
},
{
closed = 1;
nodes = (
"250 -194 OFFCURVE",
"325 -151 OFFCURVE",
"325 -91 CURVE SMOOTH",
"325 -49 OFFCURVE",
"301 -33 OFFCURVE",
"274 -33 CURVE SMOOTH",
"248 -33 OFFCURVE",
"235 -48 OFFCURVE",
"230 -56 CURVE",
"240 -65 OFFCURVE",
"254 -82 OFFCURVE",
"254 -113 CURVE SMOOTH",
"254 -151 OFFCURVE",
"217 -184 OFFCURVE",
"217 -184 CURVE",
"234 -201 LINE"
);
},
{
closed = 1;
nodes = (
"247 597 LINE",
"247 597 OFFCURVE",
"269 600 OFFCURVE",
"309 600 CURVE SMOOTH",
"393 600 OFFCURVE",
"412 553 OFFCURVE",
"412 483 CURVE SMOOTH",
"412 379 OFFCURVE",
"334 328 OFFCURVE",
"208 328 CURVE"
);
}
);
width = 531;
},
{
layerId = "4E675A61-A531-4354-B628-4B264391FE65";
paths = (
{
closed = 1;
nodes = (
"253 0 LINE",
"259 50 LINE",
"198 66 LINE",
"228 273 LINE",
"252 273 OFFCURVE",
"274 219 OFFCURVE",
"288 185 CURVE SMOOTH",
"347 33 LINE SMOOTH",
"355 7 OFFCURVE",
"368 0 OFFCURVE",
"394 0 CURVE SMOOTH",
"535 0 LINE",
"541 50 LINE",
"476 73 LINE",
"424 193 LINE SMOOTH",
"407 233 OFFCURVE",
"388 278 OFFCURVE",
"340 299 CURVE",
"430 328 OFFCURVE",
"523 394 OFFCURVE",
"523 502 CURVE SMOOTH",
"523 615 OFFCURVE",
"441 648 OFFCURVE",
"341 648 CURVE SMOOTH",
"73 648 LINE",
"65 590 LINE",
"135 576 LINE",
"64 72 LINE",
"-7 58 LINE",
"-16 0 LINE"
);
},
{
closed = 1;
nodes = (
"198 -215 OFFCURVE",
"310 -172 OFFCURVE",
"310 -83 CURVE SMOOTH",
"310 -54 OFFCURVE",
"293 -24 OFFCURVE",
"248 -24 CURVE SMOOTH",
"222 -24 OFFCURVE",
"201 -40 OFFCURVE",
"191 -57 CURVE",
"191 -57 OFFCURVE",
"210 -77 OFFCURVE",
"210 -105 CURVE SMOOTH",
"210 -152 OFFCURVE",
"174 -186 OFFCURVE",
"174 -186 CURVE",
"198 -215 LINE"
);
},
{
closed = 1;
nodes = (
"270 575 LINE",
"270 575 OFFCURVE",
"278 579 OFFCURVE",
"306 579 CURVE SMOOTH",
"362 579 OFFCURVE",
"382 543 OFFCURVE",
"382 495 CURVE SMOOTH",
"382 429 OFFCURVE",
"360 335 OFFCURVE",
"236 335 CURVE"
);
}
);
width = 536;
}
);
unicode = 0156;
},
{
glyphname = S;
lastChange = "2016-07-29 04:55:13 +0000";
layers = (
{
anchors = (
{
name = bottom;
position = "{190, 0}";
},
{
name = top;
position = "{281, 648}";
}
);
layerId = "8C17F4AC-C384-4A1F-BD5F-821C12AF061A";
paths = (
{
closed = 1;
nodes = (
"308 -11 OFFCURVE",
"391 64 OFFCURVE",
"391 185 CURVE SMOOTH",
"391 257 OFFCURVE",
"328 313 OFFCURVE",
"267 366 CURVE SMOOTH",
"207 417 OFFCURVE",
"149 465 OFFCURVE",
"149 521 CURVE SMOOTH",
"149 577 OFFCURVE",
"184 609 OFFCURVE",
"265 609 CURVE SMOOTH",
"297 609 OFFCURVE",
"339 601 OFFCURVE",
"363 590 CURVE",
"371 486 LINE",
"415 486 LINE",
"432 636 LINE",
"400 648 OFFCURVE",
"340 660 OFFCURVE",
"280 660 CURVE SMOOTH",
"160 660 OFFCURVE",
"73 608 OFFCURVE",
"73 490 CURVE SMOOTH",
"73 412 OFFCURVE",
"146 355 OFFCURVE",
"212 300 CURVE SMOOTH",
"266 255 OFFCURVE",
"315 210 OFFCURVE",
"315 156 CURVE SMOOTH",
"315 86 OFFCURVE",
"276 40 OFFCURVE",
"171 40 CURVE SMOOTH",
"135 40 OFFCURVE",
"100 51 OFFCURVE",
"85 67 CURVE",
"74 178 LINE",
"25 178 LINE",
"9 37 LINE",
"29 17 OFFCURVE",
"99 -11 OFFCURVE",
"165 -11 CURVE SMOOTH"
);
}
);
width = 450;
},
{
anchors = (
{
name = bottom;
position = "{208, 0}";
},
{
name = top;
position = "{279, 648}";
}
);
layerId = "4E675A61-A531-4354-B628-4B264391FE65";
paths = (
{
closed = 1;
nodes = (
"316 -11 OFFCURVE",
"412 69 OFFCURVE",
"412 197 CURVE SMOOTH",
"412 283 OFFCURVE",
"340 345 OFFCURVE",
"269 407 CURVE SMOOTH",
"188 477 OFFCURVE",
"169 501 OFFCURVE",
"169 531 CURVE SMOOTH",
"169 562 OFFCURVE",
"179 595 OFFCURVE",
"239 595 CURVE SMOOTH",
"281 595 OFFCURVE",
"327 584 OFFCURVE",
"351 567 CURVE",
"361 459 LINE",
"429 459 LINE",
"447 639 LINE",
"416 649 OFFCURVE",
"351 660 OFFCURVE",
"272 660 CURVE SMOOTH",
"128 660 OFFCURVE",
"54 580 OFFCURVE",
"54 479 CURVE SMOOTH",
"54 398 OFFCURVE",
"94 362 OFFCURVE",
"203 267 CURVE SMOOTH",
"293 189 OFFCURVE",
"296 171 OFFCURVE",
"296 124 CURVE SMOOTH",
"296 90 OFFCURVE",
"269 56 OFFCURVE",
"217 56 CURVE SMOOTH",
"169 56 OFFCURVE",
"118 71 OFFCURVE",
"96 92 CURVE",
"85 211 LINE",
"14 211 LINE",
"-5 33 LINE",
"16 19 OFFCURVE",
"87 -11 OFFCURVE",
"184 -11 CURVE SMOOTH"
);
}
);
width = 445;
}
);
unicode = 0053;
},
{
glyphname = Sacute;
lastChange = "2016-07-29 05:48:38 +0000";
layers = (
{
layerId = "8C17F4AC-C384-4A1F-BD5F-821C12AF061A";
paths = (
{
closed = 1;
nodes = (
"308 -11 OFFCURVE",
"391 64 OFFCURVE",
"391 185 CURVE SMOOTH",
"391 255 OFFCURVE",
"332 310 OFFCURVE",
"272 361 CURVE SMOOTH",
"211 414 OFFCURVE",
"149 463 OFFCURVE",
"149 521 CURVE SMOOTH",
"149 577 OFFCURVE",
"184 609 OFFCURVE",
"265 609 CURVE SMOOTH",
"320 609 OFFCURVE",
"363 590 OFFCURVE",
"363 590 CURVE",
"371 486 LINE",
"415 486 LINE",
"432 636 LINE",
"400 648 OFFCURVE",
"340 660 OFFCURVE",
"280 660 CURVE SMOOTH",
"160 660 OFFCURVE",
"73 608 OFFCURVE",
"73 490 CURVE SMOOTH",
"73 413 OFFCURVE",
"145 356 OFFCURVE",
"210 302 CURVE SMOOTH",
"265 256 OFFCURVE",
"315 211 OFFCURVE",
"315 156 CURVE SMOOTH",
"315 86 OFFCURVE",
"276 40 OFFCURVE",
"171 40 CURVE SMOOTH",
"110 40 OFFCURVE",
"85 67 OFFCURVE",
"85 67 CURVE",
"74 178 LINE",
"25 178 LINE",
"9 37 LINE",
"29 17 OFFCURVE",
"99 -11 OFFCURVE",
"165 -11 CURVE SMOOTH"
);
},
{
closed = 1;
nodes = (
"354 734 LINE SMOOTH",
"386 747 OFFCURVE",
"404 760 OFFCURVE",
"404 785 CURVE SMOOTH",
"404 804 OFFCURVE",
"391 825 OFFCURVE",
"370 835 CURVE",
"202 715 LINE",
"224 680 LINE"
);
}
);
width = 450;
},
{
layerId = "4E675A61-A531-4354-B628-4B264391FE65";
paths = (
{
closed = 1;
nodes = (
"316 -11 OFFCURVE",
"412 69 OFFCURVE",
"412 197 CURVE SMOOTH",
"412 283 OFFCURVE",
"340 345 OFFCURVE",
"269 407 CURVE SMOOTH",
"188 477 OFFCURVE",
"169 501 OFFCURVE",
"169 531 CURVE SMOOTH",
"169 562 OFFCURVE",
"179 595 OFFCURVE",
"239 595 CURVE SMOOTH",
"293 595 OFFCURVE",
"334 578 OFFCURVE",
"351 567 CURVE",
"361 459 LINE",
"429 459 LINE",
"447 639 LINE",
"416 649 OFFCURVE",
"351 660 OFFCURVE",
"272 660 CURVE SMOOTH",
"128 660 OFFCURVE",
"54 580 OFFCURVE",
"54 479 CURVE SMOOTH",
"54 398 OFFCURVE",
"94 362 OFFCURVE",
"203 267 CURVE SMOOTH",
"293 189 OFFCURVE",
"296 171 OFFCURVE",
"296 124 CURVE SMOOTH",
"296 90 OFFCURVE",
"269 56 OFFCURVE",
"217 56 CURVE SMOOTH",
"133 56 OFFCURVE",
"96 92 OFFCURVE",
"96 92 CURVE",
"85 211 LINE",
"14 211 LINE",
"-5 33 LINE",
"16 19 OFFCURVE",
"87 -11 OFFCURVE",
"184 -11 CURVE SMOOTH"
);
},
{
closed = 1;
nodes = (
"369 729 LINE SMOOTH",
"408 742 OFFCURVE",
"414 757 OFFCURVE",
"414 775 CURVE SMOOTH",
"414 812 OFFCURVE",
"392 831 OFFCURVE",
"376 840 CURVE",
"188 722 LINE",
"212 674 LINE"
);
}
);
width = 445;
}
);
unicode = 015A;
},
{
glyphname = Scaron;
lastChange = "2016-07-29 04:55:44 +0000";
layers = (
{
layerId = "8C17F4AC-C384-4A1F-BD5F-821C12AF061A";
paths = (
{
closed = 1;
nodes = (
"308 -11 OFFCURVE",
"391 64 OFFCURVE",
"391 185 CURVE SMOOTH",
"391 261 OFFCURVE",
"321 319 OFFCURVE",
"256 375 CURVE SMOOTH",
"200 422 OFFCURVE",
"149 468 OFFCURVE",
"149 521 CURVE SMOOTH",
"149 577 OFFCURVE",
"184 609 OFFCURVE",
"265 609 CURVE SMOOTH",
"297 609 OFFCURVE",
"339 601 OFFCURVE",
"363 590 CURVE",
"371 486 LINE",
"415 486 LINE",
"432 636 LINE",
"400 648 OFFCURVE",
"340 660 OFFCURVE",
"280 660 CURVE SMOOTH",
"160 660 OFFCURVE",
"73 608 OFFCURVE",
"73 490 CURVE SMOOTH",
"73 416 OFFCURVE",
"139 361 OFFCURVE",
"202 308 CURVE SMOOTH",
"260 260 OFFCURVE",
"315 214 OFFCURVE",
"315 156 CURVE SMOOTH",
"315 86 OFFCURVE",
"276 40 OFFCURVE",
"171 40 CURVE SMOOTH",
"135 40 OFFCURVE",
"100 51 OFFCURVE",
"85 67 CURVE",
"74 178 LINE",
"25 178 LINE",
"9 37 LINE",
"29 17 OFFCURVE",
"99 -11 OFFCURVE",
"165 -11 CURVE SMOOTH"
);
},
{
closed = 1;
nodes = (
"301 690 OFFCURVE",
"317 697 OFFCURVE",
"368 745 CURVE SMOOTH",
"433 806 LINE",
"408 839 LINE",
"306 767 LINE",
"208 836 LINE",
"173 798 LINE",
"231 739 LINE SMOOTH",
"241 729 OFFCURVE",
"281 690 OFFCURVE",
"292 690 CURVE SMOOTH"
);
}
);
width = 451;
},
{
layerId = "4E675A61-A531-4354-B628-4B264391FE65";
paths = (
{
closed = 1;
nodes = (
"316 -11 OFFCURVE",
"412 69 OFFCURVE",
"412 197 CURVE SMOOTH",
"412 283 OFFCURVE",
"340 345 OFFCURVE",
"269 407 CURVE SMOOTH",
"188 477 OFFCURVE",
"169 501 OFFCURVE",
"169 531 CURVE SMOOTH",
"169 562 OFFCURVE",
"179 595 OFFCURVE",
"239 595 CURVE SMOOTH",
"281 595 OFFCURVE",
"327 584 OFFCURVE",
"351 567 CURVE",
"361 459 LINE",
"429 459 LINE",
"447 639 LINE",
"416 649 OFFCURVE",
"351 660 OFFCURVE",
"272 660 CURVE SMOOTH",
"128 660 OFFCURVE",
"54 580 OFFCURVE",
"54 479 CURVE SMOOTH",
"54 398 OFFCURVE",
"94 362 OFFCURVE",
"203 267 CURVE SMOOTH",
"293 189 OFFCURVE",
"296 171 OFFCURVE",
"296 124 CURVE SMOOTH",
"296 90 OFFCURVE",
"269 56 OFFCURVE",
"217 56 CURVE SMOOTH",
"169 56 OFFCURVE",
"118 71 OFFCURVE",
"96 92 CURVE",
"85 211 LINE",
"14 211 LINE",
"-5 33 LINE",
"16 19 OFFCURVE",
"87 -11 OFFCURVE",
"184 -11 CURVE SMOOTH"
);
},
{
closed = 1;
nodes = (
"288 674 OFFCURVE",
"311 694 OFFCURVE",
"348 724 CURVE SMOOTH",
"438 798 LINE",
"412 837 LINE",
"288 778 LINE",
"175 839 LINE",
"136 791 LINE",
"223 712 LINE SMOOTH",
"242 694 OFFCURVE",
"261 674 OFFCURVE",
"276 674 CURVE SMOOTH"
);
}
);
width = 445;
}
);
unicode = 0160;
},
{
glyphname = Scedilla;
lastChange = "2016-07-29 05:48:49 +0000";
layers = (
{
layerId = "8C17F4AC-C384-4A1F-BD5F-821C12AF061A";
paths = (
{
closed = 1;
nodes = (
"199 -187 OFFCURVE",
"260 -173 OFFCURVE",
"260 -98 CURVE SMOOTH",
"260 -76 OFFCURVE",
"246 -61 OFFCURVE",
"228 -50 CURVE SMOOTH",
"194 -29 LINE",
"194 -10 LINE",
"319 0 OFFCURVE",
"391 72 OFFCURVE",
"391 185 CURVE SMOOTH",
"391 252 OFFCURVE",
"338 305 OFFCURVE",
"282 354 CURVE SMOOTH",
"218 409 OFFCURVE",
"149 460 OFFCURVE",
"149 521 CURVE SMOOTH",
"149 577 OFFCURVE",
"184 609 OFFCURVE",
"265 609 CURVE SMOOTH",
"320 609 OFFCURVE",
"363 590 OFFCURVE",
"363 590 CURVE",
"371 486 LINE",
"415 486 LINE",
"432 636 LINE",
"400 648 OFFCURVE",
"340 660 OFFCURVE",
"280 660 CURVE SMOOTH",
"160 660 OFFCURVE",
"73 608 OFFCURVE",
"73 490 CURVE SMOOTH",
"73 410 OFFCURVE",
"151 351 OFFCURVE",
"219 294 CURVE SMOOTH",
"270 250 OFFCURVE",
"315 207 OFFCURVE",
"315 156 CURVE SMOOTH",
"315 86 OFFCURVE",
"276 40 OFFCURVE",
"171 40 CURVE SMOOTH",
"110 40 OFFCURVE",
"85 67 OFFCURVE",
"85 67 CURVE",
"74 178 LINE",
"25 178 LINE",
"9 37 LINE",
"27 19 OFFCURVE",
"85 -6 OFFCURVE",
"145 -10 CURVE",
"117 -49 LINE",
"117 -69 LINE",
"169 -96 LINE",
"181 -103 OFFCURVE",
"192 -111 OFFCURVE",
"192 -122 CURVE SMOOTH",
"192 -138 OFFCURVE",
"178 -145 OFFCURVE",
"148 -145 CURVE SMOOTH",
"115 -145 OFFCURVE",
"102 -138 OFFCURVE",
"88 -129 CURVE",
"68 -158 LINE",
"85 -171 OFFCURVE",
"113 -187 OFFCURVE",
"152 -187 CURVE SMOOTH"
);
}
);
width = 450;
},
{
layerId = "4E675A61-A531-4354-B628-4B264391FE65";
paths = (
{
closed = 1;
nodes = (
"238 -194 OFFCURVE",
"285 -168 OFFCURVE",
"285 -112 CURVE SMOOTH",
"285 -78 OFFCURVE",
"261 -61 OFFCURVE",
"233 -46 CURVE SMOOTH",
"199 -28 LINE",
"199 -10 LINE",
"323 -4 OFFCURVE",
"412 74 OFFCURVE",
"412 197 CURVE SMOOTH",
"412 284 OFFCURVE",
"340 345 OFFCURVE",
"269 407 CURVE SMOOTH",
"188 477 OFFCURVE",
"169 501 OFFCURVE",
"169 531 CURVE SMOOTH",
"169 562 OFFCURVE",
"179 595 OFFCURVE",
"239 595 CURVE SMOOTH",
"293 595 OFFCURVE",
"334 578 OFFCURVE",
"351 567 CURVE",
"361 459 LINE",
"429 459 LINE",
"447 639 LINE",
"416 649 OFFCURVE",
"351 660 OFFCURVE",
"272 660 CURVE SMOOTH",
"128 660 OFFCURVE",
"54 580 OFFCURVE",
"54 479 CURVE SMOOTH",
"54 398 OFFCURVE",
"94 362 OFFCURVE",
"203 267 CURVE SMOOTH",
"293 189 OFFCURVE",
"296 171 OFFCURVE",
"296 124 CURVE SMOOTH",
"296 90 OFFCURVE",
"269 56 OFFCURVE",
"217 56 CURVE SMOOTH",
"133 56 OFFCURVE",
"96 92 OFFCURVE",
"96 92 CURVE",
"85 211 LINE",
"14 211 LINE",
"-5 33 LINE",
"13 21 OFFCURVE",
"67 -2 OFFCURVE",
"144 -9 CURVE",
"118 -51 LINE",
"118 -76 LINE",
"165 -99 LINE SMOOTH",
"183 -108 OFFCURVE",
"188 -113 OFFCURVE",
"188 -122 CURVE SMOOTH",
"188 -130 OFFCURVE",
"182 -136 OFFCURVE",
"170 -136 CURVE SMOOTH",
"131 -136 OFFCURVE",
"113 -127 OFFCURVE",
"94 -120 CURVE",
"68 -167 LINE",
"96 -185 OFFCURVE",
"131 -194 OFFCURVE",
"185 -194 CURVE SMOOTH"
);
}
);
width = 445;
}
);
unicode = 015E;
},
{
glyphname = Scommaaccent;
lastChange = "2016-07-29 05:49:00 +0000";
layers = (
{
layerId = "8C17F4AC-C384-4A1F-BD5F-821C12AF061A";
paths = (
{
closed = 1;
nodes = (
"308 -11 OFFCURVE",
"391 64 OFFCURVE",
"391 185 CURVE SMOOTH",
"391 254 OFFCURVE",
"333 308 OFFCURVE",
"274 360 CURVE SMOOTH",
"212 413 OFFCURVE",
"149 462 OFFCURVE",
"149 521 CURVE SMOOTH",
"149 577 OFFCURVE",
"184 609 OFFCURVE",
"265 609 CURVE SMOOTH",
"320 609 OFFCURVE",
"363 590 OFFCURVE",
"363 590 CURVE",
"371 486 LINE",
"415 486 LINE",
"432 636 LINE",
"400 648 OFFCURVE",
"340 660 OFFCURVE",
"280 660 CURVE SMOOTH",
"160 660 OFFCURVE",
"73 608 OFFCURVE",
"73 490 CURVE SMOOTH",
"73 411 OFFCURVE",
"149 353 OFFCURVE",
"215 297 CURVE SMOOTH",
"268 253 OFFCURVE",
"315 209 OFFCURVE",
"315 156 CURVE SMOOTH",
"315 86 OFFCURVE",
"276 40 OFFCURVE",
"171 40 CURVE SMOOTH",
"110 40 OFFCURVE",
"85 67 OFFCURVE",
"85 67 CURVE",
"74 178 LINE",
"25 178 LINE",
"9 37 LINE",
"29 17 OFFCURVE",
"99 -11 OFFCURVE",
"165 -11 CURVE SMOOTH"
);
},
{
closed = 1;
nodes = (
"137 -194 OFFCURVE",
"212 -151 OFFCURVE",
"212 -91 CURVE SMOOTH",
"212 -49 OFFCURVE",
"188 -33 OFFCURVE",
"161 -33 CURVE SMOOTH",
"135 -33 OFFCURVE",
"122 -48 OFFCURVE",
"117 -56 CURVE",
"127 -65 OFFCURVE",
"141 -82 OFFCURVE",
"141 -113 CURVE SMOOTH",
"141 -151 OFFCURVE",
"104 -184 OFFCURVE",
"104 -184 CURVE",
"121 -201 LINE"
);
}
);
width = 450;
},
{
layerId = "4E675A61-A531-4354-B628-4B264391FE65";
paths = (
{
closed = 1;
nodes = (
"316 -11 OFFCURVE",
"412 69 OFFCURVE",
"412 197 CURVE SMOOTH",
"412 283 OFFCURVE",
"340 345 OFFCURVE",
"269 407 CURVE SMOOTH",
"188 477 OFFCURVE",
"169 501 OFFCURVE",
"169 531 CURVE SMOOTH",
"169 562 OFFCURVE",
"179 595 OFFCURVE",
"239 595 CURVE SMOOTH",
"293 595 OFFCURVE",
"334 578 OFFCURVE",
"351 567 CURVE",
"361 459 LINE",
"429 459 LINE",
"447 639 LINE",
"416 649 OFFCURVE",
"351 660 OFFCURVE",
"272 660 CURVE SMOOTH",
"128 660 OFFCURVE",
"54 580 OFFCURVE",
"54 479 CURVE SMOOTH",
"54 398 OFFCURVE",
"94 362 OFFCURVE",
"203 267 CURVE SMOOTH",
"293 189 OFFCURVE",
"296 171 OFFCURVE",
"296 124 CURVE SMOOTH",
"296 90 OFFCURVE",
"269 56 OFFCURVE",
"217 56 CURVE SMOOTH",
"133 56 OFFCURVE",
"96 92 OFFCURVE",
"96 92 CURVE",
"85 211 LINE",
"14 211 LINE",
"-5 33 LINE",
"16 19 OFFCURVE",
"87 -11 OFFCURVE",
"184 -11 CURVE SMOOTH"
);
},
{
closed = 1;
nodes = (
"127 -215 OFFCURVE",
"239 -172 OFFCURVE",
"239 -83 CURVE SMOOTH",
"239 -54 OFFCURVE",
"222 -24 OFFCURVE",
"177 -24 CURVE SMOOTH",
"151 -24 OFFCURVE",
"130 -40 OFFCURVE",
"120 -57 CURVE",
"120 -57 OFFCURVE",
"139 -77 OFFCURVE",
"139 -105 CURVE SMOOTH",
"139 -152 OFFCURVE",
"103 -186 OFFCURVE",
"103 -186 CURVE",
"127 -215 LINE"
);
}
);
width = 445;
}
);
unicode = 0218;
},
{
color = 6;
glyphname = Germandbls;
lastChange = "2016-07-29 05:49:39 +0000";
layers = (
{
anchors = (
{
name = bottom;
position = "{322, 0}";
},
{
name = top;
position = "{413, 648}";
}
);
background = {
paths = (
{
closed = 1;
nodes = (
"546 -11 OFFCURVE",
"629 64 OFFCURVE",
"629 185 CURVE SMOOTH",
"629 326 OFFCURVE",
"387 406 OFFCURVE",
"387 521 CURVE SMOOTH",
"387 577 OFFCURVE",
"422 609 OFFCURVE",
"503 609 CURVE SMOOTH",
"558 609 OFFCURVE",
"601 590 OFFCURVE",
"601 590 CURVE",
"609 486 LINE",
"653 486 LINE",
"670 636 LINE",
"638 648 OFFCURVE",
"578 660 OFFCURVE",
"518 660 CURVE SMOOTH",
"398 660 OFFCURVE",
"311 608 OFFCURVE",
"311 490 CURVE SMOOTH",
"311 348 OFFCURVE",
"553 277 OFFCURVE",
"553 156 CURVE SMOOTH",
"553 86 OFFCURVE",
"514 40 OFFCURVE",
"409 40 CURVE SMOOTH",
"348 40 OFFCURVE",
"323 67 OFFCURVE",
"323 67 CURVE",
"312 178 LINE",
"263 178 LINE",
"247 37 LINE",
"267 17 OFFCURVE",
"337 -11 OFFCURVE",
"403 -11 CURVE SMOOTH"
);
}
);
};
layerId = "8C17F4AC-C384-4A1F-BD5F-821C12AF061A";
paths = (
{
closed = 1;
nodes = (
"538 -11 OFFCURVE",
"616 59 OFFCURVE",
"616 172 CURVE SMOOTH",
"616 274 OFFCURVE",
"537 321 OFFCURVE",
"439 336 CURVE",
"436 343 LINE",
"624 598 LINE",
"598 642 LINE",
"552 651 OFFCURVE",
"466 660 OFFCURVE",
"412 660 CURVE SMOOTH",
"220 660 OFFCURVE",
"113 528 OFFCURVE",
"88 342 CURVE SMOOTH",
"48 51 LINE",
"-23 37 LINE",
"-27 0 LINE",
"192 0 LINE",
"195 37 LINE",
"127 51 LINE",
"171 370 LINE SMOOTH",
"190 510 OFFCURVE",
"235 601 OFFCURVE",
"392 601 CURVE SMOOTH",
"430 601 OFFCURVE",
"470 596 OFFCURVE",
"504 589 CURVE",
"513 572 LINE",
"332 330 LINE",
"349 286 LINE",
"455 277 OFFCURVE",
"540 233 OFFCURVE",
"540 143 CURVE SMOOTH",
"540 81 OFFCURVE",
"505 40 OFFCURVE",
"409 40 CURVE SMOOTH",
"369 40 OFFCURVE",
"336 53 OFFCURVE",
"323 67 CURVE",
"312 178 LINE",
"263 178 LINE",
"247 37 LINE",
"267 17 OFFCURVE",
"337 -11 OFFCURVE",
"403 -11 CURVE SMOOTH"
);
}
);
width = 677;
},
{
anchors = (
{
name = bottom;
position = "{316, 0}";
},
{
name = top;
position = "{407, 648}";
}
);
background = {
paths = (
{
closed = 1;
nodes = (
"249 33 LINE",
"270 19 OFFCURVE",
"341 -11 OFFCURVE",
"438 -11 CURVE SMOOTH",
"570 -11 OFFCURVE",
"666 69 OFFCURVE",
"666 197 CURVE SMOOTH",
"666 283 OFFCURVE",
"594 345 OFFCURVE",
"523 407 CURVE SMOOTH",
"442 477 OFFCURVE",
"423 501 OFFCURVE",
"423 531 CURVE SMOOTH",
"423 562 OFFCURVE",
"433 595 OFFCURVE",
"493 595 CURVE SMOOTH",
"547 595 OFFCURVE",
"588 578 OFFCURVE",
"605 567 CURVE",
"615 459 LINE",
"683 459 LINE",
"701 639 LINE",
"670 649 OFFCURVE",
"605 660 OFFCURVE",
"526 660 CURVE SMOOTH",
"382 660 OFFCURVE",
"308 580 OFFCURVE",
"308 479 CURVE SMOOTH",
"308 398 OFFCURVE",
"348 362 OFFCURVE",
"457 267 CURVE SMOOTH",
"547 189 OFFCURVE",
"550 171 OFFCURVE",
"550 124 CURVE SMOOTH",
"550 90 OFFCURVE",
"523 56 OFFCURVE",
"471 56 CURVE SMOOTH",
"387 56 OFFCURVE",
"350 92 OFFCURVE",
"350 92 CURVE",
"339 211 LINE",
"268 211 LINE"
);
}
);
};
guideLines = (
{
position = "{94, 72}";
}
);
layerId = "4E675A61-A531-4354-B628-4B264391FE65";
paths = (
{
closed = 1;
nodes = (
"563 -11 OFFCURVE",
"656 78 OFFCURVE",
"656 187 CURVE SMOOTH",
"656 257 OFFCURVE",
"620 316 OFFCURVE",
"519 340 CURVE",
"515 348 LINE",
"687 574 LINE",
"641 646 LINE",
"593 655 OFFCURVE",
"506 666 OFFCURVE",
"446 666 CURVE SMOOTH",
"244 666 OFFCURVE",
"110 543 OFFCURVE",
"82 343 CURVE SMOOTH",
"44 72 LINE",
"-27 58 LINE",
"-35 0 LINE",
"168 0 LINE",
"176 58 LINE",
"178 72 LINE",
"218 369 LINE SMOOTH",
"238 515 OFFCURVE",
"281 592 OFFCURVE",
"413 592 CURVE SMOOTH",
"450 592 OFFCURVE",
"485 586 OFFCURVE",
"515 578 CURVE",
"523 564 LINE",
"353 340 LINE",
"381 271 LINE",
"526 266 OFFCURVE",
"540 197 OFFCURVE",
"540 158 CURVE SMOOTH",
"540 95 OFFCURVE",
"511 56 OFFCURVE",
"446 56 CURVE SMOOTH",
"410 56 OFFCURVE",
"365 73 OFFCURVE",
"350 92 CURVE",
"339 211 LINE",
"268 211 LINE",
"249 33 LINE",
"267 19 OFFCURVE",
"335 -11 OFFCURVE",
"414 -11 CURVE SMOOTH"
);
}
);
width = 690;
}
);
leftMetricsKey = "=U";
rightMetricsKey = "=S";
unicode = 1E9E;
},
{
color = 6;
glyphname = Schwa;
lastChange = "2016-07-29 05:49:52 +0000";
layers = (
{
anchors = (
{
name = bottom;
position = "{290, 0}";
},
{
name = center;
position = "{324, 324}";
},
{
name = top;
position = "{369, 648}";
},
{
name = topright;
position = "{686, 648}";
}
);
background = {
components = (
{
name = O;
}
);
};
layerId = "8C17F4AC-C384-4A1F-BD5F-821C12AF061A";
paths = (
{
closed = 1;
nodes = (
"474 -11 OFFCURVE",
"572 192 OFFCURVE",
"572 402 CURVE SMOOTH",
"572 565 OFFCURVE",
"485 660 OFFCURVE",
"318 660 CURVE SMOOTH",
"229 660 OFFCURVE",
"163 635 OFFCURVE",
"127 618 CURVE",
"113 482 LINE",
"155 482 LINE",
"186 579 LINE",
"186 579 OFFCURVE",
"226 609 OFFCURVE",
"300 609 CURVE SMOOTH",
"433 609 OFFCURVE",
"481 545 OFFCURVE",
"481 392 CURVE SMOOTH",
"481 381 OFFCURVE",
"481 371 OFFCURVE",
"481 360 CURVE",
"55 360 LINE",
"48 324 OFFCURVE",
"44 286 OFFCURVE",
"44 248 CURVE SMOOTH",
"44 87 OFFCURVE",
"120 -11 OFFCURVE",
"258 -11 CURVE SMOOTH"
);
},
{
closed = 1;
nodes = (
"167 40 OFFCURVE",
"132 112 OFFCURVE",
"132 273 CURVE SMOOTH",
"132 284 OFFCURVE",
"132 295 OFFCURVE",
"133 305 CURVE",
"477 305 LINE",
"464 146 OFFCURVE",
"410 40 OFFCURVE",
"286 40 CURVE SMOOTH"
);
}
);
width = 616;
},
{
anchors = (
{
name = bottom;
position = "{293, 0}";
},
{
name = center;
position = "{327, 324}";
},
{
name = top;
position = "{362, 648}";
},
{
name = topright;
position = "{691, 648}";
}
);
background = {
components = (
{
name = O;
}
);
paths = (
{
closed = 1;
nodes = (
"445 328 LINE",
"435 146 OFFCURVE",
"375 54 OFFCURVE",
"280 54 CURVE",
"252 -11 LINE",
"456 -11 OFFCURVE",
"572 150 OFFCURVE",
"592 333 CURVE"
);
}
);
};
layerId = "4E675A61-A531-4354-B628-4B264391FE65";
paths = (
{
closed = 1;
nodes = (
"483 -11 OFFCURVE",
"595 161 OFFCURVE",
"595 388 CURVE SMOOTH",
"595 566 OFFCURVE",
"505 660 OFFCURVE",
"318 660 CURVE SMOOTH",
"248 660 OFFCURVE",
"167 647 OFFCURVE",
"101 623 CURVE",
"85 443 LINE",
"154 443 LINE",
"187 567 LINE",
"211 584 OFFCURVE",
"247 593 OFFCURVE",
"296 593 CURVE SMOOTH",
"411 593 OFFCURVE",
"444 544 OFFCURVE",
"446 395 CURVE SMOOTH",
"446 384 OFFCURVE",
"446 373 OFFCURVE",
"445 362 CURVE",
"40 362 LINE",
"34 327 OFFCURVE",
"30 288 OFFCURVE",
"30 247 CURVE SMOOTH",
"30 73 OFFCURVE",
"139 -11 OFFCURVE",
"268 -11 CURVE SMOOTH"
);
},
{
closed = 1;
nodes = (
"227 55 OFFCURVE",
"179 93 OFFCURVE",
"179 239 CURVE SMOOTH",
"179 259 OFFCURVE",
"179 277 OFFCURVE",
"180 295 CURVE",
"442 295 LINE",
"429 124 OFFCURVE",
"381 55 OFFCURVE",
"288 55 CURVE SMOOTH"
);
}
);
width = 626;
}
);
rightMetricsKey = "=O";
unicode = 018F;
},
{
glyphname = T;
lastChange = "2015-02-26 23:17:58 +0000";
layers = (
{
anchors = (
{
name = bottom;
position = "{201, 0}";
},
{
name = center;
position = "{260, 324}";
},
{
name = top;
position = "{292, 648}";
}
);
layerId = "8C17F4AC-C384-4A1F-BD5F-821C12AF061A";
paths = (
{
closed = 1;
nodes = (
"90 0 LINE",
"309 0 LINE",
"312 37 LINE",
"244 51 LINE",
"321 597 LINE",
"442 597 LINE",
"435 484 LINE",
"487 484 LINE",
"515 648 LINE",
"53 648 LINE",
"34 484 LINE",
"79 484 LINE",
"116 597 LINE",
"242 597 LINE",
"165 51 LINE",
"94 37 LINE"
);
}
);
width = 472;
},
{
anchors = (
{
name = bottom;
position = "{220, 0}";
},
{
name = center;
position = "{279, 324}";
},
{
name = top;
position = "{311, 648}";
}
);
layerId = "4E675A61-A531-4354-B628-4B264391FE65";
paths = (
{
closed = 1;
nodes = (
"83 0 LINE",
"358 0 LINE",
"366 58 LINE",
"296 72 LINE",
"366 579 LINE",
"467 579 LINE",
"467 464 LINE",
"533 464 LINE",
"561 648 LINE",
"46 648 LINE",
"26 464 LINE",
"92 464 LINE",
"129 579 LINE",
"234 579 LINE",
"162 72 LINE",
"91 58 LINE"
);
}
);
width = 510;
}
);
unicode = 0054;
},
{
color = 6;
glyphname = Tbar;
lastChange = "2015-03-01 00:29:28 +0000";
layers = (
{
components = (
{
name = T;
}
);
layerId = "8C17F4AC-C384-4A1F-BD5F-821C12AF061A";
paths = (
{
closed = 1;
nodes = (
"455 311 LINE",
"463 363 LINE",
"43 363 LINE",
"35 311 LINE"
);
}
);
width = 472;
},
{
components = (
{
name = T;
}
);
layerId = "4E675A61-A531-4354-B628-4B264391FE65";
paths = (
{
closed = 1;
nodes = (
"497 299 LINE",
"507 366 LINE",
"37 366 LINE",
"27 299 LINE"
);
}
);
width = 510;
}
);
unicode = 0166;
},
{
glyphname = Tcaron;
lastChange = "2016-07-28 05:34:45 +0000";
layers = (
{
layerId = "8C17F4AC-C384-4A1F-BD5F-821C12AF061A";
paths = (
{
closed = 1;
nodes = (
"309 0 LINE",
"312 37 LINE",
"244 51 LINE",
"321 597 LINE",
"442 597 LINE",
"435 484 LINE",
"487 484 LINE",
"515 648 LINE",
"53 648 LINE",
"34 484 LINE",
"79 484 LINE",
"116 597 LINE",
"242 597 LINE",
"165 51 LINE",
"94 37 LINE",
"90 0 LINE"
);
},
{
closed = 1;
nodes = (
"301 689 OFFCURVE",
"317 696 OFFCURVE",
"368 744 CURVE SMOOTH",
"433 805 LINE",
"408 838 LINE",
"306 766 LINE",
"208 835 LINE",
"173 797 LINE",
"231 738 LINE SMOOTH",
"241 728 OFFCURVE",
"281 689 OFFCURVE",
"292 689 CURVE SMOOTH"
);
}
);
width = 472;
},
{
layerId = "4E675A61-A531-4354-B628-4B264391FE65";
paths = (
{
closed = 1;
nodes = (
"354 0 LINE",
"362 58 LINE",
"292 72 LINE",
"362 579 LINE",
"463 579 LINE",
"463 464 LINE",
"529 464 LINE",
"557 648 LINE",
"42 648 LINE",
"22 464 LINE",
"88 464 LINE",
"125 579 LINE",
"230 579 LINE",
"158 72 LINE",
"87 58 LINE",
"79 0 LINE"
);
},
{
closed = 1;
nodes = (
"320 674 OFFCURVE",
"343 694 OFFCURVE",
"380 724 CURVE SMOOTH",
"470 798 LINE",
"444 837 LINE",
"320 778 LINE",
"207 839 LINE",
"168 791 LINE",
"255 712 LINE SMOOTH",
"274 694 OFFCURVE",
"293 674 OFFCURVE",
"308 674 CURVE SMOOTH"
);
}
);
width = 510;
}
);
unicode = 0164;
},
{
glyphname = Tcedilla;
lastChange = "2015-02-28 02:29:49 +0000";
layers = (
{
layerId = "8C17F4AC-C384-4A1F-BD5F-821C12AF061A";
paths = (
{
closed = 1;
nodes = (
"89 -158 LINE",
"106 -171 OFFCURVE",
"134 -187 OFFCURVE",
"173 -187 CURVE SMOOTH",
"220 -187 OFFCURVE",
"281 -173 OFFCURVE",
"281 -98 CURVE SMOOTH",
"281 -76 OFFCURVE",
"267 -61 OFFCURVE",
"249 -50 CURVE SMOOTH",
"215 -29 LINE",
"215 0 LINE",
"309 0 LINE",
"312 37 LINE",
"244 51 LINE",
"321 597 LINE",
"442 597 LINE",
"435 484 LINE",
"487 484 LINE",
"515 648 LINE",
"53 648 LINE",
"34 484 LINE",
"79 484 LINE",
"116 597 LINE",
"242 597 LINE",
"165 51 LINE",
"94 37 LINE",
"90 0 LINE",
"174 0 LINE",
"138 -49 LINE",
"138 -69 LINE",
"190 -96 LINE",
"202 -103 OFFCURVE",
"213 -111 OFFCURVE",
"213 -122 CURVE SMOOTH",
"213 -138 OFFCURVE",
"199 -145 OFFCURVE",
"169 -145 CURVE SMOOTH",
"136 -145 OFFCURVE",
"123 -138 OFFCURVE",
"109 -129 CURVE"
);
}
);
width = 472;
},
{
layerId = "4E675A61-A531-4354-B628-4B264391FE65";
paths = (
{
closed = 1;
nodes = (
"106 -167 LINE",
"134 -185 OFFCURVE",
"169 -194 OFFCURVE",
"223 -194 CURVE SMOOTH",
"276 -194 OFFCURVE",
"323 -168 OFFCURVE",
"323 -112 CURVE SMOOTH",
"323 -78 OFFCURVE",
"299 -61 OFFCURVE",
"271 -46 CURVE SMOOTH",
"237 -28 LINE",
"237 0 LINE",
"354 0 LINE",
"362 58 LINE",
"292 72 LINE",
"362 579 LINE",
"463 579 LINE",
"463 464 LINE",
"529 464 LINE",
"557 648 LINE",
"42 648 LINE",
"22 464 LINE",
"88 464 LINE",
"125 579 LINE",
"230 579 LINE",
"158 72 LINE",
"87 58 LINE",
"79 0 LINE",
"188 0 LINE",
"156 -51 LINE",
"156 -76 LINE",
"203 -99 LINE SMOOTH",
"221 -108 OFFCURVE",
"226 -113 OFFCURVE",
"226 -122 CURVE SMOOTH",
"226 -130 OFFCURVE",
"220 -136 OFFCURVE",
"208 -136 CURVE SMOOTH",
"169 -136 OFFCURVE",
"151 -127 OFFCURVE",
"132 -120 CURVE"
);
}
);
width = 510;
}
);
unicode = 0162;
},
{
glyphname = Tcommaaccent;
lastChange = "2015-02-26 23:16:37 +0000";
layers = (
{
layerId = "8C17F4AC-C384-4A1F-BD5F-821C12AF061A";
paths = (
{
closed = 1;
nodes = (
"90 0 LINE",
"309 0 LINE",
"312 37 LINE",
"244 51 LINE",
"321 597 LINE",
"442 597 LINE",
"435 484 LINE",
"487 484 LINE",
"515 648 LINE",
"53 648 LINE",
"34 484 LINE",
"79 484 LINE",
"116 597 LINE",
"242 597 LINE",
"165 51 LINE",
"94 37 LINE"
);
},
{
closed = 1;
nodes = (
"144 -201 LINE",
"160 -194 OFFCURVE",
"235 -151 OFFCURVE",
"235 -91 CURVE SMOOTH",
"235 -49 OFFCURVE",
"211 -33 OFFCURVE",
"184 -33 CURVE SMOOTH",
"158 -33 OFFCURVE",
"145 -48 OFFCURVE",
"140 -56 CURVE",
"150 -65 OFFCURVE",
"164 -82 OFFCURVE",
"164 -113 CURVE SMOOTH",
"164 -151 OFFCURVE",
"127 -184 OFFCURVE",
"127 -184 CURVE"
);
}
);
width = 472;
},
{
layerId = "4E675A61-A531-4354-B628-4B264391FE65";
paths = (
{
closed = 1;
nodes = (
"79 0 LINE",
"354 0 LINE",
"362 58 LINE",
"292 72 LINE",
"362 579 LINE",
"463 579 LINE",
"463 464 LINE",
"529 464 LINE",
"557 648 LINE",
"42 648 LINE",
"22 464 LINE",
"88 464 LINE",
"125 579 LINE",
"230 579 LINE",
"158 72 LINE",
"87 58 LINE"
);
},
{
closed = 1;
nodes = (
"158 -215 LINE",
"158 -215 OFFCURVE",
"270 -172 OFFCURVE",
"270 -83 CURVE SMOOTH",
"270 -54 OFFCURVE",
"253 -24 OFFCURVE",
"208 -24 CURVE SMOOTH",
"182 -24 OFFCURVE",
"161 -40 OFFCURVE",
"151 -57 CURVE",
"151 -57 OFFCURVE",
"170 -77 OFFCURVE",
"170 -105 CURVE SMOOTH",
"170 -152 OFFCURVE",
"134 -186 OFFCURVE",
"134 -186 CURVE"
);
}
);
width = 510;
}
);
unicode = 021A;
},
{
glyphname = U;
lastChange = "2015-03-02 04:17:53 +0000";
layers = (
{
anchors = (
{
name = bottom;
position = "{274, 0}";
},
{
name = ogonek;
position = "{385, 10}";
},
{
name = top;
position = "{365, 648}";
},
{
name = topright;
position = "{664, 658}";
}
);
layerId = "8C17F4AC-C384-4A1F-BD5F-821C12AF061A";
paths = (
{
closed = 1;
nodes = (
"81 279 LINE SMOOTH",
"75 238 OFFCURVE",
"72 199 OFFCURVE",
"72 166 CURVE SMOOTH",
"72 58 OFFCURVE",
"131 -11 OFFCURVE",
"253 -11 CURVE SMOOTH",
"439 -11 OFFCURVE",
"502 89 OFFCURVE",
"528 279 CURVE SMOOTH",
"571 596 LINE",
"644 611 LINE",
"648 648 LINE",
"447 648 LINE",
"443 611 LINE",
"510 596 LINE",
"466 278 LINE SMOOTH",
"446 132 OFFCURVE",
"405 46 OFFCURVE",
"294 46 CURVE SMOOTH",
"180 46 OFFCURVE",
"153 89 OFFCURVE",
"153 182 CURVE SMOOTH",
"153 208 OFFCURVE",
"155 240 OFFCURVE",
"160 278 CURVE SMOOTH",
"205 597 LINE",
"278 611 LINE",
"282 648 LINE",
"63 648 LINE",
"59 611 LINE",
"126 597 LINE"
);
}
);
width = 618;
},
{
anchors = (
{
name = bottom;
position = "{285, 0}";
},
{
name = ogonek;
position = "{422, 10}";
},
{
name = top;
position = "{376, 648}";
},
{
name = topright;
position = "{686, 648}";
}
);
layerId = "4E675A61-A531-4354-B628-4B264391FE65";
paths = (
{
closed = 1;
nodes = (
"76 274 LINE SMOOTH",
"70 232 OFFCURVE",
"67 195 OFFCURVE",
"67 163 CURVE SMOOTH",
"67 71 OFFCURVE",
"107 -11 OFFCURVE",
"280 -11 CURVE SMOOTH",
"463 -11 OFFCURVE",
"524 70 OFFCURVE",
"553 278 CURVE SMOOTH",
"594 576 LINE",
"665 590 LINE",
"672 648 LINE",
"445 648 LINE",
"438 590 LINE",
"508 576 LINE",
"465 278 LINE SMOOTH",
"439 100 OFFCURVE",
"398 54 OFFCURVE",
"302 54 CURVE SMOOTH",
"213 54 OFFCURVE",
"197 107 OFFCURVE",
"197 165 CURVE SMOOTH",
"197 183 OFFCURVE",
"202 232 OFFCURVE",
"209 278 CURVE SMOOTH",
"252 576 LINE",
"323 590 LINE",
"331 648 LINE",
"56 648 LINE",
"48 590 LINE",
"118 576 LINE"
);
}
);
width = 640;
}
);
unicode = 0055;
},
{
glyphname = Uacute;
lastChange = "2016-07-28 05:34:45 +0000";
layers = (
{
layerId = "8C17F4AC-C384-4A1F-BD5F-821C12AF061A";
paths = (
{
closed = 1;
nodes = (
"439 -11 OFFCURVE",
"502 89 OFFCURVE",
"528 279 CURVE SMOOTH",
"571 596 LINE",
"644 611 LINE",
"648 648 LINE",
"447 648 LINE",
"443 611 LINE",
"510 596 LINE",
"466 278 LINE SMOOTH",
"446 132 OFFCURVE",
"405 46 OFFCURVE",
"294 46 CURVE SMOOTH",
"180 46 OFFCURVE",
"153 89 OFFCURVE",
"153 182 CURVE SMOOTH",
"153 208 OFFCURVE",
"155 240 OFFCURVE",
"160 278 CURVE SMOOTH",
"205 597 LINE",
"278 611 LINE",
"282 648 LINE",
"63 648 LINE",
"59 611 LINE",
"126 597 LINE",
"81 279 LINE SMOOTH",
"75 238 OFFCURVE",
"72 199 OFFCURVE",
"72 166 CURVE SMOOTH",
"72 58 OFFCURVE",
"131 -11 OFFCURVE",
"253 -11 CURVE SMOOTH"
);
},
{
closed = 1;
nodes = (
"438 745 LINE SMOOTH",
"470 758 OFFCURVE",
"488 771 OFFCURVE",
"488 796 CURVE SMOOTH",
"488 815 OFFCURVE",
"475 836 OFFCURVE",
"454 846 CURVE",
"286 726 LINE",
"308 691 LINE"
);
}
);
width = 610;
},
{
layerId = "4E675A61-A531-4354-B628-4B264391FE65";
paths = (
{
closed = 1;
nodes = (
"463 -11 OFFCURVE",
"524 70 OFFCURVE",
"553 278 CURVE SMOOTH",
"594 576 LINE",
"665 590 LINE",
"672 648 LINE",
"445 648 LINE",
"438 590 LINE",
"508 576 LINE",
"465 278 LINE SMOOTH",
"439 100 OFFCURVE",
"398 54 OFFCURVE",
"302 54 CURVE SMOOTH",
"213 54 OFFCURVE",
"197 107 OFFCURVE",
"197 165 CURVE SMOOTH",
"197 183 OFFCURVE",
"202 232 OFFCURVE",
"209 278 CURVE SMOOTH",
"252 576 LINE",
"323 590 LINE",
"331 648 LINE",
"56 648 LINE",
"48 590 LINE",
"118 576 LINE",
"76 274 LINE SMOOTH",
"70 232 OFFCURVE",
"67 195 OFFCURVE",
"67 163 CURVE SMOOTH",
"67 71 OFFCURVE",
"107 -11 OFFCURVE",
"280 -11 CURVE SMOOTH"
);
},
{
closed = 1;
nodes = (
"479 729 LINE SMOOTH",
"518 742 OFFCURVE",
"524 757 OFFCURVE",
"524 775 CURVE SMOOTH",
"524 812 OFFCURVE",
"502 831 OFFCURVE",
"486 840 CURVE",
"298 722 LINE",
"322 674 LINE"
);
}
);
width = 640;
}
);
unicode = 00DA;
},
{
glyphname = Ucircumflex;
lastChange = "2015-02-26 23:15:43 +0000";
layers = (
{
layerId = "8C17F4AC-C384-4A1F-BD5F-821C12AF061A";
paths = (
{
closed = 1;
nodes = (
"81 279 LINE SMOOTH",
"75 238 OFFCURVE",
"72 199 OFFCURVE",
"72 166 CURVE SMOOTH",
"72 58 OFFCURVE",
"131 -11 OFFCURVE",
"253 -11 CURVE SMOOTH",
"439 -11 OFFCURVE",
"502 89 OFFCURVE",
"528 279 CURVE SMOOTH",
"571 596 LINE",
"644 611 LINE",
"648 648 LINE",
"447 648 LINE",
"443 611 LINE",
"510 596 LINE",
"466 278 LINE SMOOTH",
"446 132 OFFCURVE",
"405 46 OFFCURVE",
"294 46 CURVE SMOOTH",
"180 46 OFFCURVE",
"153 89 OFFCURVE",
"153 182 CURVE SMOOTH",
"153 208 OFFCURVE",
"155 240 OFFCURVE",
"160 278 CURVE SMOOTH",
"205 597 LINE",
"278 611 LINE",
"282 648 LINE",
"63 648 LINE",
"59 611 LINE",
"126 597 LINE"
);
},
{
closed = 1;
nodes = (
"254 705 LINE",
"362 766 LINE",
"468 699 LINE",
"501 740 LINE",
"441 795 LINE",
"430 804 OFFCURVE",
"386 843 OFFCURVE",
"376 844 CURVE",
"367 844 OFFCURVE",
"356 833 OFFCURVE",
"300 791 CURVE SMOOTH",
"229 738 LINE"
);
}
);
width = 610;
},
{
layerId = "4E675A61-A531-4354-B628-4B264391FE65";
paths = (
{
closed = 1;
nodes = (
"76 274 LINE SMOOTH",
"70 232 OFFCURVE",
"67 195 OFFCURVE",
"67 163 CURVE SMOOTH",
"67 71 OFFCURVE",
"107 -11 OFFCURVE",
"280 -11 CURVE SMOOTH",
"463 -11 OFFCURVE",
"524 70 OFFCURVE",
"553 278 CURVE SMOOTH",
"594 576 LINE",
"665 590 LINE",
"672 648 LINE",
"445 648 LINE",
"438 590 LINE",
"508 576 LINE",
"465 278 LINE SMOOTH",
"439 100 OFFCURVE",
"398 54 OFFCURVE",
"302 54 CURVE SMOOTH",
"213 54 OFFCURVE",
"197 107 OFFCURVE",
"197 165 CURVE SMOOTH",
"197 183 OFFCURVE",
"202 232 OFFCURVE",
"209 278 CURVE SMOOTH",
"252 576 LINE",
"323 590 LINE",
"331 648 LINE",
"56 648 LINE",
"48 590 LINE",
"118 576 LINE"
);
},
{
closed = 1;
nodes = (
"271 676 LINE",
"395 735 LINE",
"508 674 LINE",
"547 722 LINE",
"460 801 LINE SMOOTH",
"441 818 OFFCURVE",
"422 839 OFFCURVE",
"407 839 CURVE SMOOTH",
"395 839 OFFCURVE",
"372 819 OFFCURVE",
"335 789 CURVE SMOOTH",
"245 715 LINE"
);
}
);
width = 640;
}
);
unicode = 00DB;
},
{
glyphname = Udieresis;
lastChange = "2015-02-26 23:15:43 +0000";
layers = (
{
layerId = "8C17F4AC-C384-4A1F-BD5F-821C12AF061A";
paths = (
{
closed = 1;
nodes = (
"81 279 LINE SMOOTH",
"75 238 OFFCURVE",
"72 199 OFFCURVE",
"72 166 CURVE SMOOTH",
"72 58 OFFCURVE",
"131 -11 OFFCURVE",
"253 -11 CURVE SMOOTH",
"439 -11 OFFCURVE",
"502 89 OFFCURVE",
"528 279 CURVE SMOOTH",
"571 596 LINE",
"644 611 LINE",
"648 648 LINE",
"447 648 LINE",
"443 611 LINE",
"510 596 LINE",
"466 278 LINE SMOOTH",
"446 132 OFFCURVE",
"405 46 OFFCURVE",
"294 46 CURVE SMOOTH",
"180 46 OFFCURVE",
"153 89 OFFCURVE",
"153 182 CURVE SMOOTH",
"153 208 OFFCURVE",
"155 240 OFFCURVE",
"160 278 CURVE SMOOTH",
"205 597 LINE",
"278 611 LINE",
"282 648 LINE",
"63 648 LINE",
"59 611 LINE",
"126 597 LINE"
);
},
{
closed = 1;
nodes = (
"301 703 OFFCURVE",
"321 732 OFFCURVE",
"321 765 CURVE SMOOTH",
"321 798 OFFCURVE",
"301 819 OFFCURVE",
"270 819 CURVE SMOOTH",
"237 819 OFFCURVE",
"215 791 OFFCURVE",
"215 759 CURVE SMOOTH",
"215 726 OFFCURVE",
"235 703 OFFCURVE",
"266 703 CURVE SMOOTH"
);
},
{
closed = 1;
nodes = (
"512 703 OFFCURVE",
"532 732 OFFCURVE",
"532 765 CURVE SMOOTH",
"532 798 OFFCURVE",
"512 819 OFFCURVE",
"481 819 CURVE SMOOTH",
"448 819 OFFCURVE",
"426 791 OFFCURVE",
"426 759 CURVE SMOOTH",
"426 726 OFFCURVE",
"446 703 OFFCURVE",
"477 703 CURVE SMOOTH"
);
}
);
width = 610;
},
{
layerId = "4E675A61-A531-4354-B628-4B264391FE65";
paths = (
{
closed = 1;
nodes = (
"76 274 LINE SMOOTH",
"70 232 OFFCURVE",
"67 195 OFFCURVE",
"67 163 CURVE SMOOTH",
"67 71 OFFCURVE",
"107 -11 OFFCURVE",
"280 -11 CURVE SMOOTH",
"463 -11 OFFCURVE",
"524 70 OFFCURVE",
"553 278 CURVE SMOOTH",
"594 576 LINE",
"665 590 LINE",
"672 648 LINE",
"445 648 LINE",
"438 590 LINE",
"508 576 LINE",
"465 278 LINE SMOOTH",
"439 100 OFFCURVE",
"398 54 OFFCURVE",
"302 54 CURVE SMOOTH",
"213 54 OFFCURVE",
"197 107 OFFCURVE",
"197 165 CURVE SMOOTH",
"197 183 OFFCURVE",
"202 232 OFFCURVE",
"209 278 CURVE SMOOTH",
"252 576 LINE",
"323 590 LINE",
"331 648 LINE",
"56 648 LINE",
"48 590 LINE",
"118 576 LINE"
);
},
{
closed = 1;
nodes = (
"331 687 OFFCURVE",
"356 727 OFFCURVE",
"356 766 CURVE SMOOTH",
"356 806 OFFCURVE",
"329 832 OFFCURVE",
"293 832 CURVE SMOOTH",
"243 832 OFFCURVE",
"219 789 OFFCURVE",
"219 751 CURVE SMOOTH",
"219 716 OFFCURVE",
"244 687 OFFCURVE",
"281 687 CURVE SMOOTH"
);
},
{
closed = 1;
nodes = (
"554 687 OFFCURVE",
"579 727 OFFCURVE",
"579 766 CURVE SMOOTH",
"579 806 OFFCURVE",
"552 832 OFFCURVE",
"516 832 CURVE SMOOTH",
"466 832 OFFCURVE",
"442 789 OFFCURVE",
"442 751 CURVE SMOOTH",
"442 716 OFFCURVE",
"467 687 OFFCURVE",
"504 687 CURVE SMOOTH"
);
}
);
width = 640;
}
);
unicode = 00DC;
},
{
glyphname = Ugrave;
lastChange = "2015-02-26 23:15:43 +0000";
layers = (
{
layerId = "8C17F4AC-C384-4A1F-BD5F-821C12AF061A";
paths = (
{
closed = 1;
nodes = (
"81 279 LINE SMOOTH",
"75 238 OFFCURVE",
"72 199 OFFCURVE",
"72 166 CURVE SMOOTH",
"72 58 OFFCURVE",
"131 -11 OFFCURVE",
"253 -11 CURVE SMOOTH",
"439 -11 OFFCURVE",
"502 89 OFFCURVE",
"528 279 CURVE SMOOTH",
"571 596 LINE",
"644 611 LINE",
"648 648 LINE",
"447 648 LINE",
"443 611 LINE",
"510 596 LINE",
"466 278 LINE SMOOTH",
"446 132 OFFCURVE",
"405 46 OFFCURVE",
"294 46 CURVE SMOOTH",
"180 46 OFFCURVE",
"153 89 OFFCURVE",
"153 182 CURVE SMOOTH",
"153 208 OFFCURVE",
"155 240 OFFCURVE",
"160 278 CURVE SMOOTH",
"205 597 LINE",
"278 611 LINE",
"282 648 LINE",
"63 648 LINE",
"59 611 LINE",
"126 597 LINE"
);
},
{
closed = 1;
nodes = (
"411 691 LINE",
"433 726 LINE",
"265 846 LINE",
"244 836 OFFCURVE",
"231 815 OFFCURVE",
"231 796 CURVE SMOOTH",
"231 771 OFFCURVE",
"249 758 OFFCURVE",
"281 745 CURVE SMOOTH"
);
}
);
width = 610;
},
{
layerId = "4E675A61-A531-4354-B628-4B264391FE65";
paths = (
{
closed = 1;
nodes = (
"76 274 LINE SMOOTH",
"70 232 OFFCURVE",
"67 195 OFFCURVE",
"67 163 CURVE SMOOTH",
"67 71 OFFCURVE",
"107 -11 OFFCURVE",
"280 -11 CURVE SMOOTH",
"463 -11 OFFCURVE",
"524 70 OFFCURVE",
"553 278 CURVE SMOOTH",
"594 576 LINE",
"665 590 LINE",
"672 648 LINE",
"445 648 LINE",
"438 590 LINE",
"508 576 LINE",
"465 278 LINE SMOOTH",
"439 100 OFFCURVE",
"398 54 OFFCURVE",
"302 54 CURVE SMOOTH",
"213 54 OFFCURVE",
"197 107 OFFCURVE",
"197 165 CURVE SMOOTH",
"197 183 OFFCURVE",
"202 232 OFFCURVE",
"209 278 CURVE SMOOTH",
"252 576 LINE",
"323 590 LINE",
"331 648 LINE",
"56 648 LINE",
"48 590 LINE",
"118 576 LINE"
);
},
{
closed = 1;
nodes = (
"483 674 LINE",
"507 722 LINE",
"319 840 LINE",
"300 829 OFFCURVE",
"281 812 OFFCURVE",
"281 774 CURVE SMOOTH",
"281 757 OFFCURVE",
"287 742 OFFCURVE",
"326 729 CURVE SMOOTH"
);
}
);
width = 640;
}
);
unicode = 00D9;
},
{
color = 6;
glyphname = Uhorn;
lastChange = "2015-03-02 04:26:36 +0000";
layers = (
{
anchors = (
{
name = bottom;
position = "{274, 0}";
},
{
name = ogonek;
position = "{385, 10}";
},
{
name = top;
position = "{365, 648}";
}
);
layerId = "8C17F4AC-C384-4A1F-BD5F-821C12AF061A";
paths = (
{
closed = 1;
nodes = (
"704 755 OFFCURVE",
"685 766 OFFCURVE",
"672 776 CURVE",
"617 737 LINE",
"617 722 LINE",
"630 713 OFFCURVE",
"638 705 OFFCURVE",
"638 688 CURVE SMOOTH",
"638 657 OFFCURVE",
"618 648 OFFCURVE",
"575 648 CURVE SMOOTH",
"447 648 LINE",
"443 611 LINE",
"510 596 LINE",
"466 278 LINE SMOOTH",
"446 132 OFFCURVE",
"405 46 OFFCURVE",
"294 46 CURVE SMOOTH",
"180 46 OFFCURVE",
"153 89 OFFCURVE",
"153 182 CURVE SMOOTH",
"153 208 OFFCURVE",
"155 240 OFFCURVE",
"160 278 CURVE SMOOTH",
"205 597 LINE",
"278 611 LINE",
"282 648 LINE",
"63 648 LINE",
"59 611 LINE",
"126 597 LINE",
"81 279 LINE SMOOTH",
"75 238 OFFCURVE",
"72 199 OFFCURVE",
"72 166 CURVE SMOOTH",
"72 58 OFFCURVE",
"131 -11 OFFCURVE",
"253 -11 CURVE SMOOTH",
"439 -11 OFFCURVE",
"502 89 OFFCURVE",
"528 279 CURVE SMOOTH",
"570 587 LINE",
"679 622 OFFCURVE",
"704 685 OFFCURVE",
"704 714 CURVE SMOOTH"
);
}
);
width = 618;
},
{
anchors = (
{
name = bottom;
position = "{285, 0}";
},
{
name = ogonek;
position = "{422, 10}";
},
{
name = top;
position = "{376, 648}";
}
);
layerId = "4E675A61-A531-4354-B628-4B264391FE65";
paths = (
{
closed = 1;
nodes = (
"737 759 OFFCURVE",
"709 775 OFFCURVE",
"704 779 CURVE",
"631 731 LINE",
"631 716 LINE",
"639 709 OFFCURVE",
"645 702 OFFCURVE",
"645 687 CURVE SMOOTH",
"645 656 OFFCURVE",
"623 648 OFFCURVE",
"576 648 CURVE SMOOTH",
"445 648 LINE",
"438 590 LINE",
"508 576 LINE",
"465 278 LINE SMOOTH",
"439 100 OFFCURVE",
"398 54 OFFCURVE",
"302 54 CURVE SMOOTH",
"213 54 OFFCURVE",
"197 107 OFFCURVE",
"197 165 CURVE SMOOTH",
"197 183 OFFCURVE",
"202 232 OFFCURVE",
"209 278 CURVE SMOOTH",
"252 576 LINE",
"323 590 LINE",
"331 648 LINE",
"56 648 LINE",
"48 590 LINE",
"118 576 LINE",
"76 274 LINE SMOOTH",
"70 232 OFFCURVE",
"67 195 OFFCURVE",
"67 163 CURVE SMOOTH",
"67 71 OFFCURVE",
"107 -11 OFFCURVE",
"280 -11 CURVE SMOOTH",
"463 -11 OFFCURVE",
"524 70 OFFCURVE",
"553 278 CURVE SMOOTH",
"593 572 LINE",
"712 609 OFFCURVE",
"737 669 OFFCURVE",
"737 718 CURVE SMOOTH"
);
}
);
width = 640;
}
);
unicode = 01AF;
},
{
glyphname = Uhungarumlaut;
lastChange = "2016-07-28 05:34:45 +0000";
layers = (
{
layerId = "8C17F4AC-C384-4A1F-BD5F-821C12AF061A";
paths = (
{
closed = 1;
nodes = (
"439 -11 OFFCURVE",
"502 89 OFFCURVE",
"528 279 CURVE SMOOTH",
"571 596 LINE",
"644 611 LINE",
"648 648 LINE",
"447 648 LINE",
"443 611 LINE",
"510 596 LINE",
"466 278 LINE SMOOTH",
"446 132 OFFCURVE",
"405 46 OFFCURVE",
"294 46 CURVE SMOOTH",
"180 46 OFFCURVE",
"153 89 OFFCURVE",
"153 182 CURVE SMOOTH",
"153 208 OFFCURVE",
"155 240 OFFCURVE",
"160 278 CURVE SMOOTH",
"205 597 LINE",
"278 611 LINE",
"282 648 LINE",
"63 648 LINE",
"59 611 LINE",
"126 597 LINE",
"81 279 LINE SMOOTH",
"75 238 OFFCURVE",
"72 199 OFFCURVE",
"72 166 CURVE SMOOTH",
"72 58 OFFCURVE",
"131 -11 OFFCURVE",
"253 -11 CURVE SMOOTH"
);
},
{
closed = 1;
nodes = (
"331 729 LINE SMOOTH",
"347 742 OFFCURVE",
"379 772 OFFCURVE",
"380 792 CURVE",
"380 809 OFFCURVE",
"370 829 OFFCURVE",
"331 836 CURVE",
"238 701 LINE",
"266 677 LINE"
);
},
{
closed = 1;
nodes = (
"484 729 LINE SMOOTH",
"500 742 OFFCURVE",
"532 772 OFFCURVE",
"533 792 CURVE",
"533 809 OFFCURVE",
"522 829 OFFCURVE",
"484 836 CURVE",
"391 701 LINE",
"419 677 LINE"
);
}
);
width = 610;
},
{
layerId = "4E675A61-A531-4354-B628-4B264391FE65";
paths = (
{
closed = 1;
nodes = (
"463 -11 OFFCURVE",
"524 70 OFFCURVE",
"553 278 CURVE SMOOTH",
"594 576 LINE",
"665 590 LINE",
"672 648 LINE",
"445 648 LINE",
"438 590 LINE",
"508 576 LINE",
"465 278 LINE SMOOTH",
"439 100 OFFCURVE",
"398 54 OFFCURVE",
"302 54 CURVE SMOOTH",
"213 54 OFFCURVE",
"197 107 OFFCURVE",
"197 165 CURVE SMOOTH",
"197 183 OFFCURVE",
"202 232 OFFCURVE",
"209 278 CURVE SMOOTH",
"252 576 LINE",
"323 590 LINE",
"331 648 LINE",
"56 648 LINE",
"48 590 LINE",
"118 576 LINE",
"76 274 LINE SMOOTH",
"70 232 OFFCURVE",
"67 195 OFFCURVE",
"67 163 CURVE SMOOTH",
"67 71 OFFCURVE",
"107 -11 OFFCURVE",
"280 -11 CURVE SMOOTH"
);
},
{
closed = 1;
nodes = (
"364 727 LINE SMOOTH",
"392 745 OFFCURVE",
"409 764 OFFCURVE",
"409 790 CURVE SMOOTH",
"409 818 OFFCURVE",
"373 846 OFFCURVE",
"339 846 CURVE",
"226 696 LINE",
"264 662 LINE"
);
},
{
closed = 1;
nodes = (
"553 727 LINE SMOOTH",
"581 745 OFFCURVE",
"598 764 OFFCURVE",
"598 790 CURVE SMOOTH",
"598 818 OFFCURVE",
"562 846 OFFCURVE",
"528 846 CURVE",
"415 696 LINE",
"453 662 LINE"
);
}
);
width = 640;
}
);
unicode = 0170;
},
{
glyphname = Umacron;
lastChange = "2015-02-26 23:15:43 +0000";
layers = (
{
layerId = "8C17F4AC-C384-4A1F-BD5F-821C12AF061A";
paths = (
{
closed = 1;
nodes = (
"81 279 LINE SMOOTH",
"75 238 OFFCURVE",
"72 199 OFFCURVE",
"72 166 CURVE SMOOTH",
"72 58 OFFCURVE",
"131 -11 OFFCURVE",
"253 -11 CURVE SMOOTH",
"439 -11 OFFCURVE",
"502 89 OFFCURVE",
"528 279 CURVE SMOOTH",
"571 596 LINE",
"644 611 LINE",
"648 648 LINE",
"447 648 LINE",
"443 611 LINE",
"510 596 LINE",
"466 278 LINE SMOOTH",
"446 132 OFFCURVE",
"405 46 OFFCURVE",
"294 46 CURVE SMOOTH",
"180 46 OFFCURVE",
"153 89 OFFCURVE",
"153 182 CURVE SMOOTH",
"153 208 OFFCURVE",
"155 240 OFFCURVE",
"160 278 CURVE SMOOTH",
"205 597 LINE",
"278 611 LINE",
"282 648 LINE",
"63 648 LINE",
"59 611 LINE",
"126 597 LINE"
);
},
{
closed = 1;
nodes = (
"229 719 LINE",
"510 719 LINE",
"519 782 LINE",
"237 782 LINE"
);
}
);
width = 610;
},
{
layerId = "4E675A61-A531-4354-B628-4B264391FE65";
paths = (
{
closed = 1;
nodes = (
"76 274 LINE SMOOTH",
"70 232 OFFCURVE",
"67 195 OFFCURVE",
"67 163 CURVE SMOOTH",
"67 71 OFFCURVE",
"107 -11 OFFCURVE",
"280 -11 CURVE SMOOTH",
"463 -11 OFFCURVE",
"524 70 OFFCURVE",
"553 278 CURVE SMOOTH",
"594 576 LINE",
"665 590 LINE",
"672 648 LINE",
"445 648 LINE",
"438 590 LINE",
"508 576 LINE",
"465 278 LINE SMOOTH",
"439 100 OFFCURVE",
"398 54 OFFCURVE",
"302 54 CURVE SMOOTH",
"213 54 OFFCURVE",
"197 107 OFFCURVE",
"197 165 CURVE SMOOTH",
"197 183 OFFCURVE",
"202 232 OFFCURVE",
"209 278 CURVE SMOOTH",
"252 576 LINE",
"323 590 LINE",
"331 648 LINE",
"56 648 LINE",
"48 590 LINE",
"118 576 LINE"
);
},
{
closed = 1;
nodes = (
"209 716 LINE",
"559 716 LINE",
"569 798 LINE",
"219 798 LINE"
);
}
);
width = 640;
}
);
unicode = 016A;
},
{
glyphname = Uogonek;
lastChange = "2016-07-29 05:50:16 +0000";
layers = (
{
layerId = "8C17F4AC-C384-4A1F-BD5F-821C12AF061A";
paths = (
{
closed = 1;
nodes = (
"372 -177 OFFCURVE",
"416 -130 OFFCURVE",
"416 -130 CURVE",
"400 -106 LINE",
"400 -106 OFFCURVE",
"370 -126 OFFCURVE",
"343 -126 CURVE SMOOTH",
"315 -126 OFFCURVE",
"302 -110 OFFCURVE",
"302 -86 CURVE SMOOTH",
"302 -42 OFFCURVE",
"337 -11 OFFCURVE",
"359 3 CURVE",
"464 37 OFFCURVE",
"508 131 OFFCURVE",
"528 279 CURVE SMOOTH",
"571 596 LINE",
"644 611 LINE",
"648 648 LINE",
"447 648 LINE",
"443 611 LINE",
"510 596 LINE",
"466 278 LINE SMOOTH",
"446 132 OFFCURVE",
"405 46 OFFCURVE",
"294 46 CURVE SMOOTH",
"180 46 OFFCURVE",
"153 89 OFFCURVE",
"153 182 CURVE SMOOTH",
"153 208 OFFCURVE",
"155 240 OFFCURVE",
"160 278 CURVE SMOOTH",
"205 597 LINE",
"278 611 LINE",
"282 648 LINE",
"63 648 LINE",
"59 611 LINE",
"126 597 LINE",
"81 279 LINE SMOOTH",
"75 238 OFFCURVE",
"72 199 OFFCURVE",
"72 166 CURVE SMOOTH",
"72 58 OFFCURVE",
"131 -11 OFFCURVE",
"253 -11 CURVE SMOOTH",
"266 -11 OFFCURVE",
"279 -10 OFFCURVE",
"292 -9 CURVE",
"293 -12 LINE",
"257 -39 OFFCURVE",
"236 -74 OFFCURVE",
"236 -114 CURVE SMOOTH",
"236 -163 OFFCURVE",
"270 -177 OFFCURVE",
"311 -177 CURVE SMOOTH"
);
}
);
width = 610;
},
{
layerId = "4E675A61-A531-4354-B628-4B264391FE65";
paths = (
{
closed = 1;
nodes = (
"398 -187 OFFCURVE",
"441 -134 OFFCURVE",
"441 -134 CURVE",
"417 -99 LINE",
"399 -110 OFFCURVE",
"380 -118 OFFCURVE",
"365 -118 CURVE SMOOTH",
"342 -118 OFFCURVE",
"330 -110 OFFCURVE",
"330 -84 CURVE SMOOTH",
"330 -45 OFFCURVE",
"362 -15 OFFCURVE",
"385 2 CURVE",
"487 32 OFFCURVE",
"531 116 OFFCURVE",
"553 278 CURVE SMOOTH",
"594 576 LINE",
"665 590 LINE",
"672 648 LINE",
"445 648 LINE",
"438 590 LINE",
"508 576 LINE",
"465 278 LINE SMOOTH",
"439 100 OFFCURVE",
"398 54 OFFCURVE",
"302 54 CURVE SMOOTH",
"213 54 OFFCURVE",
"197 107 OFFCURVE",
"197 165 CURVE SMOOTH",
"197 183 OFFCURVE",
"202 232 OFFCURVE",
"209 278 CURVE SMOOTH",
"252 576 LINE",
"323 590 LINE",
"331 648 LINE",
"56 648 LINE",
"48 590 LINE",
"118 576 LINE",
"76 274 LINE SMOOTH",
"70 232 OFFCURVE",
"67 195 OFFCURVE",
"67 163 CURVE SMOOTH",
"67 71 OFFCURVE",
"107 -11 OFFCURVE",
"280 -11 CURVE SMOOTH",
"291 -11 OFFCURVE",
"300 -7 OFFCURVE",
"303 -6 CURVE",
"304 -9 LINE",
"269 -33 OFFCURVE",
"235 -69 OFFCURVE",
"235 -116 CURVE SMOOTH",
"235 -165 OFFCURVE",
"276 -187 OFFCURVE",
"332 -187 CURVE SMOOTH"
);
}
);
width = 640;
}
);
unicode = 0172;
},
{
glyphname = Uring;
lastChange = "2016-07-29 06:31:00 +0000";
layers = (
{
layerId = "8C17F4AC-C384-4A1F-BD5F-821C12AF061A";
paths = (
{
closed = 1;
nodes = (
"439 -11 OFFCURVE",
"502 89 OFFCURVE",
"528 279 CURVE SMOOTH",
"571 596 LINE",
"644 611 LINE",
"648 648 LINE",
"447 648 LINE",
"443 611 LINE",
"510 596 LINE",
"466 278 LINE SMOOTH",
"446 132 OFFCURVE",
"405 46 OFFCURVE",
"294 46 CURVE SMOOTH",
"180 46 OFFCURVE",
"153 89 OFFCURVE",
"153 182 CURVE SMOOTH",
"153 208 OFFCURVE",
"155 240 OFFCURVE",
"160 278 CURVE SMOOTH",
"205 597 LINE",
"278 611 LINE",
"282 648 LINE",
"63 648 LINE",
"59 611 LINE",
"126 597 LINE",
"81 279 LINE SMOOTH",
"75 238 OFFCURVE",
"72 199 OFFCURVE",
"72 166 CURVE SMOOTH",
"72 58 OFFCURVE",
"131 -11 OFFCURVE",
"253 -11 CURVE SMOOTH"
);
},
{
closed = 1;
nodes = (
"431 662 OFFCURVE",
"466 712 OFFCURVE",
"466 765 CURVE SMOOTH",
"466 806 OFFCURVE",
"438 831 OFFCURVE",
"384 831 CURVE SMOOTH",
"322 831 OFFCURVE",
"287 782 OFFCURVE",
"287 729 CURVE SMOOTH",
"287 688 OFFCURVE",
"316 662 OFFCURVE",
"369 662 CURVE SMOOTH"
);
},
{
closed = 1;
nodes = (
"348 706 OFFCURVE",
"338 715 OFFCURVE",
"338 738 CURVE SMOOTH",
"338 770 OFFCURVE",
"347 787 OFFCURVE",
"375 787 CURVE SMOOTH",
"402 787 OFFCURVE",
"414 780 OFFCURVE",
"414 757 CURVE SMOOTH",
"414 725 OFFCURVE",
"405 706 OFFCURVE",
"378 706 CURVE SMOOTH"
);
}
);
width = 610;
},
{
layerId = "4E675A61-A531-4354-B628-4B264391FE65";
paths = (
{
closed = 1;
nodes = (
"463 -11 OFFCURVE",
"524 70 OFFCURVE",
"553 278 CURVE SMOOTH",
"594 576 LINE",
"665 590 LINE",
"672 648 LINE",
"445 648 LINE",
"438 590 LINE",
"508 576 LINE",
"465 278 LINE SMOOTH",
"439 100 OFFCURVE",
"398 54 OFFCURVE",
"302 54 CURVE SMOOTH",
"213 54 OFFCURVE",
"197 107 OFFCURVE",
"197 165 CURVE SMOOTH",
"197 183 OFFCURVE",
"202 232 OFFCURVE",
"209 278 CURVE SMOOTH",
"252 576 LINE",
"323 590 LINE",
"331 648 LINE",
"56 648 LINE",
"48 590 LINE",
"118 576 LINE",
"76 274 LINE SMOOTH",
"70 232 OFFCURVE",
"67 195 OFFCURVE",
"67 163 CURVE SMOOTH",
"67 71 OFFCURVE",
"107 -11 OFFCURVE",
"280 -11 CURVE SMOOTH"
);
},
{
closed = 1;
nodes = (
"469 663 OFFCURVE",
"506 713 OFFCURVE",
"506 758 CURVE SMOOTH",
"506 817 OFFCURVE",
"467 839 OFFCURVE",
"410 839 CURVE SMOOTH",
"334 839 OFFCURVE",
"291 787 OFFCURVE",
"291 742 CURVE SMOOTH",
"291 690 OFFCURVE",
"318 663 OFFCURVE",
"389 663 CURVE SMOOTH"
);
},
{
closed = 1;
nodes = (
"376 710 OFFCURVE",
"367 720 OFFCURVE",
"367 741 CURVE SMOOTH",
"367 781 OFFCURVE",
"376 792 OFFCURVE",
"401 792 CURVE SMOOTH",
"416 792 OFFCURVE",
"429 785 OFFCURVE",
"429 759 CURVE SMOOTH",
"429 718 OFFCURVE",
"419 710 OFFCURVE",
"395 710 CURVE SMOOTH"
);
}
);
width = 640;
}
);
unicode = 016E;
},
{
glyphname = V;
lastChange = "2016-07-29 04:56:11 +0000";
layers = (
{
anchors = (
{
name = bottom;
position = "{215, 0}";
},
{
name = top;
position = "{306, 648}";
}
);
layerId = "8C17F4AC-C384-4A1F-BD5F-821C12AF061A";
paths = (
{
closed = 1;
nodes = (
"232 -9 LINE",
"505 596 LINE",
"556 611 LINE",
"561 648 LINE",
"374 648 LINE",
"369 611 LINE",
"442 596 LINE",
"442 579 LINE",
"255 153 LINE",
"243 126 LINE",
"242 123 LINE",
"236 156 LINE",
"161 573 LINE",
"161 596 LINE",
"234 611 LINE",
"238 648 LINE",
"28 648 LINE",
"24 611 LINE",
"77 599 LINE",
"190 -9 LINE"
);
}
);
width = 500;
},
{
anchors = (
{
name = bottom;
position = "{230, 0}";
},
{
name = top;
position = "{321, 648}";
}
);
layerId = "4E675A61-A531-4354-B628-4B264391FE65";
paths = (
{
closed = 1;
nodes = (
"271 -9 LINE",
"536 576 LINE",
"593 590 LINE",
"601 648 LINE",
"382 648 LINE",
"375 590 LINE",
"452 579 LINE",
"452 573 LINE",
"286 196 LINE",
"279 169 LINE",
"275 169 LINE",
"275 196 LINE",
"213 572 LINE",
"213 580 LINE",
"277 590 LINE",
"282 648 LINE",
"10 648 LINE",
"6 590 LINE",
"72 576 LINE",
"181 -9 LINE"
);
}
);
width = 530;
}
);
unicode = 0056;
},
{
glyphname = W;
lastChange = "2016-07-29 04:56:51 +0000";
layers = (
{
anchors = (
{
name = bottom;
position = "{335, 0}";
},
{
name = top;
position = "{426, 648}";
}
);
layerId = "8C17F4AC-C384-4A1F-BD5F-821C12AF061A";
paths = (
{
closed = 1;
nodes = (
"189 -8 LINE",
"392 430 LINE",
"461 -8 LINE",
"505 -8 LINE",
"755 596 LINE",
"806 611 LINE",
"811 648 LINE",
"624 648 LINE",
"619 611 LINE",
"692 596 LINE",
"692 579 LINE",
"529 152 LINE",
"515 116 LINE",
"513 111 LINE",
"507 154 LINE",
"445 573 LINE",
"445 596 LINE",
"518 611 LINE",
"522 648 LINE",
"311 648 LINE",
"307 611 LINE",
"361 599 LINE",
"376 515 LINE",
"213 144 LINE",
"200 115 LINE",
"198 111 LINE",
"194 144 LINE",
"149 573 LINE",
"149 596 LINE",
"222 611 LINE",
"226 648 LINE",
"15 648 LINE",
"11 611 LINE",
"65 599 LINE",
"145 -8 LINE"
);
}
);
width = 740;
},
{
anchors = (
{
name = bottom;
position = "{391, 0}";
},
{
name = top;
position = "{482, 648}";
}
);
layerId = "4E675A61-A531-4354-B628-4B264391FE65";
paths = (
{
closed = 1;
nodes = (
"259 -8 LINE",
"438 376 LINE",
"491 -8 LINE",
"603 -8 LINE",
"876 587 LINE",
"931 598 LINE",
"937 648 LINE",
"720 648 LINE",
"714 598 LINE",
"784 582 LINE",
"777 565 LINE",
"605 173 LINE",
"598 146 LINE",
"594 146 LINE",
"594 173 LINE",
"555 568 LINE",
"555 584 LINE",
"626 598 LINE",
"632 648 LINE",
"352 648 LINE",
"346 598 LINE",
"409 586 LINE",
"418 522 LINE",
"262 174 LINE",
"255 145 LINE",
"251 145 LINE",
"251 174 LINE",
"214 564 LINE",
"212 584 LINE",
"283 598 LINE",
"289 648 LINE",
"10 648 LINE",
"4 598 LINE",
"67 586 LINE",
"148 -8 LINE"
);
}
);
width = 852;
}
);
unicode = 0057;
},
{
glyphname = X;
lastChange = "2015-02-27 02:12:24 +0000";
layers = (
{
anchors = (
{
name = bottom;
position = "{207, 0}";
},
{
name = top;
position = "{320, 648}";
}
);
layerId = "8C17F4AC-C384-4A1F-BD5F-821C12AF061A";
paths = (
{
closed = 1;
nodes = (
"-51 0 LINE",
"144 0 LINE",
"148 37 LINE",
"81 51 LINE",
"82 63 LINE",
"245 274 LINE",
"336 75 LINE",
"336 52 LINE",
"272 37 LINE",
"269 0 LINE",
"489 0 LINE",
"492 37 LINE",
"434 49 LINE",
"302 345 LINE",
"499 597 LINE",
"547 611 LINE",
"552 648 LINE",
"365 648 LINE",
"360 611 LINE",
"427 597 LINE",
"427 585 LINE",
"280 395 LINE",
"198 580 LINE",
"198 596 LINE",
"271 611 LINE",
"275 648 LINE",
"49 648 LINE",
"45 611 LINE",
"99 598 LINE",
"222 325 LINE",
"10 51 LINE",
"-46 37 LINE"
);
}
);
width = 520;
},
{
anchors = (
{
name = bottom;
position = "{225, 0}";
},
{
name = top;
position = "{361, 648}";
}
);
layerId = "4E675A61-A531-4354-B628-4B264391FE65";
paths = (
{
closed = 1;
nodes = (
"-55 0 LINE",
"182 0 LINE",
"188 50 LINE",
"142 64 LINE",
"142 82 LINE",
"261 238 LINE",
"331 85 LINE",
"331 66 LINE",
"271 50 LINE",
"267 0 LINE",
"532 0 LINE",
"536 50 LINE",
"477 67 LINE",
"355 343 LINE",
"539 579 LINE",
"600 594 LINE",
"606 648 LINE",
"395 648 LINE",
"387 595 LINE",
"433 584 LINE",
"433 566 LINE",
"321 420 LINE",
"259 562 LINE",
"259 584 LINE",
"320 598 LINE",
"326 648 LINE",
"54 648 LINE",
"48 598 LINE",
"101 588 LINE",
"224 317 LINE",
"31 69 LINE",
"-48 50 LINE"
);
}
);
width = 570;
}
);
unicode = 0058;
},
{
glyphname = Y;
lastChange = "2015-02-27 02:12:38 +0000";
layers = (
{
anchors = (
{
name = bottom;
position = "{213, 0}";
},
{
name = top;
position = "{295, 648}";
}
);
layerId = "8C17F4AC-C384-4A1F-BD5F-821C12AF061A";
paths = (
{
closed = 1;
nodes = (
"105 0 LINE",
"324 0 LINE",
"327 37 LINE",
"259 51 LINE",
"284 232 LINE",
"479 596 LINE",
"530 611 LINE",
"535 648 LINE",
"348 648 LINE",
"343 611 LINE",
"416 596 LINE",
"416 579 LINE",
"273 293 LINE",
"262 293 LINE",
"165 573 LINE",
"165 596 LINE",
"238 611 LINE",
"242 648 LINE",
"29 648 LINE",
"25 611 LINE",
"79 599 LINE",
"207 237 LINE",
"181 51 LINE",
"108 37 LINE"
);
}
);
width = 480;
},
{
anchors = (
{
name = bottom;
position = "{220, 0}";
},
{
name = top;
position = "{313, 648}";
}
);
layerId = "4E675A61-A531-4354-B628-4B264391FE65";
paths = (
{
closed = 1;
nodes = (
"85 0 LINE",
"361 0 LINE",
"367 50 LINE",
"296 64 LINE",
"325 274 LINE",
"496 586 LINE",
"550 598 LINE",
"556 648 LINE",
"348 648 LINE",
"342 598 LINE",
"404 585 LINE",
"404 576 LINE",
"284 345 LINE",
"279 345 LINE",
"208 562 LINE",
"208 584 LINE",
"272 598 LINE",
"278 648 LINE",
"17 648 LINE",
"11 596 LINE",
"65 586 LINE",
"187 257 LINE",
"162 64 LINE",
"91 50 LINE"
);
}
);
width = 500;
}
);
leftKerningGroup = Y;
rightKerningGroup = Y;
unicode = 0059;
},
{
glyphname = Yacute;
lastChange = "2016-07-28 05:34:45 +0000";
layers = (
{
layerId = "8C17F4AC-C384-4A1F-BD5F-821C12AF061A";
paths = (
{
closed = 1;
nodes = (
"319 0 LINE",
"322 37 LINE",
"254 51 LINE",
"281 242 LINE",
"474 596 LINE",
"525 611 LINE",
"530 648 LINE",
"343 648 LINE",
"338 611 LINE",
"411 596 LINE",
"411 579 LINE",
"263 293 LINE",
"252 293 LINE",
"158 573 LINE",
"158 596 LINE",
"231 611 LINE",
"235 648 LINE",
"24 648 LINE",
"20 611 LINE",
"74 599 LINE",
"202 237 LINE",
"176 51 LINE",
"103 37 LINE",
"100 0 LINE"
);
},
{
closed = 1;
nodes = (
"370 745 LINE SMOOTH",
"402 758 OFFCURVE",
"420 771 OFFCURVE",
"420 796 CURVE SMOOTH",
"420 815 OFFCURVE",
"407 836 OFFCURVE",
"386 846 CURVE",
"218 726 LINE",
"240 691 LINE"
);
}
);
width = 480;
},
{
layerId = "4E675A61-A531-4354-B628-4B264391FE65";
paths = (
{
closed = 1;
nodes = (
"361 0 LINE",
"367 50 LINE",
"296 64 LINE",
"325 274 LINE",
"496 586 LINE",
"550 598 LINE",
"556 648 LINE",
"348 648 LINE",
"342 598 LINE",
"404 585 LINE",
"404 576 LINE",
"284 345 LINE",
"279 345 LINE",
"208 562 LINE",
"208 584 LINE",
"272 598 LINE",
"278 648 LINE",
"17 648 LINE",
"11 596 LINE",
"65 586 LINE",
"187 257 LINE",
"162 64 LINE",
"91 50 LINE",
"85 0 LINE"
);
},
{
closed = 1;
nodes = (
"393 729 LINE SMOOTH",
"432 742 OFFCURVE",
"438 757 OFFCURVE",
"438 775 CURVE SMOOTH",
"438 812 OFFCURVE",
"416 831 OFFCURVE",
"400 840 CURVE",
"212 722 LINE",
"236 674 LINE"
);
}
);
width = 500;
}
);
leftKerningGroup = Y;
rightKerningGroup = Y;
unicode = 00DD;
},
{
glyphname = Ydieresis;
lastChange = "2015-02-26 23:15:43 +0000";
layers = (
{
layerId = "8C17F4AC-C384-4A1F-BD5F-821C12AF061A";
paths = (
{
closed = 1;
nodes = (
"100 0 LINE",
"319 0 LINE",
"322 37 LINE",
"254 51 LINE",
"281 242 LINE",
"474 596 LINE",
"525 611 LINE",
"530 648 LINE",
"343 648 LINE",
"338 611 LINE",
"411 596 LINE",
"411 579 LINE",
"263 293 LINE",
"252 293 LINE",
"158 573 LINE",
"158 596 LINE",
"231 611 LINE",
"235 648 LINE",
"24 648 LINE",
"20 611 LINE",
"74 599 LINE",
"202 237 LINE",
"176 51 LINE",
"103 37 LINE"
);
},
{
closed = 1;
nodes = (
"233 703 OFFCURVE",
"253 732 OFFCURVE",
"253 765 CURVE SMOOTH",
"253 798 OFFCURVE",
"233 819 OFFCURVE",
"202 819 CURVE SMOOTH",
"169 819 OFFCURVE",
"147 791 OFFCURVE",
"147 759 CURVE SMOOTH",
"147 726 OFFCURVE",
"167 703 OFFCURVE",
"198 703 CURVE SMOOTH"
);
},
{
closed = 1;
nodes = (
"444 703 OFFCURVE",
"464 732 OFFCURVE",
"464 765 CURVE SMOOTH",
"464 798 OFFCURVE",
"444 819 OFFCURVE",
"413 819 CURVE SMOOTH",
"380 819 OFFCURVE",
"358 791 OFFCURVE",
"358 759 CURVE SMOOTH",
"358 726 OFFCURVE",
"378 703 OFFCURVE",
"409 703 CURVE SMOOTH"
);
}
);
width = 480;
},
{
layerId = "4E675A61-A531-4354-B628-4B264391FE65";
paths = (
{
closed = 1;
nodes = (
"85 0 LINE",
"361 0 LINE",
"367 50 LINE",
"296 64 LINE",
"325 274 LINE",
"496 586 LINE",
"550 598 LINE",
"556 648 LINE",
"348 648 LINE",
"342 598 LINE",
"404 585 LINE",
"404 576 LINE",
"284 345 LINE",
"279 345 LINE",
"208 562 LINE",
"208 584 LINE",
"272 598 LINE",
"278 648 LINE",
"17 648 LINE",
"11 596 LINE",
"65 586 LINE",
"187 257 LINE",
"162 64 LINE",
"91 50 LINE"
);
},
{
closed = 1;
nodes = (
"247 687 OFFCURVE",
"272 727 OFFCURVE",
"272 766 CURVE SMOOTH",
"272 806 OFFCURVE",
"245 832 OFFCURVE",
"209 832 CURVE SMOOTH",
"159 832 OFFCURVE",
"135 789 OFFCURVE",
"135 751 CURVE SMOOTH",
"135 716 OFFCURVE",
"160 687 OFFCURVE",
"197 687 CURVE SMOOTH"
);
},
{
closed = 1;
nodes = (
"470 687 OFFCURVE",
"495 727 OFFCURVE",
"495 766 CURVE SMOOTH",
"495 806 OFFCURVE",
"468 832 OFFCURVE",
"432 832 CURVE SMOOTH",
"382 832 OFFCURVE",
"358 789 OFFCURVE",
"358 751 CURVE SMOOTH",
"358 716 OFFCURVE",
"383 687 OFFCURVE",
"420 687 CURVE SMOOTH"
);
}
);
width = 500;
}
);
leftKerningGroup = Y;
rightKerningGroup = Y;
unicode = 0178;
},
{
glyphname = Z;
lastChange = "2015-02-26 23:17:58 +0000";
layers = (
{
anchors = (
{
name = bottom;
position = "{210, 0}";
},
{
name = top;
position = "{301, 648}";
}
);
layerId = "8C17F4AC-C384-4A1F-BD5F-821C12AF061A";
paths = (
{
closed = 1;
nodes = (
"8 0 LINE",
"423 0 LINE",
"443 149 LINE",
"399 149 LINE",
"358 45 LINE",
"100 45 LINE",
"95 57 LINE",
"498 604 LINE",
"472 648 LINE",
"84 648 LINE",
"62 496 LINE",
"106 496 LINE",
"147 600 LINE",
"375 600 LINE",
"387 578 LINE",
"-9 44 LINE"
);
}
);
width = 490;
},
{
anchors = (
{
name = bottom;
position = "{230, 0}";
},
{
name = top;
position = "{321, 648}";
}
);
layerId = "4E675A61-A531-4354-B628-4B264391FE65";
paths = (
{
closed = 1;
nodes = (
"20 0 LINE",
"458 0 LINE",
"481 180 LINE",
"420 180 LINE",
"381 69 LINE",
"158 69 LINE",
"154 77 LINE",
"535 576 LINE",
"489 648 LINE",
"72 648 LINE",
"46 468 LINE",
"107 468 LINE",
"150 579 LINE",
"362 579 LINE",
"370 565 LINE",
"-8 69 LINE"
);
}
);
width = 530;
}
);
unicode = 005A;
},
{
glyphname = Zacute;
lastChange = "2016-07-28 05:34:45 +0000";
layers = (
{
layerId = "8C17F4AC-C384-4A1F-BD5F-821C12AF061A";
paths = (
{
closed = 1;
nodes = (
"419 0 LINE",
"439 149 LINE",
"395 149 LINE",
"354 45 LINE",
"96 45 LINE",
"91 57 LINE",
"494 604 LINE",
"468 648 LINE",
"80 648 LINE",
"58 496 LINE",
"102 496 LINE",
"143 600 LINE",
"371 600 LINE",
"383 578 LINE",
"-13 44 LINE",
"4 0 LINE"
);
},
{
closed = 1;
nodes = (
"366 735 LINE SMOOTH",
"398 748 OFFCURVE",
"416 761 OFFCURVE",
"416 786 CURVE SMOOTH",
"416 805 OFFCURVE",
"403 826 OFFCURVE",
"382 836 CURVE",
"214 716 LINE",
"236 681 LINE"
);
}
);
width = 490;
},
{
layerId = "4E675A61-A531-4354-B628-4B264391FE65";
paths = (
{
closed = 1;
nodes = (
"458 0 LINE",
"481 180 LINE",
"420 180 LINE",
"381 69 LINE",
"158 69 LINE",
"154 77 LINE",
"535 576 LINE",
"489 648 LINE",
"72 648 LINE",
"46 468 LINE",
"107 468 LINE",
"150 579 LINE",
"362 579 LINE",
"370 565 LINE",
"-8 69 LINE",
"20 0 LINE"
);
},
{
closed = 1;
nodes = (
"380 729 LINE SMOOTH",
"419 742 OFFCURVE",
"425 757 OFFCURVE",
"425 775 CURVE SMOOTH",
"425 812 OFFCURVE",
"403 831 OFFCURVE",
"387 840 CURVE",
"199 722 LINE",
"223 674 LINE"
);
}
);
width = 530;
}
);
unicode = 0179;
},
{
glyphname = Zcaron;
lastChange = "2016-07-28 05:34:45 +0000";
layers = (
{
layerId = "8C17F4AC-C384-4A1F-BD5F-821C12AF061A";
paths = (
{
closed = 1;
nodes = (
"419 0 LINE",
"439 149 LINE",
"395 149 LINE",
"354 45 LINE",
"96 45 LINE",
"91 57 LINE",
"494 604 LINE",
"468 648 LINE",
"80 648 LINE",
"58 496 LINE",
"102 496 LINE",
"143 600 LINE",
"371 600 LINE",
"383 578 LINE",
"-13 44 LINE",
"4 0 LINE"
);
},
{
closed = 1;
nodes = (
"310 689 OFFCURVE",
"326 696 OFFCURVE",
"377 744 CURVE SMOOTH",
"442 805 LINE",
"417 838 LINE",
"315 766 LINE",
"217 835 LINE",
"182 797 LINE",
"240 738 LINE SMOOTH",
"250 728 OFFCURVE",
"290 689 OFFCURVE",
"301 689 CURVE SMOOTH"
);
}
);
width = 490;
},
{
layerId = "4E675A61-A531-4354-B628-4B264391FE65";
paths = (
{
closed = 1;
nodes = (
"458 0 LINE",
"481 180 LINE",
"420 180 LINE",
"381 69 LINE",
"158 69 LINE",
"154 77 LINE",
"535 576 LINE",
"489 648 LINE",
"72 648 LINE",
"46 468 LINE",
"107 468 LINE",
"150 579 LINE",
"362 579 LINE",
"370 565 LINE",
"-8 69 LINE",
"20 0 LINE"
);
},
{
closed = 1;
nodes = (
"304 674 OFFCURVE",
"327 694 OFFCURVE",
"364 724 CURVE SMOOTH",
"454 798 LINE",
"428 837 LINE",
"304 778 LINE",
"191 839 LINE",
"152 791 LINE",
"239 712 LINE SMOOTH",
"258 694 OFFCURVE",
"277 674 OFFCURVE",
"292 674 CURVE SMOOTH"
);
}
);
width = 530;
}
);
unicode = 017D;
},
{
glyphname = Zdotaccent;
lastChange = "2015-02-26 23:15:43 +0000";
layers = (
{
layerId = "8C17F4AC-C384-4A1F-BD5F-821C12AF061A";
paths = (
{
closed = 1;
nodes = (
"4 0 LINE",
"419 0 LINE",
"439 149 LINE",
"395 149 LINE",
"354 45 LINE",
"96 45 LINE",
"91 57 LINE",
"494 604 LINE",
"468 648 LINE",
"80 648 LINE",
"58 496 LINE",
"102 496 LINE",
"143 600 LINE",
"371 600 LINE",
"383 578 LINE",
"-13 44 LINE"
);
},
{
closed = 1;
nodes = (
"323 699 OFFCURVE",
"343 732 OFFCURVE",
"343 763 CURVE SMOOTH",
"343 796 OFFCURVE",
"321 817 OFFCURVE",
"291 817 CURVE SMOOTH",
"250 817 OFFCURVE",
"231 782 OFFCURVE",
"231 751 CURVE SMOOTH",
"231 722 OFFCURVE",
"251 699 OFFCURVE",
"282 699 CURVE SMOOTH"
);
}
);
width = 490;
},
{
layerId = "4E675A61-A531-4354-B628-4B264391FE65";
paths = (
{
closed = 1;
nodes = (
"20 0 LINE",
"458 0 LINE",
"481 180 LINE",
"420 180 LINE",
"381 69 LINE",
"158 69 LINE",
"154 77 LINE",
"535 576 LINE",
"489 648 LINE",
"72 648 LINE",
"46 468 LINE",
"107 468 LINE",
"150 579 LINE",
"362 579 LINE",
"370 565 LINE",
"-8 69 LINE"
);
},
{
closed = 1;
nodes = (
"350 681 OFFCURVE",
"376 723 OFFCURVE",
"376 763 CURVE SMOOTH",
"376 805 OFFCURVE",
"348 832 OFFCURVE",
"310 832 CURVE SMOOTH",
"258 832 OFFCURVE",
"233 787 OFFCURVE",
"233 748 CURVE SMOOTH",
"233 711 OFFCURVE",
"259 681 OFFCURVE",
"298 681 CURVE SMOOTH"
);
}
);
width = 530;
}
);
unicode = 017B;
},
{
color = 6;
glyphname = Y.loclGUA;
lastChange = "2015-03-01 01:44:42 +0000";
layers = (
{
anchors = (
{
name = bottom;
position = "{274, 0}";
},
{
name = top;
position = "{365, 648}";
},
{
name = topright;
position = "{654, 648}";
}
);
background = {
paths = (
{
closed = 1;
nodes = (
"525 394 LINE",
"458 304 OFFCURVE",
"388 252 OFFCURVE",
"301 252 CURVE SMOOTH",
"188 252 OFFCURVE",
"175 340 OFFCURVE",
"193 465 CURVE SMOOTH",
"210 589 LINE",
"294 604 LINE",
"300 648 LINE",
"49 648 LINE",
"43 604 LINE",
"123 589 LINE",
"103 445 LINE SMOOTH",
"81 289 OFFCURVE",
"111 189 OFFCURVE",
"271 189 CURVE SMOOTH",
"356 189 OFFCURVE",
"420 217 OFFCURVE",
"495 279 CURVE"
);
}
);
};
guideLines = (
{
position = "{342, 268}";
}
);
layerId = "8C17F4AC-C384-4A1F-BD5F-821C12AF061A";
paths = (
{
closed = 1;
nodes = (
"393 604 LINE",
"486 587 LINE",
"447 309 LINE",
"403 274 OFFCURVE",
"356 252 OFFCURVE",
"300 252 CURVE SMOOTH",
"215 252 OFFCURVE",
"188 302 OFFCURVE",
"188 381 CURVE SMOOTH",
"188 407 OFFCURVE",
"191 434 OFFCURVE",
"195 463 CURVE SMOOTH",
"212 589 LINE",
"296 604 LINE",
"303 648 LINE",
"52 648 LINE",
"45 604 LINE",
"125 589 LINE",
"105 447 LINE SMOOTH",
"101 419 OFFCURVE",
"99 393 OFFCURVE",
"99 369 CURVE SMOOTH",
"99 258 OFFCURVE",
"142 189 OFFCURVE",
"274 189 CURVE SMOOTH",
"335 189 OFFCURVE",
"384 204 OFFCURVE",
"436 236 CURVE",
"420 130 OFFCURVE",
"372 37 OFFCURVE",
"256 37 CURVE SMOOTH",
"214 37 OFFCURVE",
"170 49 OFFCURVE",
"125 76 CURVE",
"112 187 LINE",
"65 187 LINE",
"46 44 LINE",
"114 4 OFFCURVE",
"181 -14 OFFCURVE",
"254 -14 CURVE SMOOTH",
"402 -14 OFFCURVE",
"498 56 OFFCURVE",
"525 249 CURVE SMOOTH",
"573 589 LINE",
"648 604 LINE",
"655 648 LINE",
"400 648 LINE"
);
}
);
width = 641;
},
{
anchors = (
{
name = bottom;
position = "{285, 0}";
},
{
name = top;
position = "{376, 648}";
},
{
name = topright;
position = "{676, 648}";
}
);
guideLines = (
{
position = "{342, 260}";
}
);
layerId = "4E675A61-A531-4354-B628-4B264391FE65";
paths = (
{
closed = 1;
nodes = (
"389 590 LINE",
"459 576 LINE",
"423 296 LINE",
"400 277 OFFCURVE",
"371 270 OFFCURVE",
"333 270 CURVE SMOOTH",
"244 270 OFFCURVE",
"228 323 OFFCURVE",
"228 381 CURVE SMOOTH",
"228 399 OFFCURVE",
"233 448 OFFCURVE",
"240 494 CURVE SMOOTH",
"252 576 LINE",
"323 590 LINE",
"331 648 LINE",
"56 648 LINE",
"48 590 LINE",
"118 576 LINE",
"107 490 LINE SMOOTH",
"102 448 OFFCURVE",
"98 411 OFFCURVE",
"98 379 CURVE SMOOTH",
"98 287 OFFCURVE",
"138 205 OFFCURVE",
"311 205 CURVE SMOOTH",
"350 205 OFFCURVE",
"384 209 OFFCURVE",
"413 219 CURVE",
"392 88 OFFCURVE",
"360 54 OFFCURVE",
"268 54 CURVE SMOOTH",
"222 54 OFFCURVE",
"187 61 OFFCURVE",
"168 68 CURVE",
"154 193 LINE",
"83 193 LINE",
"59 13 LINE",
"96 0 OFFCURVE",
"181 -14 OFFCURVE",
"261 -14 CURVE SMOOTH",
"466 -14 OFFCURVE",
"529 79 OFFCURVE",
"552 259 CURVE SMOOTH",
"593 576 LINE",
"664 590 LINE",
"671 648 LINE",
"396 648 LINE"
);
}
);
width = 631;
}
);
rightMetricsKey = "=J";
},
{
glyphname = a;
lastChange = "2015-02-27 02:13:13 +0000";
layers = (
{
anchors = (
{
name = bottom;
position = "{212, 0}";
},
{
name = ogonek;
position = "{418, 10}";
},
{
name = top;
position = "{282, 494}";
}
);
layerId = "8C17F4AC-C384-4A1F-BD5F-821C12AF061A";
paths = (
{
closed = 1;
nodes = (
"310 104 LINE",
"298 79 OFFCURVE",
"292 62 OFFCURVE",
"292 46 CURVE SMOOTH",
"292 19 OFFCURVE",
"300 -4 OFFCURVE",
"348 -4 CURVE SMOOTH",
"395 -4 OFFCURVE",
"444 27 OFFCURVE",
"444 27 CURVE",
"444 66 LINE",
"371 66 LINE",
"442 517 LINE",
"404 517 LINE",
"379 482 LINE",
"369 487 OFFCURVE",
"315 513 OFFCURVE",
"265 513 CURVE SMOOTH",
"103 513 OFFCURVE",
"40 247 OFFCURVE",
"40 150 CURVE SMOOTH",
"40 53 OFFCURVE",
"73 -9 OFFCURVE",
"158 -9 CURVE SMOOTH",
"219 -9 OFFCURVE",
"276 51 OFFCURVE",
"307 106 CURVE"
);
},
{
closed = 1;
nodes = (
"309 154 LINE",
"281 113 OFFCURVE",
"229 50 OFFCURVE",
"182 50 CURVE SMOOTH",
"133 50 OFFCURVE",
"123 94 OFFCURVE",
"123 171 CURVE SMOOTH",
"123 278 OFFCURVE",
"153 384 OFFCURVE",
"194 441 CURVE SMOOTH",
"199 448 OFFCURVE",
"208 453 OFFCURVE",
"227 453 CURVE SMOOTH",
"275 453 OFFCURVE",
"319 433 OFFCURVE",
"353 410 CURVE"
);
}
);
width = 494;
},
{
anchors = (
{
name = bottom;
position = "{226, 0}";
},
{
name = ogonek;
position = "{464, 10}";
},
{
name = top;
position = "{296, 494}";
}
);
layerId = "4E675A61-A531-4354-B628-4B264391FE65";
paths = (
{
closed = 1;
nodes = (
"296 102 LINE",
"282 82 OFFCURVE",
"276 64 OFFCURVE",
"276 45 CURVE SMOOTH",
"276 12 OFFCURVE",
"302 -6 OFFCURVE",
"353 -6 CURVE SMOOTH",
"435 -6 OFFCURVE",
"483 26 OFFCURVE",
"483 26 CURVE",
"483 88 LINE",
"412 88 LINE",
"481 517 LINE",
"405 517 LINE",
"369 479 LINE",
"338 495 OFFCURVE",
"293 513 OFFCURVE",
"245 513 CURVE SMOOTH",
"107 513 OFFCURVE",
"25 279 OFFCURVE",
"25 150 CURVE SMOOTH",
"25 37 OFFCURVE",
"69 -11 OFFCURVE",
"142 -11 CURVE SMOOTH",
"201 -11 OFFCURVE",
"254 46 OFFCURVE",
"293 104 CURVE"
);
},
{
closed = 1;
nodes = (
"298 176 LINE",
"270 139 OFFCURVE",
"223 88 OFFCURVE",
"183 88 CURVE SMOOTH",
"165 88 OFFCURVE",
"156 128 OFFCURVE",
"156 171 CURVE SMOOTH",
"156 276 OFFCURVE",
"174 370 OFFCURVE",
"201 430 CURVE",
"202 432 OFFCURVE",
"211 433 OFFCURVE",
"222 433 CURVE SMOOTH",
"254 433 OFFCURVE",
"292 410 OFFCURVE",
"331 370 CURVE"
);
}
);
width = 522;
}
);
leftKerningGroup = a;
unicode = 0061;
},
{
glyphname = aacute;
lastChange = "2016-07-28 05:34:45 +0000";
layers = (
{
layerId = "8C17F4AC-C384-4A1F-BD5F-821C12AF061A";
paths = (
{
closed = 1;
nodes = (
"219 -9 OFFCURVE",
"276 51 OFFCURVE",
"307 106 CURVE",
"310 104 LINE",
"298 79 OFFCURVE",
"292 62 OFFCURVE",
"292 46 CURVE SMOOTH",
"292 19 OFFCURVE",
"300 -4 OFFCURVE",
"348 -4 CURVE SMOOTH",
"395 -4 OFFCURVE",
"444 27 OFFCURVE",
"444 27 CURVE",
"444 66 LINE",
"371 66 LINE",
"442 517 LINE",
"404 517 LINE",
"379 482 LINE",
"368 488 OFFCURVE",
"315 513 OFFCURVE",
"265 513 CURVE SMOOTH",
"103 513 OFFCURVE",
"40 247 OFFCURVE",
"40 150 CURVE SMOOTH",
"40 53 OFFCURVE",
"73 -9 OFFCURVE",
"158 -9 CURVE SMOOTH"
);
},
{
closed = 1;
nodes = (
"133 50 OFFCURVE",
"123 94 OFFCURVE",
"123 171 CURVE SMOOTH",
"123 278 OFFCURVE",
"153 384 OFFCURVE",
"194 441 CURVE SMOOTH",
"199 448 OFFCURVE",
"208 453 OFFCURVE",
"227 453 CURVE SMOOTH",
"275 453 OFFCURVE",
"319 433 OFFCURVE",
"353 410 CURVE",
"309 154 LINE",
"281 113 OFFCURVE",
"229 50 OFFCURVE",
"182 50 CURVE SMOOTH"
);
},
{
closed = 1;
nodes = (
"364 624 LINE SMOOTH",
"385 637 OFFCURVE",
"418 660 OFFCURVE",
"418 681 CURVE SMOOTH",
"418 699 OFFCURVE",
"411 721 OFFCURVE",
"376 733 CURVE",
"237 591 LINE",
"263 559 LINE"
);
}
);
width = 497;
},
{
layerId = "4E675A61-A531-4354-B628-4B264391FE65";
paths = (
{
closed = 1;
nodes = (
"201 -11 OFFCURVE",
"254 46 OFFCURVE",
"293 104 CURVE",
"296 102 LINE",
"282 82 OFFCURVE",
"276 64 OFFCURVE",
"276 45 CURVE SMOOTH",
"276 12 OFFCURVE",
"302 -6 OFFCURVE",
"353 -6 CURVE SMOOTH",
"435 -6 OFFCURVE",
"483 26 OFFCURVE",
"483 26 CURVE",
"483 88 LINE",
"412 88 LINE",
"481 517 LINE",
"405 517 LINE",
"369 479 LINE",
"338 495 OFFCURVE",
"293 513 OFFCURVE",
"245 513 CURVE SMOOTH",
"107 513 OFFCURVE",
"25 279 OFFCURVE",
"25 150 CURVE SMOOTH",
"25 37 OFFCURVE",
"69 -11 OFFCURVE",
"142 -11 CURVE SMOOTH"
);
},
{
closed = 1;
nodes = (
"165 88 OFFCURVE",
"156 128 OFFCURVE",
"156 171 CURVE SMOOTH",
"156 276 OFFCURVE",
"174 370 OFFCURVE",
"201 430 CURVE",
"202 432 OFFCURVE",
"211 433 OFFCURVE",
"222 433 CURVE SMOOTH",
"254 433 OFFCURVE",
"292 410 OFFCURVE",
"331 370 CURVE",
"298 176 LINE",
"270 139 OFFCURVE",
"223 88 OFFCURVE",
"183 88 CURVE SMOOTH"
);
},
{
closed = 1;
nodes = (
"364 600 LINE SMOOTH",
"394 616 OFFCURVE",
"450 645 OFFCURVE",
"450 682 CURVE SMOOTH",
"450 710 OFFCURVE",
"433 737 OFFCURVE",
"388 743 CURVE",
"239 591 LINE",
"271 551 LINE"
);
}
);
width = 529;
}
);
leftKerningGroup = a;
unicode = 00E1;
},
{
glyphname = abreve;
lastChange = "2016-07-29 05:50:23 +0000";
layers = (
{
layerId = "8C17F4AC-C384-4A1F-BD5F-821C12AF061A";
paths = (
{
closed = 1;
nodes = (
"219 -9 OFFCURVE",
"276 51 OFFCURVE",
"307 106 CURVE",
"310 104 LINE",
"298 79 OFFCURVE",
"292 62 OFFCURVE",
"292 46 CURVE SMOOTH",
"292 19 OFFCURVE",
"300 -4 OFFCURVE",
"348 -4 CURVE SMOOTH",
"395 -4 OFFCURVE",
"444 27 OFFCURVE",
"444 27 CURVE",
"444 66 LINE",
"371 66 LINE",
"442 517 LINE",
"404 517 LINE",
"379 482 LINE",
"368 488 OFFCURVE",
"315 513 OFFCURVE",
"265 513 CURVE SMOOTH",
"103 513 OFFCURVE",
"40 247 OFFCURVE",
"40 150 CURVE SMOOTH",
"40 53 OFFCURVE",
"73 -9 OFFCURVE",
"158 -9 CURVE SMOOTH"
);
},
{
closed = 1;
nodes = (
"133 50 OFFCURVE",
"123 94 OFFCURVE",
"123 171 CURVE SMOOTH",
"123 278 OFFCURVE",
"153 384 OFFCURVE",
"194 441 CURVE SMOOTH",
"199 448 OFFCURVE",
"208 453 OFFCURVE",
"227 453 CURVE SMOOTH",
"275 453 OFFCURVE",
"319 433 OFFCURVE",
"353 410 CURVE",
"309 154 LINE",
"281 113 OFFCURVE",
"229 50 OFFCURVE",
"182 50 CURVE SMOOTH"
);
},
{
closed = 1;
nodes = (
"411 568 OFFCURVE",
"447 697 OFFCURVE",
"447 697 CURVE",
"426 715 LINE",
"426 715 OFFCURVE",
"379 628 OFFCURVE",
"305 628 CURVE SMOOTH",
"240 628 OFFCURVE",
"232 678 OFFCURVE",
"229 714 CURVE",
"213 714 OFFCURVE",
"189 709 OFFCURVE",
"176 695 CURVE SMOOTH",
"170 689 OFFCURVE",
"166 681 OFFCURVE",
"166 671 CURVE SMOOTH",
"166 631 OFFCURVE",
"202 568 OFFCURVE",
"287 568 CURVE SMOOTH"
);
}
);
width = 497;
},
{
layerId = "4E675A61-A531-4354-B628-4B264391FE65";
paths = (
{
closed = 1;
nodes = (
"201 -11 OFFCURVE",
"254 46 OFFCURVE",
"293 104 CURVE",
"296 102 LINE",
"282 82 OFFCURVE",
"276 64 OFFCURVE",
"276 45 CURVE SMOOTH",
"276 12 OFFCURVE",
"302 -6 OFFCURVE",
"353 -6 CURVE SMOOTH",
"435 -6 OFFCURVE",
"483 26 OFFCURVE",
"483 26 CURVE",
"483 88 LINE",
"412 88 LINE",
"481 517 LINE",
"405 517 LINE",
"369 479 LINE",
"338 495 OFFCURVE",
"293 513 OFFCURVE",
"245 513 CURVE SMOOTH",
"107 513 OFFCURVE",
"25 279 OFFCURVE",
"25 150 CURVE SMOOTH",
"25 37 OFFCURVE",
"69 -11 OFFCURVE",
"142 -11 CURVE SMOOTH"
);
},
{
closed = 1;
nodes = (
"165 88 OFFCURVE",
"156 128 OFFCURVE",
"156 171 CURVE SMOOTH",
"156 276 OFFCURVE",
"174 370 OFFCURVE",
"201 430 CURVE",
"202 432 OFFCURVE",
"211 433 OFFCURVE",
"222 433 CURVE SMOOTH",
"254 433 OFFCURVE",
"292 410 OFFCURVE",
"331 370 CURVE",
"298 176 LINE",
"270 139 OFFCURVE",
"223 88 OFFCURVE",
"183 88 CURVE SMOOTH"
);
},
{
closed = 1;
nodes = (
"447 559 OFFCURVE",
"484 709 OFFCURVE",
"484 709 CURVE",
"443 726 LINE",
"443 726 OFFCURVE",
"400 648 OFFCURVE",
"321 648 CURVE SMOOTH",
"267 648 OFFCURVE",
"242 684 OFFCURVE",
"235 729 CURVE",
"225 729 OFFCURVE",
"176 713 OFFCURVE",
"166 705 CURVE",
"160 701 OFFCURVE",
"155 696 OFFCURVE",
"155 679 CURVE SMOOTH",
"155 628 OFFCURVE",
"205 559 OFFCURVE",
"290 559 CURVE SMOOTH"
);
}
);
width = 526;
}
);
leftKerningGroup = a;
unicode = 0103;
},
{
glyphname = acircumflex;
lastChange = "2016-07-28 05:34:45 +0000";
layers = (
{
layerId = "8C17F4AC-C384-4A1F-BD5F-821C12AF061A";
paths = (
{
closed = 1;
nodes = (
"219 -9 OFFCURVE",
"276 51 OFFCURVE",
"307 106 CURVE",
"310 104 LINE",
"298 79 OFFCURVE",
"292 62 OFFCURVE",
"292 46 CURVE SMOOTH",
"292 19 OFFCURVE",
"300 -4 OFFCURVE",
"348 -4 CURVE SMOOTH",
"395 -4 OFFCURVE",
"444 27 OFFCURVE",
"444 27 CURVE",
"444 66 LINE",
"371 66 LINE",
"442 517 LINE",
"404 517 LINE",
"379 482 LINE",
"368 488 OFFCURVE",
"315 513 OFFCURVE",
"265 513 CURVE SMOOTH",
"103 513 OFFCURVE",
"40 247 OFFCURVE",
"40 150 CURVE SMOOTH",
"40 53 OFFCURVE",
"73 -9 OFFCURVE",
"158 -9 CURVE SMOOTH"
);
},
{
closed = 1;
nodes = (
"133 50 OFFCURVE",
"123 94 OFFCURVE",
"123 171 CURVE SMOOTH",
"123 278 OFFCURVE",
"153 384 OFFCURVE",
"194 441 CURVE SMOOTH",
"199 448 OFFCURVE",
"208 453 OFFCURVE",
"227 453 CURVE SMOOTH",
"275 453 OFFCURVE",
"319 433 OFFCURVE",
"353 410 CURVE",
"309 154 LINE",
"281 113 OFFCURVE",
"229 50 OFFCURVE",
"182 50 CURVE SMOOTH"
);
},
{
closed = 1;
nodes = (
"432 597 LINE",
"352 698 LINE",
"335 717 OFFCURVE",
"326 731 OFFCURVE",
"316 731 CURVE SMOOTH",
"305 731 OFFCURVE",
"281 704 OFFCURVE",
"266 690 CURVE SMOOTH",
"163 593 LINE",
"192 565 LINE",
"303 641 LINE",
"402 562 LINE"
);
}
);
width = 497;
},
{
layerId = "4E675A61-A531-4354-B628-4B264391FE65";
paths = (
{
closed = 1;
nodes = (
"201 -11 OFFCURVE",
"254 46 OFFCURVE",
"293 104 CURVE",
"296 102 LINE",
"282 82 OFFCURVE",
"276 64 OFFCURVE",
"276 45 CURVE SMOOTH",
"276 12 OFFCURVE",
"302 -6 OFFCURVE",
"353 -6 CURVE SMOOTH",
"435 -6 OFFCURVE",
"483 26 OFFCURVE",
"483 26 CURVE",
"483 88 LINE",
"412 88 LINE",
"481 517 LINE",
"405 517 LINE",
"369 479 LINE",
"338 495 OFFCURVE",
"293 513 OFFCURVE",
"245 513 CURVE SMOOTH",
"107 513 OFFCURVE",
"25 279 OFFCURVE",
"25 150 CURVE SMOOTH",
"25 37 OFFCURVE",
"69 -11 OFFCURVE",
"142 -11 CURVE SMOOTH"
);
},
{
closed = 1;
nodes = (
"165 88 OFFCURVE",
"156 128 OFFCURVE",
"156 171 CURVE SMOOTH",
"156 276 OFFCURVE",
"174 370 OFFCURVE",
"201 430 CURVE",
"202 432 OFFCURVE",
"211 433 OFFCURVE",
"222 433 CURVE SMOOTH",
"254 433 OFFCURVE",
"292 410 OFFCURVE",
"331 370 CURVE",
"298 176 LINE",
"270 139 OFFCURVE",
"223 88 OFFCURVE",
"183 88 CURVE SMOOTH"
);
},
{
closed = 1;
nodes = (
"438 589 LINE",
"361 697 LINE SMOOTH",
"345 720 OFFCURVE",
"330 741 OFFCURVE",
"312 741 CURVE SMOOTH",
"296 741 OFFCURVE",
"272 718 OFFCURVE",
"236 682 CURVE SMOOTH",
"144 591 LINE",
"175 557 LINE",
"299 622 LINE",
"400 553 LINE"
);
}
);
width = 526;
}
);
leftKerningGroup = a;
unicode = 00E2;
},
{
glyphname = adieresis;
lastChange = "2016-07-29 06:31:22 +0000";
layers = (
{
layerId = "8C17F4AC-C384-4A1F-BD5F-821C12AF061A";
paths = (
{
closed = 1;
nodes = (
"219 -9 OFFCURVE",
"276 51 OFFCURVE",
"307 106 CURVE",
"310 104 LINE",
"298 79 OFFCURVE",
"292 62 OFFCURVE",
"292 46 CURVE SMOOTH",
"292 19 OFFCURVE",
"300 -4 OFFCURVE",
"348 -4 CURVE SMOOTH",
"395 -4 OFFCURVE",
"444 27 OFFCURVE",
"444 27 CURVE",
"444 66 LINE",
"371 66 LINE",
"442 517 LINE",
"404 517 LINE",
"379 482 LINE",
"368 488 OFFCURVE",
"315 513 OFFCURVE",
"265 513 CURVE SMOOTH",
"103 513 OFFCURVE",
"40 247 OFFCURVE",
"40 150 CURVE SMOOTH",
"40 53 OFFCURVE",
"73 -9 OFFCURVE",
"158 -9 CURVE SMOOTH"
);
},
{
closed = 1;
nodes = (
"133 50 OFFCURVE",
"123 94 OFFCURVE",
"123 171 CURVE SMOOTH",
"123 278 OFFCURVE",
"153 384 OFFCURVE",
"194 441 CURVE SMOOTH",
"199 448 OFFCURVE",
"208 453 OFFCURVE",
"227 453 CURVE SMOOTH",
"275 453 OFFCURVE",
"319 433 OFFCURVE",
"353 410 CURVE",
"309 154 LINE",
"281 113 OFFCURVE",
"229 50 OFFCURVE",
"182 50 CURVE SMOOTH"
);
},
{
closed = 1;
nodes = (
"232 594 OFFCURVE",
"256 629 OFFCURVE",
"256 659 CURVE SMOOTH",
"256 688 OFFCURVE",
"237 706 OFFCURVE",
"210 706 CURVE SMOOTH",
"168 706 OFFCURVE",
"148 668 OFFCURVE",
"148 637 CURVE SMOOTH",
"148 613 OFFCURVE",
"165 594 OFFCURVE",
"192 594 CURVE SMOOTH"
);
},
{
closed = 1;
nodes = (
"419 594 OFFCURVE",
"442 629 OFFCURVE",
"442 659 CURVE SMOOTH",
"442 688 OFFCURVE",
"424 706 OFFCURVE",
"397 706 CURVE SMOOTH",
"355 706 OFFCURVE",
"334 668 OFFCURVE",
"334 637 CURVE SMOOTH",
"334 613 OFFCURVE",
"352 594 OFFCURVE",
"379 594 CURVE SMOOTH"
);
}
);
width = 497;
},
{
layerId = "4E675A61-A531-4354-B628-4B264391FE65";
paths = (
{
closed = 1;
nodes = (
"201 -11 OFFCURVE",
"254 46 OFFCURVE",
"293 104 CURVE",
"296 102 LINE",
"282 82 OFFCURVE",
"276 64 OFFCURVE",
"276 45 CURVE SMOOTH",
"276 12 OFFCURVE",
"302 -6 OFFCURVE",
"353 -6 CURVE SMOOTH",
"435 -6 OFFCURVE",
"483 26 OFFCURVE",
"483 26 CURVE",
"483 88 LINE",
"412 88 LINE",
"481 517 LINE",
"405 517 LINE",
"369 479 LINE",
"338 495 OFFCURVE",
"293 513 OFFCURVE",
"245 513 CURVE SMOOTH",
"107 513 OFFCURVE",
"25 279 OFFCURVE",
"25 150 CURVE SMOOTH",
"25 37 OFFCURVE",
"69 -11 OFFCURVE",
"142 -11 CURVE SMOOTH"
);
},
{
closed = 1;
nodes = (
"165 88 OFFCURVE",
"156 128 OFFCURVE",
"156 171 CURVE SMOOTH",
"156 276 OFFCURVE",
"174 370 OFFCURVE",
"201 430 CURVE",
"202 432 OFFCURVE",
"211 433 OFFCURVE",
"222 433 CURVE SMOOTH",
"254 433 OFFCURVE",
"292 410 OFFCURVE",
"331 370 CURVE",
"298 176 LINE",
"270 139 OFFCURVE",
"223 88 OFFCURVE",
"183 88 CURVE SMOOTH"
);
},
{
closed = 1;
nodes = (
"263 576 OFFCURVE",
"288 617 OFFCURVE",
"288 657 CURVE SMOOTH",
"288 700 OFFCURVE",
"260 726 OFFCURVE",
"222 726 CURVE SMOOTH",
"171 726 OFFCURVE",
"146 682 OFFCURVE",
"146 642 CURVE SMOOTH",
"146 605 OFFCURVE",
"172 576 OFFCURVE",
"211 576 CURVE SMOOTH"
);
},
{
closed = 1;
nodes = (
"467 576 OFFCURVE",
"492 617 OFFCURVE",
"492 657 CURVE SMOOTH",
"492 700 OFFCURVE",
"464 726 OFFCURVE",
"426 726 CURVE SMOOTH",
"375 726 OFFCURVE",
"350 682 OFFCURVE",
"350 642 CURVE SMOOTH",
"350 605 OFFCURVE",
"376 576 OFFCURVE",
"415 576 CURVE SMOOTH"
);
}
);
width = 526;
}
);
leftKerningGroup = a;
unicode = 00E4;
},
{
glyphname = agrave;
lastChange = "2015-02-26 23:15:43 +0000";
layers = (
{
layerId = "8C17F4AC-C384-4A1F-BD5F-821C12AF061A";
paths = (
{
closed = 1;
nodes = (
"310 104 LINE",
"298 79 OFFCURVE",
"292 62 OFFCURVE",
"292 46 CURVE SMOOTH",
"292 19 OFFCURVE",
"300 -4 OFFCURVE",
"348 -4 CURVE SMOOTH",
"395 -4 OFFCURVE",
"444 27 OFFCURVE",
"444 27 CURVE",
"444 66 LINE",
"371 66 LINE",
"442 517 LINE",
"404 517 LINE",
"379 482 LINE",
"368 488 OFFCURVE",
"315 513 OFFCURVE",
"265 513 CURVE SMOOTH",
"103 513 OFFCURVE",
"40 247 OFFCURVE",
"40 150 CURVE SMOOTH",
"40 53 OFFCURVE",
"73 -9 OFFCURVE",
"158 -9 CURVE SMOOTH",
"219 -9 OFFCURVE",
"276 51 OFFCURVE",
"307 106 CURVE"
);
},
{
closed = 1;
nodes = (
"309 154 LINE",
"281 113 OFFCURVE",
"229 50 OFFCURVE",
"182 50 CURVE SMOOTH",
"133 50 OFFCURVE",
"123 94 OFFCURVE",
"123 171 CURVE SMOOTH",
"123 278 OFFCURVE",
"153 384 OFFCURVE",
"194 441 CURVE SMOOTH",
"199 448 OFFCURVE",
"208 453 OFFCURVE",
"227 453 CURVE SMOOTH",
"275 453 OFFCURVE",
"319 433 OFFCURVE",
"353 410 CURVE"
);
},
{
closed = 1;
nodes = (
"354 559 LINE",
"380 591 LINE",
"241 733 LINE",
"206 721 OFFCURVE",
"199 699 OFFCURVE",
"199 681 CURVE SMOOTH",
"199 660 OFFCURVE",
"232 637 OFFCURVE",
"253 624 CURVE SMOOTH"
);
}
);
width = 497;
},
{
layerId = "4E675A61-A531-4354-B628-4B264391FE65";
paths = (
{
closed = 1;
nodes = (
"296 102 LINE",
"282 82 OFFCURVE",
"276 64 OFFCURVE",
"276 45 CURVE SMOOTH",
"276 12 OFFCURVE",
"302 -6 OFFCURVE",
"353 -6 CURVE SMOOTH",
"435 -6 OFFCURVE",
"483 26 OFFCURVE",
"483 26 CURVE",
"483 88 LINE",
"412 88 LINE",
"481 517 LINE",
"405 517 LINE",
"369 479 LINE",
"338 495 OFFCURVE",
"293 513 OFFCURVE",
"245 513 CURVE SMOOTH",
"107 513 OFFCURVE",
"25 279 OFFCURVE",
"25 150 CURVE SMOOTH",
"25 37 OFFCURVE",
"69 -11 OFFCURVE",
"142 -11 CURVE SMOOTH",
"201 -11 OFFCURVE",
"254 46 OFFCURVE",
"293 104 CURVE"
);
},
{
closed = 1;
nodes = (
"298 176 LINE",
"270 139 OFFCURVE",
"223 88 OFFCURVE",
"183 88 CURVE SMOOTH",
"165 88 OFFCURVE",
"156 128 OFFCURVE",
"156 171 CURVE SMOOTH",
"156 276 OFFCURVE",
"174 370 OFFCURVE",
"201 430 CURVE",
"202 432 OFFCURVE",
"211 433 OFFCURVE",
"222 433 CURVE SMOOTH",
"254 433 OFFCURVE",
"292 410 OFFCURVE",
"331 370 CURVE"
);
},
{
closed = 1;
nodes = (
"378 551 LINE",
"410 591 LINE",
"261 743 LINE",
"216 737 OFFCURVE",
"199 710 OFFCURVE",
"199 682 CURVE SMOOTH",
"199 645 OFFCURVE",
"255 616 OFFCURVE",
"285 600 CURVE SMOOTH"
);
}
);
width = 526;
}
);
leftKerningGroup = a;
unicode = 00E0;
},
